<svg width="20" height="20" viewBox="0 0 20 20" fill="none" xmlns="http://www.w3.org/2000/svg">
<path d="M20 10.0112L18.2883 7.78147L18.6712 5.0112L16.0586 3.97516L15.0225 1.36255L12.2523 1.74543L10 0.0112L7.77027 1.72291L5 1.34003L3.96396 3.95264L1.35135 4.98868L1.73423 7.75895L0 10.0112L1.71171 12.2409L1.32883 15.0112L3.94144 16.0472L4.97748 18.6598L7.74775 18.277L9.97748 19.9887L12.2072 18.277L14.9775 18.6598L16.0135 16.0472L18.6261 14.9887L18.2432 12.2184L20 10.0112ZM9.18919 13.2544L5.85586 10.5067L6.57658 9.62832L9.05405 11.6553L13.2883 6.76796L14.1441 7.5112L9.18919 13.2544Z" fill="#E0AE2F"/>
</svg>
