<svg width="131" height="80" viewBox="0 0 131 80" fill="none" xmlns="http://www.w3.org/2000/svg">
<g clip-path="url(#clip0)">
<path opacity="0.1" d="M129.618 73.9516C129.112 75.2017 128.489 76.4012 127.758 77.5341C127.415 78.0745 127.039 78.593 126.631 79.0867L126.619 79.1015H0.635132L0.657804 79.0856C0.771165 78.9969 1.43659 78.4571 2.47158 77.533C3.2141 76.8693 4.14592 76.0077 5.19225 74.9711C13.7499 66.532 30.1883 46.5565 16.4977 28.2574C3.7707 11.2461 17.4738 8.15799 26.5132 7.79882C29.9865 7.66363 33.4514 8.23148 36.7009 9.46847C40.876 11.0597 48.5086 13.4999 58.4527 14.6172C58.7791 14.6543 59.1086 14.69 59.4412 14.7241C64.7059 15.2611 70.0061 15.3573 75.2868 15.0116V15.0116C75.4421 15.0037 75.5985 14.9923 75.7561 14.9809C80.98 14.6122 86.1641 13.8077 91.2548 12.5759C91.5847 12.4952 91.91 12.4191 92.2342 12.3486C109.196 8.41372 124.833 21.8243 120.925 36.9807C119.478 42.5852 119.846 48.5614 124.666 53.3942C132.55 61.2866 131.59 69.0563 129.618 73.9516Z" fill="#0159FA"/>
<path d="M102.822 31.4863C103.251 30.7165 103.124 29.826 102.538 29.4973C101.951 29.1686 101.128 29.5262 100.699 30.296C100.269 31.0658 100.397 31.9563 100.983 32.285C101.569 32.6137 102.393 32.2561 102.822 31.4863Z" fill="#3F3D56"/>
<path d="M103.772 29.7832C104.201 29.0134 104.073 28.1229 103.487 27.7942C102.901 27.4655 102.077 27.823 101.648 28.5928C101.219 29.3626 101.346 30.2532 101.933 30.5819C102.519 30.9106 103.342 30.553 103.772 29.7832Z" fill="#3F3D56"/>
<path d="M104.721 28.0796C105.151 27.3098 105.023 26.4193 104.437 26.0906C103.851 25.7619 103.027 26.1194 102.598 26.8892C102.169 27.659 102.296 28.5495 102.882 28.8782C103.469 29.2069 104.292 28.8494 104.721 28.0796Z" fill="#3F3D56"/>
<path d="M105.671 26.3751C106.1 25.6053 105.973 24.7148 105.386 24.3861C104.8 24.0574 103.977 24.415 103.548 25.1848C103.118 25.9546 103.246 26.8451 103.832 27.1738C104.418 27.5025 105.242 27.1449 105.671 26.3751Z" fill="#3F3D56"/>
<path d="M106.62 24.672C107.05 23.9022 106.922 23.0117 106.336 22.683C105.75 22.3543 104.926 22.7118 104.497 23.4816C104.068 24.2514 104.195 25.142 104.781 25.4706C105.368 25.7993 106.191 25.4418 106.62 24.672Z" fill="#3F3D56"/>
<path d="M107.571 22.9688C108 22.1991 107.873 21.3085 107.287 20.9798C106.7 20.6511 105.877 21.0087 105.448 21.7785C105.018 22.5483 105.146 23.4388 105.732 23.7675C106.318 24.0962 107.142 23.7386 107.571 22.9688Z" fill="#3F3D56"/>
<path d="M108.521 21.2652C108.951 20.4954 108.823 19.6049 108.237 19.2762C107.65 18.9475 106.827 19.3051 106.398 20.0749C105.969 20.8447 106.096 21.7352 106.682 22.0639C107.269 22.3926 108.092 22.035 108.521 21.2652Z" fill="#3F3D56"/>
<path d="M117.929 11.2374C118.177 11.1335 118.418 11.0127 118.65 10.876L116.117 8.85174L119.12 10.5657C119.761 10.0964 120.3 9.50089 120.704 8.81554C121.108 8.13018 121.369 7.3694 121.469 6.5797L116.247 6.41603L121.515 5.75795C121.509 4.95223 121.336 4.15649 121.009 3.42073C120.681 2.68498 120.205 2.02511 119.611 1.48259C119.017 0.940064 118.317 0.526615 117.556 0.268216C116.795 0.0098173 115.989 -0.0879459 115.188 -0.0189312C114.387 0.0500835 113.609 0.284384 112.903 0.66925C112.197 1.05412 111.578 1.58123 111.085 2.21747C110.592 2.85371 110.236 3.58532 110.038 4.36634C109.841 5.14737 109.806 5.96092 109.937 6.75587C109.551 6.91746 109.182 7.12017 108.839 7.36054L111.411 11.2772L108.274 7.8129C107.555 8.4644 107.009 9.28558 106.685 10.2021C106.362 11.1186 106.272 12.1014 106.423 13.0617C105.414 13.4833 104.543 14.1811 103.911 15.0754C103.278 15.9697 102.91 17.0244 102.847 18.1188C102.784 19.2133 103.03 20.3034 103.556 21.2645C104.082 22.2256 104.867 23.0189 105.821 23.5538C106.776 24.0887 107.861 24.3435 108.953 24.2892C110.045 24.2349 111.1 23.8736 111.997 23.2466C112.893 22.6197 113.596 21.7523 114.025 20.7437C114.453 19.7352 114.59 18.6261 114.42 17.5432C115.626 17.0396 116.628 16.1439 117.265 15.0003C117.903 13.8566 118.138 12.5314 117.934 11.2374H117.929Z" fill="#0159FA"/>
<path opacity="0.1" d="M107.087 9.29953C106.45 10.4434 106.216 11.7691 106.423 13.0628C105.414 13.4844 104.543 14.1823 103.911 15.0765C103.278 15.9708 102.91 17.0255 102.847 18.1199C102.784 19.2144 103.03 20.3045 103.556 21.2656C104.082 22.2267 104.867 23.02 105.821 23.5549C106.776 24.0898 107.861 24.3447 108.953 24.2903C110.045 24.236 111.1 23.8747 111.997 23.2477C112.893 22.6208 113.596 21.7534 114.025 20.7449C114.453 19.7363 114.59 18.6272 114.42 17.5443C115.579 17.059 107.407 8.73123 107.087 9.29953Z" fill="black"/>
<path d="M114.653 71.8067H116.025C116.777 71.8067 117.498 72.1061 118.029 72.6389C118.561 73.1718 118.859 73.8946 118.859 74.6482V78.866H111.819V74.6482C111.819 73.8946 112.117 73.1718 112.649 72.6389C113.18 72.1061 113.901 71.8067 114.653 71.8067V71.8067Z" fill="#3F3D56"/>
<path opacity="0.1" d="M114.653 71.8067H116.025C116.777 71.8067 117.498 72.1061 118.029 72.6389C118.561 73.1718 118.859 73.8946 118.859 74.6482V78.866H111.819V74.6482C111.819 73.8946 112.117 73.1718 112.649 72.6389C113.18 72.1061 113.901 71.8067 114.653 71.8067V71.8067Z" fill="black"/>
<path d="M115.058 73.36C115.369 73.36 115.621 73.1071 115.621 72.7951C115.621 72.4831 115.369 72.2302 115.058 72.2302C114.747 72.2302 114.495 72.4831 114.495 72.7951C114.495 73.1071 114.747 73.36 115.058 73.36Z" fill="#3F3D56"/>
<path d="M115.058 72.6551C115.369 72.6551 115.621 72.4022 115.621 72.0902C115.621 71.7782 115.369 71.5253 115.058 71.5253C114.747 71.5253 114.495 71.7782 114.495 72.0902C114.495 72.4022 114.747 72.6551 115.058 72.6551Z" fill="#3F3D56"/>
<path d="M115.058 71.9468C115.369 71.9468 115.621 71.6939 115.621 71.382C115.621 71.07 115.369 70.8171 115.058 70.8171C114.747 70.8171 114.495 71.07 114.495 71.382C114.495 71.6939 114.747 71.9468 115.058 71.9468Z" fill="#3F3D56"/>
<path d="M115.058 71.242C115.369 71.242 115.621 70.989 115.621 70.6771C115.621 70.3651 115.369 70.1122 115.058 70.1122C114.747 70.1122 114.495 70.3651 114.495 70.6771C114.495 70.989 114.747 71.242 115.058 71.242Z" fill="#3F3D56"/>
<path d="M115.058 70.5352C115.369 70.5352 115.621 70.2823 115.621 69.9703C115.621 69.6583 115.369 69.4054 115.058 69.4054C114.747 69.4054 114.495 69.6583 114.495 69.9703C114.495 70.2823 114.747 70.5352 115.058 70.5352Z" fill="#3F3D56"/>
<path d="M115.058 69.8302C115.369 69.8302 115.621 69.5773 115.621 69.2653C115.621 68.9533 115.369 68.7004 115.058 68.7004C114.747 68.7004 114.495 68.9533 114.495 69.2653C114.495 69.5773 114.747 69.8302 115.058 69.8302Z" fill="#3F3D56"/>
<path d="M115.058 69.1233C115.369 69.1233 115.621 68.8704 115.621 68.5584C115.621 68.2464 115.369 67.9935 115.058 67.9935C114.747 67.9935 114.495 68.2464 114.495 68.5584C114.495 68.8704 114.747 69.1233 115.058 69.1233Z" fill="#3F3D56"/>
<path d="M115.902 69.4048C116.214 69.4048 116.466 69.1519 116.466 68.8399C116.466 68.5279 116.214 68.275 115.902 68.275C115.591 68.275 115.339 68.5279 115.339 68.8399C115.339 69.1519 115.591 69.4048 115.902 69.4048Z" fill="#3F3D56"/>
<path d="M116.466 69.1233C116.777 69.1233 117.029 68.8704 117.029 68.5584C117.029 68.2464 116.777 67.9935 116.466 67.9935C116.155 67.9935 115.903 68.2464 115.903 68.5584C115.903 68.8704 116.155 69.1233 116.466 69.1233Z" fill="#3F3D56"/>
<path d="M117.03 68.8406C117.341 68.8406 117.593 68.5877 117.593 68.2757C117.593 67.9637 117.341 67.7108 117.03 67.7108C116.719 67.7108 116.467 67.9637 116.467 68.2757C116.467 68.5877 116.719 68.8406 117.03 68.8406Z" fill="#3F3D56"/>
<path d="M115.058 68.4186C115.369 68.4186 115.621 68.1657 115.621 67.8537C115.621 67.5417 115.369 67.2888 115.058 67.2888C114.747 67.2888 114.495 67.5417 114.495 67.8537C114.495 68.1657 114.747 68.4186 115.058 68.4186Z" fill="#3F3D56"/>
<path d="M115.058 67.7116C115.369 67.7116 115.621 67.4587 115.621 67.1467C115.621 66.8347 115.369 66.5818 115.058 66.5818C114.747 66.5818 114.495 66.8347 114.495 67.1467C114.495 67.4587 114.747 67.7116 115.058 67.7116Z" fill="#3F3D56"/>
<path d="M115.058 67.0054C115.369 67.0054 115.621 66.7525 115.621 66.4405C115.621 66.1285 115.369 65.8756 115.058 65.8756C114.747 65.8756 114.495 66.1285 114.495 66.4405C114.495 66.7525 114.747 67.0054 115.058 67.0054Z" fill="#3F3D56"/>
<path d="M115.058 66.2986C115.369 66.2986 115.621 66.0457 115.621 65.7337C115.621 65.4217 115.369 65.1688 115.058 65.1688C114.747 65.1688 114.495 65.4217 114.495 65.7337C114.495 66.0457 114.747 66.2986 115.058 66.2986Z" fill="#3F3D56"/>
<path d="M117.393 63.9129C117.253 63.9333 117.113 63.9481 116.971 63.9572C117.102 63.8429 117.223 63.7182 117.334 63.5844C117.256 63.347 117.141 63.1234 116.994 62.9218C116.854 63.0005 116.7 63.0496 116.541 63.0661C116.401 63.0866 116.261 63.1014 116.12 63.1105C116.309 62.9305 116.489 62.7408 116.658 62.5422C116.252 62.1729 115.731 61.9548 115.184 61.9245C114.636 61.8943 114.095 62.0536 113.65 62.3759C113.206 62.6981 112.885 63.1637 112.743 63.6946C112.6 64.2256 112.643 64.7896 112.866 65.2922C113.088 65.7948 113.477 66.2054 113.965 66.4553C114.454 66.7052 115.013 66.7792 115.549 66.6649C116.086 66.5505 116.567 66.2548 116.912 65.8272C117.257 65.3997 117.445 64.8663 117.444 64.3164C117.444 64.178 117.432 64.04 117.408 63.9038L117.393 63.9129Z" fill="#0159FA"/>
<path d="M119.276 66.7198C119.132 66.8083 118.97 66.8627 118.802 66.8789C118.662 66.8993 118.522 66.9141 118.381 66.9232C118.531 66.7888 118.67 66.6437 118.798 66.489C118.681 66.4581 118.56 66.442 118.438 66.4413C118.103 66.4407 117.778 66.5598 117.523 66.7774C117.267 66.995 117.097 67.2967 117.043 67.6286C116.99 67.9604 117.056 68.3005 117.229 68.588C117.403 68.8755 117.673 69.0915 117.992 69.1973C118.31 69.3031 118.655 69.2917 118.966 69.1652C119.277 69.0388 119.532 68.8055 119.687 68.5072C119.841 68.2089 119.885 67.8652 119.809 67.5376C119.734 67.21 119.545 66.9201 119.276 66.7198V66.7198Z" fill="#0159FA"/>
<path d="M114.212 69.4048C114.523 69.4048 114.776 69.1519 114.776 68.8399C114.776 68.5279 114.523 68.275 114.212 68.275C113.901 68.275 113.649 68.5279 113.649 68.8399C113.649 69.1519 113.901 69.4048 114.212 69.4048Z" fill="#3F3D56"/>
<path d="M113.649 69.1233C113.96 69.1233 114.212 68.8704 114.212 68.5584C114.212 68.2464 113.96 67.9935 113.649 67.9935C113.338 67.9935 113.085 68.2464 113.085 68.5584C113.085 68.8704 113.338 69.1233 113.649 69.1233Z" fill="#3F3D56"/>
<path d="M113.086 68.8406C113.398 68.8406 113.65 68.5877 113.65 68.2757C113.65 67.9637 113.398 67.7108 113.086 67.7108C112.775 67.7108 112.523 67.9637 112.523 68.2757C112.523 68.5877 112.775 68.8406 113.086 68.8406Z" fill="#3F3D56"/>
<path d="M110.844 66.7198C110.988 66.8083 111.15 66.8627 111.318 66.8789C111.457 66.8993 111.598 66.9141 111.738 66.9232C111.589 66.7888 111.45 66.6437 111.321 66.489C111.439 66.4581 111.56 66.442 111.682 66.4413C112.017 66.4407 112.342 66.5598 112.597 66.7774C112.853 66.995 113.023 67.2967 113.076 67.6286C113.13 67.9604 113.064 68.3005 112.89 68.588C112.717 68.8755 112.446 69.0915 112.128 69.1973C111.81 69.3031 111.465 69.2917 111.154 69.1652C110.843 69.0388 110.588 68.8055 110.433 68.5072C110.278 68.2089 110.235 67.8652 110.31 67.5376C110.386 67.21 110.575 66.9201 110.844 66.7198V66.7198Z" fill="#0159FA"/>
<path d="M114.653 72.2302H116.025C116.777 72.2302 117.498 72.5296 118.029 73.0625C118.561 73.5953 118.859 74.3181 118.859 75.0717V78.8077C118.859 78.9355 118.809 79.058 118.719 79.1484C118.629 79.2388 118.506 79.2896 118.379 79.2896H112.299C112.172 79.2896 112.05 79.2388 111.959 79.1484C111.869 79.058 111.819 78.9355 111.819 78.8077V75.0717C111.819 74.3181 112.117 73.5953 112.649 73.0625C113.18 72.5296 113.901 72.2302 114.653 72.2302V72.2302Z" fill="#3F3D56"/>
<g opacity="0.1">
<path opacity="0.1" d="M117.437 64.067C117.38 64.1287 117.319 64.1864 117.254 64.2398C117.319 64.2398 117.384 64.2295 117.447 64.2227C117.445 64.1704 117.443 64.1182 117.437 64.067Z" fill="black"/>
<path opacity="0.1" d="M116.409 63.3919C116.549 63.3828 116.69 63.3681 116.829 63.3476C116.955 63.3321 117.079 63.2984 117.195 63.2476C117.138 63.1341 117.072 63.0251 116.998 62.9214C116.928 62.9644 116.851 62.997 116.771 63.018C116.66 63.1519 116.539 63.2769 116.409 63.3919V63.3919Z" fill="black"/>
<path opacity="0.1" d="M112.945 64.6052C112.944 64.1743 113.059 63.7511 113.278 63.3803C113.497 63.0094 113.812 62.7046 114.189 62.498C114.566 62.2913 114.992 62.1905 115.421 62.2061C115.851 62.2217 116.268 62.3531 116.629 62.5866L116.665 62.5479C116.43 62.3376 116.155 62.1762 115.856 62.0728C115.558 61.9695 115.242 61.9264 114.927 61.946C114.612 61.9656 114.304 62.0475 114.021 62.1869C113.738 62.3264 113.485 62.5207 113.277 62.7586C113.069 62.9965 112.91 63.2733 112.809 63.5731C112.708 63.873 112.667 64.1898 112.689 64.5055C112.711 64.8211 112.795 65.1293 112.936 65.4123C113.077 65.6953 113.273 65.9475 113.512 66.1544C113.145 65.722 112.944 65.1727 112.945 64.6052V64.6052Z" fill="black"/>
</g>
<g opacity="0.1">
<path opacity="0.1" d="M118.38 67.2062C118.521 67.1959 118.662 67.1812 118.801 67.1607C118.969 67.1449 119.131 67.0909 119.275 67.0027C119.434 67.1201 119.567 67.2698 119.665 67.4421C119.762 67.6145 119.823 67.8056 119.842 68.0029C119.847 67.9531 119.85 67.903 119.85 67.8529C119.851 67.6322 119.8 67.4143 119.701 67.2169C119.603 67.0194 119.459 66.848 119.283 66.7163C119.139 66.8048 118.977 66.8592 118.809 66.8754L118.696 66.8891C118.599 67.003 118.494 67.1091 118.38 67.2062Z" fill="black"/>
<path opacity="0.1" d="M118.44 66.7232C118.487 66.7232 118.534 66.7232 118.58 66.7334C118.654 66.655 118.727 66.5709 118.8 66.489C118.682 66.458 118.561 66.442 118.44 66.4413C118.066 66.4413 117.708 66.59 117.444 66.8547C117.18 67.1195 117.032 67.4785 117.032 67.8529C117.032 67.9007 117.032 67.9484 117.039 67.9939C117.074 67.6457 117.236 67.3229 117.495 67.0882C117.754 66.8534 118.091 66.7234 118.44 66.7232Z" fill="black"/>
</g>
<g opacity="0.1">
<path opacity="0.1" d="M111.735 67.2062C111.594 67.1959 111.454 67.1812 111.314 67.1607C111.146 67.1449 110.984 67.0909 110.84 67.0027C110.681 67.1201 110.548 67.2698 110.45 67.4421C110.353 67.6145 110.293 67.8056 110.274 68.0029C110.268 67.9531 110.265 67.903 110.266 67.8529C110.265 67.6322 110.315 67.4143 110.414 67.2169C110.512 67.0194 110.656 66.848 110.832 66.7163C110.976 66.8048 111.138 66.8592 111.306 66.8754L111.42 66.8891C111.516 67.0028 111.622 67.1088 111.735 67.2062Z" fill="black"/>
<path opacity="0.1" d="M111.678 66.7232C111.63 66.7232 111.584 66.7232 111.537 66.7334C111.464 66.655 111.391 66.5709 111.317 66.489C111.435 66.458 111.556 66.442 111.678 66.4413C112.051 66.4413 112.409 66.59 112.673 66.8547C112.937 67.1195 113.086 67.4785 113.086 67.8529C113.086 67.9007 113.086 67.9484 113.079 67.9939C113.044 67.6457 112.881 67.3229 112.622 67.0882C112.363 66.8534 112.027 66.7234 111.678 66.7232V66.7232Z" fill="black"/>
</g>
<path d="M6.46159 61.2621H17.2921C18.0437 61.2621 18.7646 61.5615 19.2961 62.0943C19.8275 62.6272 20.1261 63.3499 20.1261 64.1036V77.7983H3.62756V64.1036C3.62756 63.3499 3.92615 62.6272 4.45763 62.0943C4.98911 61.5615 5.70996 61.2621 6.46159 61.2621V61.2621Z" fill="#3F3D56"/>
<path opacity="0.1" d="M6.46159 61.2621H17.2921C18.0437 61.2621 18.7646 61.5615 19.2961 62.0943C19.8275 62.6272 20.1261 63.3499 20.1261 64.1036V77.7983H3.62756V64.1036C3.62756 63.3499 3.92615 62.6272 4.45763 62.0943C4.98911 61.5615 5.70996 61.2621 6.46159 61.2621V61.2621Z" fill="black"/>
<path d="M11.2192 64.8962C11.9479 64.8962 12.5387 64.3039 12.5387 63.5732C12.5387 62.8426 11.9479 62.2502 11.2192 62.2502C10.4904 62.2502 9.89966 62.8426 9.89966 63.5732C9.89966 64.3039 10.4904 64.8962 11.2192 64.8962Z" fill="#3F3D56"/>
<path d="M11.2192 63.2413C11.9479 63.2413 12.5387 62.649 12.5387 61.9183C12.5387 61.1877 11.9479 60.5953 11.2192 60.5953C10.4904 60.5953 9.89966 61.1877 9.89966 61.9183C9.89966 62.649 10.4904 63.2413 11.2192 63.2413Z" fill="#3F3D56"/>
<path d="M11.2192 61.587C11.9479 61.587 12.5387 60.9947 12.5387 60.264C12.5387 59.5334 11.9479 58.941 11.2192 58.941C10.4904 58.941 9.89966 59.5334 9.89966 60.264C9.89966 60.9947 10.4904 61.587 11.2192 61.587Z" fill="#3F3D56"/>
<path d="M11.2192 59.934C11.9479 59.934 12.5387 59.3417 12.5387 58.6111C12.5387 57.8804 11.9479 57.2881 11.2192 57.2881C10.4904 57.2881 9.89966 57.8804 9.89966 58.6111C9.89966 59.3417 10.4904 59.934 11.2192 59.934Z" fill="#3F3D56"/>
<path d="M11.2192 58.2778C11.9479 58.2778 12.5387 57.6855 12.5387 56.9548C12.5387 56.2241 11.9479 55.6318 11.2192 55.6318C10.4904 55.6318 9.89966 56.2241 9.89966 56.9548C9.89966 57.6855 10.4904 58.2778 11.2192 58.2778Z" fill="#3F3D56"/>
<path d="M11.2192 56.6249C11.9479 56.6249 12.5387 56.0325 12.5387 55.3019C12.5387 54.5712 11.9479 53.9789 11.2192 53.9789C10.4904 53.9789 9.89966 54.5712 9.89966 55.3019C9.89966 56.0325 10.4904 56.6249 11.2192 56.6249Z" fill="#3F3D56"/>
<path d="M11.2192 54.9719C11.9479 54.9719 12.5387 54.3796 12.5387 53.6489C12.5387 52.9183 11.9479 52.3259 11.2192 52.3259C10.4904 52.3259 9.89966 52.9183 9.89966 53.6489C9.89966 54.3796 10.4904 54.9719 11.2192 54.9719Z" fill="#3F3D56"/>
<path d="M13.1986 55.6332C13.9273 55.6332 14.5181 55.0408 14.5181 54.3102C14.5181 53.5795 13.9273 52.9872 13.1986 52.9872C12.4698 52.9872 11.879 53.5795 11.879 54.3102C11.879 55.0408 12.4698 55.6332 13.1986 55.6332Z" fill="#3F3D56"/>
<path d="M14.5185 54.9719C15.2473 54.9719 15.838 54.3796 15.838 53.6489C15.838 52.9183 15.2473 52.3259 14.5185 52.3259C13.7897 52.3259 13.199 52.9183 13.199 53.6489C13.199 54.3796 13.7897 54.9719 14.5185 54.9719Z" fill="#3F3D56"/>
<path d="M15.8387 54.3094C16.5674 54.3094 17.1582 53.7171 17.1582 52.9864C17.1582 52.2558 16.5674 51.6635 15.8387 51.6635C15.1099 51.6635 14.5192 52.2558 14.5192 52.9864C14.5192 53.7171 15.1099 54.3094 15.8387 54.3094Z" fill="#3F3D56"/>
<path d="M11.2192 53.3157C11.9479 53.3157 12.5387 52.7233 12.5387 51.9927C12.5387 51.262 11.9479 50.6697 11.2192 50.6697C10.4904 50.6697 9.89966 51.262 9.89966 51.9927C9.89966 52.7233 10.4904 53.3157 11.2192 53.3157Z" fill="#3F3D56"/>
<path d="M11.2192 51.6627C11.9479 51.6627 12.5387 51.0704 12.5387 50.3397C12.5387 49.609 11.9479 49.0167 11.2192 49.0167C10.4904 49.0167 9.89966 49.609 9.89966 50.3397C9.89966 51.0704 10.4904 51.6627 11.2192 51.6627Z" fill="#3F3D56"/>
<path d="M11.2192 50.0083C11.9479 50.0083 12.5387 49.416 12.5387 48.6853C12.5387 47.9546 11.9479 47.3623 11.2192 47.3623C10.4904 47.3623 9.89966 47.9546 9.89966 48.6853C9.89966 49.416 10.4904 50.0083 11.2192 50.0083Z" fill="#3F3D56"/>
<path d="M11.2192 48.3534C11.9479 48.3534 12.5387 47.7611 12.5387 47.0304C12.5387 46.2997 11.9479 45.7074 11.2192 45.7074C10.4904 45.7074 9.89966 46.2997 9.89966 47.0304C9.89966 47.7611 10.4904 48.3534 11.2192 48.3534Z" fill="#3F3D56"/>
<path d="M16.6909 42.7632C16.3637 42.8109 16.0349 42.8458 15.7047 42.8678C16.0103 42.5994 16.2942 42.3071 16.5538 41.9937C16.3737 41.4383 16.1083 40.9144 15.767 40.4411C15.4423 40.6272 15.0825 40.7433 14.7105 40.7821C14.384 40.8299 14.0542 40.8651 13.7243 40.8878C14.1584 40.5355 14.5609 40.0024 14.986 39.5694C14.0005 38.672 12.7293 38.1544 11.3987 38.1088C10.0682 38.0631 8.76469 38.4924 7.72031 39.3202C6.67592 40.148 5.95844 41.3205 5.69561 42.6291C5.43278 43.9376 5.64166 45.2972 6.28506 46.4657C6.92846 47.6343 7.96462 48.536 9.20905 49.0103C10.4535 49.4846 11.8254 49.5007 13.0806 49.0557C14.3357 48.6107 15.3926 47.7336 16.0631 46.5804C16.7336 45.4273 16.9742 44.073 16.7419 42.7586L16.6909 42.7632Z" fill="#0159FA"/>
<path d="M21.1011 49.3397C20.7905 49.5591 20.3779 49.6534 19.9913 49.7103C19.6637 49.7591 19.335 49.7932 19.0051 49.816C19.3452 49.5421 19.658 49.1602 19.9822 48.7999C19.1879 48.5885 18.3435 48.6817 17.6141 49.0613C16.8847 49.4408 16.3226 50.0794 16.0377 50.8523C15.7529 51.6252 15.7657 52.4768 16.0737 53.2408C16.3817 54.0047 16.9627 54.626 17.7032 54.9833C18.4437 55.3407 19.2905 55.4083 20.0781 55.173C20.8657 54.9377 21.5375 54.4164 21.9623 53.711C22.387 53.0056 22.5341 52.1668 22.3748 51.3584C22.2156 50.5501 21.7614 49.8303 21.1011 49.3397V49.3397Z" fill="#0159FA"/>
<path d="M9.23859 55.6332C9.96734 55.6332 10.5581 55.0408 10.5581 54.3102C10.5581 53.5795 9.96734 52.9872 9.23859 52.9872C8.50984 52.9872 7.91907 53.5795 7.91907 54.3102C7.91907 55.0408 8.50984 55.6332 9.23859 55.6332Z" fill="#3F3D56"/>
<path d="M7.91974 54.9719C8.64849 54.9719 9.23926 54.3796 9.23926 53.6489C9.23926 52.9183 8.64849 52.3259 7.91974 52.3259C7.19099 52.3259 6.60022 52.9183 6.60022 53.6489C6.60022 54.3796 7.19099 54.9719 7.91974 54.9719Z" fill="#3F3D56"/>
<path d="M6.5998 54.3094C7.32855 54.3094 7.91932 53.7171 7.91932 52.9864C7.91932 52.2558 7.32855 51.6635 6.5998 51.6635C5.87104 51.6635 5.28027 52.2558 5.28027 52.9864C5.28027 53.7171 5.87104 54.3094 6.5998 54.3094Z" fill="#3F3D56"/>
<path d="M1.3379 49.3397C1.64851 49.5591 2.06114 49.6534 2.44884 49.7103C2.77532 49.7591 3.10406 49.7932 3.43394 49.816C3.09386 49.5421 2.78098 49.1602 2.45677 48.7999C3.25109 48.5885 4.09548 48.6817 4.82491 49.0613C5.55435 49.4408 6.11642 50.0794 6.40128 50.8523C6.68615 51.6252 6.67333 52.4768 6.36535 53.2408C6.05736 54.0047 5.47633 54.626 4.73581 54.9833C3.99528 55.3407 3.14848 55.4083 2.36088 55.173C1.57328 54.9377 0.901478 54.4164 0.476763 53.711C0.0520475 53.0056 -0.0950614 52.1668 0.0641836 51.3584C0.223429 50.5501 0.677583 49.8303 1.3379 49.3397V49.3397Z" fill="#0159FA"/>
<path d="M6.46159 62.2502H17.2921C18.0437 62.2502 18.7646 62.5496 19.2961 63.0825C19.8275 63.6154 20.1261 64.3381 20.1261 65.0917V78.3114C20.1261 78.4392 20.0755 78.5618 19.9853 78.6522C19.8952 78.7425 19.773 78.7933 19.6455 78.7933H4.11048C4.04717 78.7936 3.98443 78.7814 3.92585 78.7573C3.86727 78.7332 3.81402 78.6978 3.76914 78.653C3.72427 78.6082 3.68866 78.555 3.66437 78.4964C3.64007 78.4377 3.62756 78.3749 3.62756 78.3114V65.0917C3.62756 64.3381 3.92615 63.6154 4.45763 63.0825C4.98911 62.5496 5.70996 62.2502 6.46159 62.2502V62.2502Z" fill="#3F3D56"/>
<g opacity="0.1">
<path opacity="0.1" d="M16.7906 43.1244C16.658 43.2689 16.5156 43.4041 16.3644 43.529C16.5151 43.5188 16.6671 43.5051 16.8178 43.4904C16.8122 43.3676 16.8042 43.2449 16.7906 43.1244Z" fill="black"/>
<path opacity="0.1" d="M14.3851 41.5449C14.715 41.5221 15.0438 41.4881 15.3702 41.4392C15.666 41.4046 15.9553 41.3281 16.2295 41.2119C16.0955 40.9448 15.9408 40.6887 15.767 40.4458C15.6031 40.5474 15.4251 40.624 15.2387 40.6731C14.9772 40.9855 14.6918 41.2769 14.3851 41.5449V41.5449Z" fill="black"/>
<path opacity="0.1" d="M6.26851 44.3849C6.26652 43.3752 6.53616 42.3837 7.04902 41.5148C7.56189 40.6459 8.299 39.9318 9.18269 39.4476C10.0664 38.9635 11.064 38.7273 12.0703 38.7639C13.0767 38.8004 14.0546 39.1085 14.901 39.6555C14.9293 39.626 14.9576 39.593 14.986 39.5646C14.4346 39.0652 13.7896 38.6806 13.0887 38.4334C12.3877 38.1862 11.6447 38.0812 10.9029 38.1245C10.161 38.1678 9.43521 38.3586 8.76761 38.6858C8.10001 39.013 7.50397 39.47 7.01417 40.0303C6.52436 40.5906 6.15056 41.2429 5.91453 41.9494C5.67849 42.6558 5.58493 43.4023 5.63928 44.1453C5.69363 44.8883 5.89481 45.6131 6.23112 46.2775C6.56742 46.9419 7.03214 47.5325 7.59823 48.0152C6.73856 47.0021 6.26712 45.715 6.26851 44.3849V44.3849Z" fill="black"/>
</g>
<g opacity="0.1">
<path opacity="0.1" d="M19.0045 50.4773C19.334 50.4561 19.6628 50.4209 19.9908 50.3716C20.3773 50.3159 20.7843 50.2216 21.1006 50.0011C21.4725 50.2766 21.7825 50.6276 22.0102 51.0312C22.2379 51.4348 22.3784 51.882 22.4223 52.3436C22.4337 52.2299 22.4405 52.1163 22.4405 51.9947C22.4408 51.4781 22.32 50.9686 22.0879 50.5074C21.8557 50.0462 21.5187 49.6462 21.104 49.3396C20.7933 49.559 20.3807 49.6533 19.9942 49.7101C19.9069 49.7226 19.8207 49.7329 19.7346 49.7431C19.5109 50.0068 19.2668 50.2523 19.0045 50.4773Z" fill="black"/>
<path opacity="0.1" d="M19.1349 49.3479C19.2455 49.3497 19.356 49.3573 19.4659 49.3707C19.6382 49.1866 19.806 48.9911 19.9794 48.8024C19.4911 48.6704 18.979 48.6531 18.483 48.7519C17.9869 48.8507 17.5203 49.0629 17.1194 49.3721C16.7185 49.6812 16.3941 50.0789 16.1715 50.5342C15.949 50.9896 15.8342 51.4903 15.8361 51.9973C15.8361 52.111 15.8418 52.2247 15.852 52.3281C15.9332 51.5116 16.3141 50.7546 16.9208 50.2039C17.5274 49.6532 18.3165 49.3481 19.1349 49.3479V49.3479Z" fill="black"/>
</g>
<g opacity="0.1">
<path opacity="0.1" d="M3.43257 50.4773C3.10307 50.4561 2.7747 50.4209 2.44746 50.3716C2.05977 50.3159 1.64714 50.2216 1.33653 50.0011C0.965172 50.277 0.655874 50.6281 0.428735 51.0317C0.201596 51.4353 0.0616991 51.8823 0.018138 52.3436C0.0068019 52.2299 2.51242e-07 52.1163 2.51242e-07 51.9947C-0.000201212 51.478 0.12076 50.9684 0.353122 50.5072C0.585483 50.046 0.922736 49.6461 1.33766 49.3396C1.64827 49.559 2.0609 49.6533 2.4486 49.7101C2.53475 49.7226 2.62091 49.7329 2.70706 49.7431C2.92952 50.0063 3.17209 50.2518 3.43257 50.4773V50.4773Z" fill="black"/>
<path opacity="0.1" d="M3.29974 49.3479C3.18908 49.3497 3.07859 49.3573 2.96873 49.3707C2.79642 49.1866 2.62864 48.9911 2.4552 48.8024C2.94351 48.6704 3.45562 48.6531 3.95167 48.7519C4.44773 48.8507 4.91436 49.0629 5.31526 49.3721C5.71616 49.6812 6.04052 50.0789 6.2631 50.5342C6.48567 50.9896 6.60047 51.4903 6.59855 51.9973C6.59855 52.111 6.59855 52.2247 6.58268 52.3281C6.50143 51.5116 6.12051 50.7546 5.51385 50.2039C4.9072 49.6532 4.1181 49.3481 3.29974 49.3479V49.3479Z" fill="black"/>
</g>
<path d="M77.0827 79.1219L54.9773 78.8377L55.0419 78.2694L56.1109 68.8926H75.5239L76.9523 78.2694L77.0611 78.9798L77.0827 79.1219Z" fill="#D0D2D5"/>
<path opacity="0.1" d="M77.0612 78.9797H66.03L54.9773 78.8376L55.0419 78.2693H76.9524L77.0612 78.9797Z" fill="black"/>
<path d="M80.6252 78.4114H51.293V79.1217H80.6252V78.4114Z" fill="#D0D2D5"/>
<path d="M108.611 12.5732C108.614 12.0826 108.422 11.6112 108.078 11.2625C107.734 10.9138 107.265 10.7165 106.776 10.7137H24.8603C24.6179 10.7149 24.3782 10.764 24.1547 10.8581C23.9313 10.9522 23.7285 11.0895 23.5579 11.2621C23.3874 11.4348 23.2525 11.6394 23.1608 11.8644C23.0692 12.0894 23.0226 12.3302 23.0238 12.5732V62.3557H108.611V12.5732Z" fill="#444053"/>
<path d="M23.0239 61.8602V67.6921C23.0232 67.9343 23.0701 68.1743 23.1621 68.3983C23.2541 68.6222 23.3893 68.8258 23.5599 68.9973C23.7305 69.1688 23.9332 69.3048 24.1564 69.3976C24.3796 69.4904 24.6188 69.538 24.8604 69.5379H106.776C107.263 69.5379 107.73 69.344 108.074 68.9989C108.418 68.6538 108.612 68.1858 108.612 67.6977V61.8602H23.0239Z" fill="#D0D2D5"/>
<path opacity="0.1" d="M105.494 13.8392H26.5667V58.5924H105.494V13.8392Z" fill="#0159FA"/>
<path d="M66.2429 67.3207C66.5327 67.3209 66.8188 67.2551 67.0796 67.1283C67.3403 67.0015 67.569 66.817 67.7483 66.5888V66.5888C67.8025 66.5189 67.8521 66.4456 67.8968 66.3694L66.8471 66.1966L67.9807 66.2046C68.09 65.9672 68.1496 65.7099 68.1559 65.4486C68.1621 65.1872 68.1149 64.9273 68.017 64.685L66.4946 65.4806L67.8991 64.4463C67.7702 64.2144 67.5946 64.0118 67.3835 63.8514C67.1725 63.6911 66.9305 63.5764 66.6729 63.5147C66.4153 63.4531 66.1477 63.4457 65.8872 63.4931C65.6266 63.5405 65.3787 63.6416 65.1591 63.7901C64.9396 63.9386 64.7532 64.1312 64.6117 64.3557C64.4703 64.5802 64.3769 64.8317 64.3375 65.0942C64.298 65.3568 64.3134 65.6247 64.3827 65.881C64.4519 66.1373 64.5735 66.3764 64.7397 66.5831V66.5831C64.9181 66.8122 65.1461 66.9977 65.4065 67.1255C65.667 67.2533 65.9529 67.32 66.2429 67.3207Z" fill="#0159FA"/>
<path opacity="0.1" d="M68.1558 69.5322L76.9741 78.4123L75.6217 69.5322H68.1558Z" fill="black"/>
<path d="M89.6942 19.9326H28.7627V52.3719H89.6942V19.9326Z" fill="white"/>
<path opacity="0.1" d="M49.1567 28.3904H32.1616V29.2735H49.1567V28.3904Z" fill="#0159FA"/>
<path opacity="0.1" d="M35.3095 23.72H33.6726V28.3902H35.3095V23.72Z" fill="#0159FA"/>
<path opacity="0.1" d="M37.7019 23.72H36.0649V28.3902H37.7019V23.72Z" fill="#0159FA"/>
<path opacity="0.1" d="M40.0932 23.72H38.4563V28.3902H40.0932V23.72Z" fill="#0159FA"/>
<path opacity="0.1" d="M42.4856 23.72H40.8486V28.3902H42.4856V23.72Z" fill="#0159FA"/>
<path opacity="0.1" d="M44.8769 23.72H43.24V28.3902H44.8769V23.72Z" fill="#0159FA"/>
<path opacity="0.1" d="M47.269 23.72H45.6321V28.3902H47.269V23.72Z" fill="#0159FA"/>
<path opacity="0.1" d="M35.3095 24.603H33.6726V25.1077H35.3095V24.603Z" fill="#0159FA"/>
<path opacity="0.1" d="M37.7019 24.603H36.0649V25.1077H37.7019V24.603Z" fill="#0159FA"/>
<path opacity="0.1" d="M40.0932 24.603H38.4563V25.1077H40.0932V24.603Z" fill="#0159FA"/>
<path opacity="0.1" d="M42.4856 24.603H40.8486V25.1077H42.4856V24.603Z" fill="#0159FA"/>
<path opacity="0.1" d="M44.8769 24.603H43.24V25.1077H44.8769V24.603Z" fill="#0159FA"/>
<path opacity="0.1" d="M47.269 24.603H45.6321V25.1077H47.269V24.603Z" fill="#0159FA"/>
<path opacity="0.1" d="M35.3095 26.8748H33.6726V27.3794H35.3095V26.8748Z" fill="#0159FA"/>
<path opacity="0.1" d="M37.7019 26.8748H36.0649V27.3794H37.7019V26.8748Z" fill="#0159FA"/>
<path opacity="0.1" d="M40.0932 26.8748H38.4563V27.3794H40.0932V26.8748Z" fill="#0159FA"/>
<path opacity="0.1" d="M42.4856 26.8748H40.8486V27.3794H42.4856V26.8748Z" fill="#0159FA"/>
<path opacity="0.1" d="M44.8769 26.8748H43.24V27.3794H44.8769V26.8748Z" fill="#0159FA"/>
<path opacity="0.1" d="M47.269 26.8748H45.6321V27.3794H47.269V26.8748Z" fill="#0159FA"/>
<path opacity="0.1" d="M86.4211 30.6621H69.426V31.5452H86.4211V30.6621Z" fill="#0159FA"/>
<path opacity="0.1" d="M72.5739 25.9917H70.937V30.662H72.5739V25.9917Z" fill="#0159FA"/>
<path opacity="0.1" d="M74.9653 25.9917H73.3284V30.662H74.9653V25.9917Z" fill="#0159FA"/>
<path opacity="0.1" d="M77.3576 25.9917H75.7207V30.662H77.3576V25.9917Z" fill="#0159FA"/>
<path opacity="0.1" d="M79.7497 25.9917H78.1128V30.662H79.7497V25.9917Z" fill="#0159FA"/>
<path opacity="0.1" d="M82.1411 25.9917H80.5042V30.662H82.1411V25.9917Z" fill="#0159FA"/>
<path opacity="0.1" d="M84.5337 25.9917H82.8967V30.662H84.5337V25.9917Z" fill="#0159FA"/>
<path opacity="0.1" d="M72.5739 26.8748H70.937V27.3794H72.5739V26.8748Z" fill="#0159FA"/>
<path opacity="0.1" d="M74.9653 26.8748H73.3284V27.3794H74.9653V26.8748Z" fill="#0159FA"/>
<path opacity="0.1" d="M77.3576 26.8748H75.7207V27.3794H77.3576V26.8748Z" fill="#0159FA"/>
<path opacity="0.1" d="M79.7497 26.8748H78.1128V27.3794H79.7497V26.8748Z" fill="#0159FA"/>
<path opacity="0.1" d="M82.1411 26.8748H80.5042V27.3794H82.1411V26.8748Z" fill="#0159FA"/>
<path opacity="0.1" d="M84.5337 26.8748H82.8967V27.3794H84.5337V26.8748Z" fill="#0159FA"/>
<path opacity="0.1" d="M72.5739 29.1486H70.937V29.6532H72.5739V29.1486Z" fill="#0159FA"/>
<path opacity="0.1" d="M74.9653 29.1486H73.3284V29.6532H74.9653V29.1486Z" fill="#0159FA"/>
<path opacity="0.1" d="M77.3576 29.1486H75.7207V29.6532H77.3576V29.1486Z" fill="#0159FA"/>
<path opacity="0.1" d="M79.7497 29.1486H78.1128V29.6532H79.7497V29.1486Z" fill="#0159FA"/>
<path opacity="0.1" d="M82.1411 29.1486H80.5042V29.6532H82.1411V29.1486Z" fill="#0159FA"/>
<path opacity="0.1" d="M84.5337 29.1486H82.8967V29.6532H84.5337V29.1486Z" fill="#0159FA"/>
<path opacity="0.1" d="M86.4211 37.0992H69.426V37.9824H86.4211V37.0992Z" fill="#0159FA"/>
<path opacity="0.1" d="M72.5739 32.4287H70.937V37.0989H72.5739V32.4287Z" fill="#0159FA"/>
<path opacity="0.1" d="M74.9653 32.4287H73.3284V37.0989H74.9653V32.4287Z" fill="#0159FA"/>
<path opacity="0.1" d="M77.3576 32.4287H75.7207V37.0989H77.3576V32.4287Z" fill="#0159FA"/>
<path opacity="0.1" d="M79.7497 32.4287H78.1128V37.0989H79.7497V32.4287Z" fill="#0159FA"/>
<path opacity="0.1" d="M82.1411 32.4287H80.5042V37.0989H82.1411V32.4287Z" fill="#0159FA"/>
<path opacity="0.1" d="M84.5337 32.4287H82.8967V37.0989H84.5337V32.4287Z" fill="#0159FA"/>
<path opacity="0.1" d="M72.5739 33.3124H70.937V33.817H72.5739V33.3124Z" fill="#0159FA"/>
<path opacity="0.1" d="M74.9653 33.3124H73.3284V33.817H74.9653V33.3124Z" fill="#0159FA"/>
<path opacity="0.1" d="M77.3576 33.3124H75.7207V33.817H77.3576V33.3124Z" fill="#0159FA"/>
<path opacity="0.1" d="M79.7497 33.3124H78.1128V33.817H79.7497V33.3124Z" fill="#0159FA"/>
<path opacity="0.1" d="M82.1411 33.3124H80.5042V33.817H82.1411V33.3124Z" fill="#0159FA"/>
<path opacity="0.1" d="M84.5337 33.3124H82.8967V33.817H84.5337V33.3124Z" fill="#0159FA"/>
<path opacity="0.1" d="M72.5739 35.5842H70.937V36.0889H72.5739V35.5842Z" fill="#0159FA"/>
<path opacity="0.1" d="M74.9653 35.5842H73.3284V36.0889H74.9653V35.5842Z" fill="#0159FA"/>
<path opacity="0.1" d="M77.3576 35.5842H75.7207V36.0889H77.3576V35.5842Z" fill="#0159FA"/>
<path opacity="0.1" d="M79.7497 35.5842H78.1128V36.0889H79.7497V35.5842Z" fill="#0159FA"/>
<path opacity="0.1" d="M82.1411 35.5842H80.5042V36.0889H82.1411V35.5842Z" fill="#0159FA"/>
<path opacity="0.1" d="M84.5337 35.5842H82.8967V36.0889H84.5337V35.5842Z" fill="#0159FA"/>
<path opacity="0.1" d="M42.5855 38.3771C42.4583 38.2148 42.3424 38.0439 42.2387 37.8656L44.6861 37.4633L42.0346 37.4849C41.7808 36.931 41.6424 36.3311 41.6278 35.7217C41.6131 35.1124 41.7226 34.5064 41.9496 33.941L45.5001 35.7879L42.2262 33.375C42.5321 32.8422 42.9442 32.3784 43.4369 32.0125C43.9295 31.6466 44.4921 31.3865 45.0895 31.2483C45.687 31.1102 46.3064 31.097 46.9091 31.2096C47.5118 31.3222 48.0849 31.5581 48.5927 31.9027C49.1004 32.2473 49.5318 32.6931 49.86 33.2123C50.1882 33.7315 50.4061 34.313 50.5001 34.9205C50.5941 35.5279 50.5622 36.1483 50.4065 36.7428C50.2507 37.3373 49.9743 37.8933 49.5947 38.376C49.7938 38.628 49.9652 38.9008 50.1059 39.1897L46.9318 40.8435L50.3179 39.7069C50.556 40.4114 50.615 41.1644 50.4895 41.8975C50.364 42.6307 50.058 43.3208 49.5992 43.9055C50.1169 44.5651 50.439 45.3576 50.5286 46.1921C50.6183 47.0267 50.4719 47.8697 50.1062 48.6248C49.7405 49.3798 49.1702 50.0165 48.4606 50.4619C47.751 50.9073 46.9307 51.1435 46.0935 51.1435C45.2563 51.1435 44.436 50.9073 43.7264 50.4619C43.0168 50.0165 42.4466 49.3798 42.0808 48.6248C41.7151 47.8697 41.5687 47.0267 41.6584 46.1921C41.748 45.3576 42.0701 44.5651 42.5878 43.9055C41.9695 43.1172 41.6334 42.1435 41.6334 41.1407C41.6334 40.1379 41.9695 39.1642 42.5878 38.376L42.5855 38.3771Z" fill="#0159FA"/>
<path opacity="0.1" d="M50.5506 41.1425C50.552 42.1454 50.2156 43.1194 49.5961 43.9067C50.1138 44.5664 50.4359 45.3588 50.5255 46.1934C50.6152 47.0279 50.4688 47.8709 50.1031 48.626C49.7374 49.3811 49.1671 50.0177 48.4575 50.4631C47.7479 50.9085 46.9276 51.1448 46.0904 51.1448C45.2532 51.1448 44.4329 50.9085 43.7233 50.4631C43.0137 50.0177 42.4435 49.3811 42.0778 48.626C41.712 47.8709 41.5656 47.0279 41.6553 46.1934C41.7449 45.3588 42.067 44.5664 42.5847 43.9067C41.9873 43.1463 50.5506 40.6402 50.5506 41.1425Z" fill="#0159FA"/>
<path opacity="0.2" d="M46.8071 52.3353C46.815 52.3478 46.8207 52.3603 46.8286 52.3728H45.3141C45.3221 52.3603 45.3277 52.3478 45.3357 52.3353C45.2056 52.1077 45.1383 51.8496 45.1407 51.5874C45.1405 51.408 45.1716 51.2299 45.2325 51.0612C45.2325 51.0612 45.2325 51.0612 45.2325 51.0612C45.3164 51.0748 45.4207 51.0896 45.5408 51.1021C45.8921 51.1373 46.2461 51.1373 46.5974 51.1021C46.6971 51.0918 46.8026 51.0771 46.9091 51.0612C46.9093 51.0638 46.9093 51.0665 46.9091 51.0691C46.9689 51.2353 46.9992 51.4107 46.9987 51.5874C47.0021 51.8493 46.9359 52.1074 46.8071 52.3353V52.3353Z" fill="#3F3D56"/>
<path opacity="0.1" d="M41.3645 52.3751H32.9418C32.9225 52.3262 32.9055 52.2751 32.8908 52.2251C32.5938 51.2674 32.6285 50.2372 32.9894 49.3018C32.1663 48.7317 31.5582 47.9007 31.263 46.9424C30.9677 45.984 31.0024 44.954 31.3615 44.0178C31.1921 43.8999 31.0308 43.7708 30.8786 43.6314L33.0982 42.522L30.5759 43.3245C30.17 42.8704 29.8609 42.338 29.6675 41.7599C29.4741 41.1817 29.4006 40.5701 29.4514 39.9625L33.3873 40.6751L29.5489 39.3385C29.6846 38.739 29.9421 38.174 30.3053 37.6787C30.6685 37.1835 31.1296 36.7687 31.6599 36.4601C32.1902 36.1515 32.7782 35.9559 33.3873 35.8854C33.9964 35.8148 34.6134 35.871 35.1999 36.0502C35.7863 36.2295 36.3297 36.5281 36.7959 36.9273C37.2621 37.3265 37.6413 37.8178 37.9097 38.3705C38.1781 38.9232 38.3299 39.5254 38.3558 40.1396C38.3817 40.7538 38.281 41.3667 38.06 41.9401C38.3237 42.1233 38.5673 42.334 38.7867 42.5686L36.2383 45.0896L39.1392 42.9983C39.574 43.6013 39.8519 44.3036 39.9477 45.0415C40.0435 45.7794 39.9542 46.5295 39.6879 47.2241C40.4908 47.7806 41.0896 48.5858 41.3925 49.5162C41.6953 50.4466 41.6855 51.4508 41.3645 52.3751V52.3751Z" fill="#0159FA"/>
<path opacity="0.1" d="M41.3638 52.3753H32.9411C32.9218 52.3264 32.9048 52.2752 32.8901 52.2252C32.5931 51.2676 32.6279 50.2373 32.9887 49.3019C32.1952 48.7507 39.6385 43.8225 39.7904 44.301C40.0862 45.2592 40.0514 46.2894 39.6918 47.2254C40.4937 47.7825 41.0914 48.5877 41.3934 49.5178C41.6954 50.4479 41.685 51.4516 41.3638 52.3753V52.3753Z" fill="#0159FA"/>
<path opacity="0.1" d="M79.505 46.3156C78.9934 47.1773 78.2065 47.8406 77.2718 48.1978C77.3117 48.5171 77.3182 48.8398 77.2911 49.1605L73.718 48.9457L77.2072 49.7106C76.9766 50.7795 76.3642 51.727 75.4853 52.3748H70.6221V52.5009H65.6716C65.6818 52.4577 65.692 52.4157 65.7034 52.3748C65.8853 51.6892 66.2267 51.0566 66.6996 50.5289C67.1726 50.0012 67.7635 49.5934 68.424 49.3389C68.2976 48.3438 68.5082 47.3349 69.0221 46.4742C69.5361 45.6135 70.3235 44.9508 71.258 44.5925C71.2314 44.3879 71.2189 44.1817 71.2206 43.9754L73.5275 44.8846L71.2467 43.5412C71.3119 42.9358 71.4994 42.3501 71.7978 41.8197C72.0961 41.2894 72.4992 40.8255 72.9823 40.4565L75.084 43.8663L73.5094 40.1155C74.3672 39.6372 75.3585 39.4559 76.3295 39.5999C77.3005 39.7438 78.197 40.205 78.88 40.9118C79.563 41.6186 79.9943 42.5316 80.1071 43.5093C80.2199 44.4869 80.0079 45.4745 79.5039 46.319L79.505 46.3156Z" fill="#0159FA"/>
<path opacity="0.1" d="M76.6744 51.0634C76.3708 51.5772 75.9663 52.0238 75.4853 52.3762H70.6221V52.5023H65.6716C65.6818 52.4591 65.692 52.4171 65.7034 52.3762C65.8853 51.6906 66.2267 51.058 66.6996 50.5303C67.1726 50.0026 67.7635 49.5948 68.424 49.3403C68.3821 49.0142 69.3434 49.0585 70.6232 49.2744C73.1251 49.695 76.8445 50.7781 76.6744 51.0634Z" fill="#0159FA"/>
<path d="M55.5984 39.1287C55.5984 39.1287 56.2048 42.4442 54.8445 43.5251C53.4842 44.606 55.994 51.0925 60.1634 50.3366C64.3328 49.5808 66.0219 44.1377 66.0219 44.1377C66.0219 44.1377 61.8525 43.2739 63.3976 38.8776L55.5984 39.1287Z" fill="#EFB7B9"/>
<path opacity="0.1" d="M55.5984 39.1287C55.5984 39.1287 56.2048 42.4442 54.8445 43.5251C53.4842 44.606 55.994 51.0925 60.1634 50.3366C64.3328 49.5808 66.0219 44.1377 66.0219 44.1377C66.0219 44.1377 61.8525 43.2739 63.3976 38.8776L55.5984 39.1287Z" fill="black"/>
<path d="M59.2819 41.5619C63.0929 41.5619 66.1822 38.4644 66.1822 34.6435C66.1822 30.8226 63.0929 27.7251 59.2819 27.7251C55.471 27.7251 52.3816 30.8226 52.3816 34.6435C52.3816 38.4644 55.471 41.5619 59.2819 41.5619Z" fill="#EFB7B9"/>
<path d="M70.6212 47.795V52.4983H47.8357V48.0099C47.8359 47.4405 48.0033 46.8839 48.317 46.4093C48.6306 45.9347 49.0767 45.5632 49.5996 45.3411L50.2537 45.0627C51.9065 44.3569 53.9141 43.4806 54.5705 43.1157C54.6424 43.0798 54.71 43.036 54.7722 42.985C55.1316 42.6247 55.0602 43.093 55.0602 43.093C55.0602 43.093 55.05 43.1816 55.0432 43.3362C55.0046 44.3944 55.1565 48.5566 60.0197 48.2099C64.765 47.8689 64.9736 44.6592 64.9305 43.7147C64.9278 43.6272 64.9203 43.5399 64.9079 43.4533C64.9079 43.4283 65.316 43.5669 65.8692 43.767C66.8633 44.1341 68.3246 44.7251 68.7179 45.0036C68.8403 45.0888 68.9888 45.1798 69.1498 45.2695C69.5979 45.5203 69.9709 45.8868 70.23 46.3309C70.4892 46.775 70.625 47.2805 70.6235 47.795H70.6212Z" fill="#0159FA"/>
<path opacity="0.1" d="M65.8681 43.7677C65.4668 45.634 64.2062 49.1301 59.6593 49.2233C54.8176 49.3188 54.5387 44.4906 54.5682 43.121C54.6407 43.085 54.7088 43.0408 54.7711 42.9892C55.1305 42.6289 55.0591 43.0971 55.0591 43.0971C55.0591 43.0971 54.448 48.6107 60.0186 48.2118C65.5892 47.8128 64.9068 43.4552 64.9068 43.4552C64.9068 43.429 65.3149 43.5631 65.8681 43.7677Z" fill="black"/>
<path d="M51.1143 34.9846C51.5677 34.8369 52.1084 35.0869 52.3612 35.4392C52.614 35.7916 52.6492 36.2178 52.6798 36.6258C52.9802 36.6895 53.1491 36.3485 53.1763 36.0928C53.2897 35.046 53.2953 33.9799 53.6456 32.9706C53.9959 31.9613 54.7611 30.9838 55.9378 30.5951C56.3379 30.4559 56.7656 30.415 57.1848 30.4758C57.433 30.5178 57.6677 30.6042 57.9159 30.6451C58.7741 30.7872 59.7093 30.3792 60.5153 30.6633C61.0198 30.8418 61.3451 31.2543 61.5764 31.668C61.6794 31.8902 61.8189 32.0934 61.989 32.2693C62.3291 32.5762 62.8687 32.6569 63.3584 32.7535C63.8481 32.8501 64.3855 33.016 64.5952 33.3957C64.7845 33.7366 64.6451 34.1344 64.5816 34.5072C64.4846 35.0946 64.583 35.6977 64.8616 36.2235C64.9523 36.3962 65.1359 36.5917 65.3524 36.5361C65.451 36.5027 65.5343 36.4349 65.5871 36.3451C66.1539 35.5495 66.1358 34.5175 66.842 33.8071C67.0789 33.5696 67.3839 33.3832 67.614 33.1411C67.7881 32.9647 67.9159 32.7478 67.9857 32.5097C68.0556 32.2717 68.0653 32.0199 68.0141 31.7772C67.8872 31.2305 67.4473 30.7747 67.0993 30.2996C66.6418 29.6908 66.3086 28.9975 66.1187 28.2594C66.0853 28.1739 66.0853 28.0789 66.1187 27.9935C66.1854 27.9065 66.2711 27.8361 66.3693 27.7877C66.5616 27.6598 66.7008 27.4659 66.7607 27.2424C66.8206 27.0189 66.7971 26.7812 66.6946 26.5739C66.4974 26.1613 66.0541 25.8555 65.5678 25.6714C65.0815 25.4873 64.5476 25.4089 64.0193 25.3304C63.6724 25.3816 63.2654 25.1827 63.1578 24.9042C63.1101 24.7803 63.1101 24.6462 63.0614 24.5223C62.9673 24.2848 62.6964 24.1166 62.405 24.0586C62.1087 24.0099 61.8052 24.0313 61.5186 24.1211C61.1921 24.2132 60.8134 24.3484 60.5289 24.1916C60.3793 24.1063 60.2954 23.9518 60.1344 23.8824C59.8079 23.7426 59.4633 24.0245 59.2275 24.2575C58.9987 24.5002 58.7187 24.6886 58.4079 24.8087C58.0803 24.9224 57.6767 24.9224 57.3945 24.7417C57.1677 24.5973 57.0544 24.3655 56.8741 24.1813C56.5783 23.8779 56.1101 23.7131 55.643 23.6756C55.1746 23.6509 54.7053 23.7023 54.2532 23.8279C53.3902 24.0375 52.5657 24.3827 51.8103 24.8508C51.4328 25.0883 51.0712 25.3657 50.8739 25.7237C50.7338 26.0029 50.6616 26.3113 50.6631 26.6239C50.6279 27.6025 50.9522 28.6345 51.7967 29.3199C51.282 29.5358 51.1075 30.0643 50.9873 30.5337C50.7946 31.2816 50.6007 32.0431 50.6733 32.8069C50.7096 33.2013 50.8173 33.5957 50.7594 33.9878C50.7322 34.1776 50.6665 34.364 50.6824 34.5561C50.7034 34.6626 50.7558 34.7604 50.8328 34.8368C50.9098 34.9131 51.0078 34.9646 51.1143 34.9846V34.9846Z" fill="#454B69"/>
<g opacity="0.1">
<path opacity="0.1" d="M67.915 31.4821C67.8403 31.6441 67.7396 31.7927 67.6168 31.9219C67.3901 32.164 67.0818 32.3504 66.8448 32.5891C66.1386 33.2983 66.1533 34.3338 65.5899 35.1271C65.5371 35.2167 65.4537 35.2841 65.3553 35.3169C65.1387 35.3726 64.9551 35.1771 64.8644 35.0044C64.7543 34.7942 64.6716 34.5708 64.6184 34.3395C64.6063 34.397 64.595 34.455 64.5844 34.5133C64.4875 35.1007 64.5859 35.7038 64.8644 36.2296C64.9551 36.4024 65.1387 36.5979 65.3553 36.5422C65.4538 36.5088 65.5371 36.4411 65.5899 36.3512C66.1567 35.5556 66.1386 34.5236 66.8448 33.8132C67.0818 33.5757 67.3867 33.3893 67.6168 33.1472C67.791 32.9708 67.9187 32.7539 67.9886 32.5158C68.0584 32.2778 68.0682 32.026 68.017 31.7833C67.9928 31.6798 67.9587 31.5789 67.915 31.4821V31.4821Z" fill="black"/>
<path opacity="0.1" d="M66.3743 26.5732C66.2759 26.6208 66.1901 26.6908 66.1238 26.7778C66.0903 26.8633 66.0903 26.9583 66.1238 27.0438C66.1891 27.3014 66.2729 27.554 66.3743 27.7996V27.7996C66.569 27.6706 66.7093 27.4742 66.7685 27.2479C66.8277 27.0216 66.8016 26.7814 66.6951 26.5732C66.6632 26.5055 66.6253 26.4409 66.5817 26.38C66.5227 26.4545 66.4527 26.5196 66.3743 26.5732V26.5732Z" fill="black"/>
<path opacity="0.1" d="M51.7963 28.106C51.2117 27.6214 50.8261 26.9373 50.7137 26.1852C50.6844 26.3351 50.6677 26.4871 50.6638 26.6398C50.6274 27.362 50.8177 28.0775 51.208 28.6857C51.3266 28.4267 51.536 28.2204 51.7963 28.106Z" fill="black"/>
<path opacity="0.1" d="M64.5845 33.2887C64.6479 32.9159 64.7874 32.5192 64.5981 32.1771C64.3883 31.7975 63.8521 31.6304 63.3613 31.5349C62.8704 31.4394 62.3342 31.3576 61.9919 31.0507C61.8218 30.8748 61.6823 30.6716 61.5792 30.4495C61.3525 30.0357 61.0226 29.6232 60.5182 29.4447C59.7122 29.1606 58.777 29.5686 57.9188 29.4265C57.6705 29.3856 57.4359 29.2992 57.1876 29.2572C56.7689 29.1946 56.3413 29.2336 55.9406 29.3708C54.764 29.7596 53.9988 30.7347 53.6485 31.7463C53.2982 32.7579 53.2903 33.8217 53.1792 34.8685C53.152 35.1242 52.983 35.4652 52.6826 35.4016C52.652 34.9935 52.6146 34.5673 52.3641 34.215C52.1136 33.8626 51.5785 33.6114 51.1171 33.7603C50.9774 33.7287 50.8536 33.6481 50.768 33.533C50.7838 33.6843 50.7815 33.8369 50.7612 33.9877C50.734 34.1775 50.6682 34.3639 50.6841 34.556C50.7048 34.6625 50.757 34.7604 50.8338 34.837C50.9105 34.9136 51.0085 34.9653 51.1149 34.9856C51.5683 34.8378 52.109 35.0879 52.3618 35.4402C52.6146 35.7926 52.6498 36.2188 52.6804 36.6268C52.9808 36.6905 53.1497 36.3495 53.1769 36.0938C53.2903 35.047 53.2959 33.9808 53.6462 32.9715C53.9965 31.9623 54.7617 30.9848 55.9384 30.5961C56.3385 30.4569 56.7662 30.416 57.1854 30.4767C57.4336 30.5188 57.6683 30.6052 57.9165 30.6461C58.7747 30.7882 59.7099 30.3801 60.5159 30.6643C61.0204 30.8427 61.3457 31.2553 61.577 31.669C61.6801 31.8911 61.8195 32.0944 61.9896 32.2703C62.3297 32.5772 62.8693 32.6579 63.359 32.7545C63.8487 32.8511 64.3464 33.0056 64.5709 33.358C64.5765 33.3387 64.5799 33.3137 64.5845 33.2887Z" fill="black"/>
<path opacity="0.1" d="M50.7633 32.7717C50.7899 32.463 50.7716 32.1521 50.7089 31.8488C50.6604 32.1688 50.6498 32.4935 50.6772 32.816C50.684 32.899 50.6953 32.9808 50.7066 33.0638C50.7203 32.966 50.7452 32.8694 50.7633 32.7717Z" fill="black"/>
</g>
<path d="M103.014 45.3152H92.8115V52.4132H103.014V45.3152Z" fill="white"/>
<path opacity="0.1" d="M102.105 50.6713C101.96 50.9167 101.735 51.1054 101.469 51.2066C101.481 51.2975 101.483 51.3893 101.475 51.4805L100.455 51.4191L101.448 51.6374C101.381 51.9409 101.207 52.2099 100.958 52.3943H99.5771V52.4307H98.1692C98.1692 52.4182 98.1692 52.4068 98.1783 52.3943C98.2085 52.2788 98.255 52.1682 98.3166 52.0659C98.462 51.8208 98.6857 51.6322 98.9514 51.5305C98.9151 51.2474 98.9749 50.9603 99.1211 50.7154C99.2673 50.4705 99.4914 50.282 99.7574 50.1803C99.7495 50.1223 99.7461 50.0637 99.7472 50.0052L100.404 50.2644L99.754 49.8825C99.7723 49.7099 99.8257 49.5429 99.9109 49.3918C99.9961 49.2407 100.111 49.1086 100.249 49.0039L100.847 49.9745L100.399 48.9061C100.643 48.773 100.924 48.7237 101.198 48.7659C101.473 48.8081 101.726 48.9395 101.919 49.1398C102.112 49.3402 102.234 49.5985 102.267 49.8751C102.299 50.1517 102.241 50.4314 102.099 50.6713H102.105Z" fill="#0159FA"/>
<path opacity="0.1" d="M101.299 52.023C101.212 52.1692 101.096 52.296 100.959 52.3958H99.5771V52.4321H98.1692C98.1692 52.4196 98.1692 52.4083 98.1783 52.3958C98.2085 52.2802 98.255 52.1696 98.3166 52.0673C98.462 51.8223 98.6857 51.6337 98.9514 51.532C98.94 51.4399 99.2132 51.4524 99.5771 51.5138C100.289 51.6343 101.348 51.9423 101.299 52.023Z" fill="#0159FA"/>
<path opacity="0.1" d="M93.2001 50.6713C93.3457 50.9167 93.5699 51.1054 93.8361 51.2066C93.8246 51.2975 93.8227 51.3893 93.8304 51.4805L94.8507 51.4191L93.8576 51.6374C93.9239 51.9409 94.0979 52.2099 94.3473 52.3943H95.7315V52.4307H97.1405C97.1405 52.4182 97.1337 52.4068 97.1315 52.3943C97.1003 52.2791 97.0538 52.1686 96.9932 52.0659C96.847 51.821 96.6231 51.6325 96.3572 51.5305C96.3935 51.2474 96.3337 50.9603 96.1875 50.7154C96.0413 50.4705 95.8172 50.282 95.5512 50.1803C95.559 50.1222 95.5627 50.0638 95.5626 50.0052L94.9062 50.2644L95.5546 49.8825C95.5363 49.7099 95.4829 49.5429 95.3977 49.3918C95.3125 49.2407 95.1973 49.1086 95.0593 49.0039L94.4618 49.9745L94.9096 48.9061C94.6656 48.773 94.3848 48.7237 94.1102 48.7659C93.8356 48.8081 93.5824 48.9395 93.3894 49.1398C93.1964 49.3402 93.0742 49.5985 93.0417 49.8751C93.0092 50.1517 93.068 50.4314 93.2092 50.6713H93.2001Z" fill="#0159FA"/>
<path opacity="0.1" d="M94.0053 52.023C94.0921 52.1692 94.2079 52.296 94.3454 52.3958H95.7295V52.4321H97.1386C97.1386 52.4196 97.1318 52.4083 97.1295 52.3958C97.0983 52.2806 97.0518 52.1701 96.9912 52.0673C96.8451 51.8224 96.6211 51.6339 96.3553 51.532C96.3666 51.4399 96.0934 51.4524 95.7295 51.5138C95.0153 51.6343 93.9531 51.9423 94.0053 52.023Z" fill="#0159FA"/>
<path d="M98.9213 46.8794H96.6416V49.4254H98.9213V46.8794Z" fill="#464353"/>
<path opacity="0.1" d="M98.9213 46.8794H96.6416V49.4254H98.9213V46.8794Z" fill="black"/>
<path d="M95.6698 51.7541L95.6233 52.4156H96.274L96.3148 51.5415L95.6698 51.7541Z" fill="#A1616A"/>
<path d="M99.0981 51.7541L98.9995 52.4156H99.5958L99.6332 51.5415L99.0981 51.7541Z" fill="#A1616A"/>
<path d="M97.2104 48.1524C97.2104 48.1524 97.1877 48.4832 97.1083 48.5695C97.029 48.6559 97.8169 49.4208 98.437 48.665C98.437 48.665 98.1706 48.4377 98.2329 48.1831C98.2953 47.9285 97.2104 48.1524 97.2104 48.1524Z" fill="#A1616A"/>
<path opacity="0.1" d="M97.2104 48.1524C97.2104 48.1524 97.1877 48.4832 97.1083 48.5695C97.029 48.6559 97.8169 49.4208 98.437 48.665C98.437 48.665 98.1706 48.4377 98.2329 48.1831C98.2953 47.9285 97.2104 48.1524 97.2104 48.1524Z" fill="black"/>
<path d="M97.7805 48.4476C98.4104 48.4476 98.921 47.9357 98.921 47.3042C98.921 46.6727 98.4104 46.1608 97.7805 46.1608C97.1507 46.1608 96.6401 46.6727 96.6401 47.3042C96.6401 47.9357 97.1507 48.4476 97.7805 48.4476Z" fill="#A1616A"/>
<path d="M97.7218 48.8613C97.7218 48.8613 97.2434 48.8534 97.172 48.4158C97.0772 48.4979 96.9773 48.5738 96.8727 48.6431C96.8263 48.659 96.3694 48.9181 96.2833 48.9341C96.199 48.9512 96.1208 48.9904 96.0565 49.0477C95.9439 49.1365 95.8517 49.2487 95.7866 49.3767C95.7214 49.5046 95.6847 49.6452 95.679 49.7888C95.6632 50.3014 95.6008 51.3027 95.6008 51.3027L95.6246 51.6653V51.9017C95.6246 51.9017 96.0486 52.0154 96.3048 51.7881C96.3048 51.7881 96.3048 51.7017 96.3524 51.6744C96.4 51.6471 96.4068 51.5323 96.3989 51.4846C96.3948 51.4138 96.3948 51.3428 96.3989 51.272C96.4071 51.3105 96.4299 51.3443 96.4624 51.3664C96.4812 51.4305 96.4866 51.4978 96.4782 51.5641C96.4544 51.6107 96.4306 51.721 96.4544 51.7449C96.4664 51.766 96.4714 51.7904 96.4685 51.8145C96.4657 51.8387 96.4552 51.8613 96.4386 51.879C96.3953 51.9397 96.361 52.0063 96.3365 52.0768C96.3365 52.0768 96.3127 52.2177 96.2889 52.2336C96.2621 52.2913 96.2438 52.3525 96.2345 52.4155H99.0686C99.0185 52.2715 98.9806 52.1236 98.9552 51.9733C98.9631 51.9028 98.8849 51.6107 98.9393 51.5323C99.0194 51.4284 99.0636 51.3011 99.0652 51.1697L99.0969 51.4766L99.0107 52.1586C99.0107 52.1586 99.5367 52.3245 99.5923 52.2211C99.6511 52.0411 99.6958 51.8568 99.726 51.6698C99.726 51.6698 99.8519 51.1015 99.8836 51.0231C99.9154 50.9447 99.9856 49.3682 99.5605 49.1398C99.1354 48.9113 98.334 48.5181 98.3136 48.5374C98.2682 48.6522 98.1842 48.7474 98.0761 48.8066C97.968 48.8658 97.8427 48.8851 97.7218 48.8613V48.8613Z" fill="#0159FA"/>
<path opacity="0.1" d="M96.3559 50.4022C96.2749 50.5184 96.2402 50.6607 96.2584 50.8012C96.2775 50.9404 96.3229 51.0746 96.3922 51.1967" stroke="black" stroke-width="1.14912" stroke-miterlimit="10"/>
<path opacity="0.1" d="M99.1092 50.5109C99.1296 50.5687 99.1455 50.6279 99.1569 50.6882C99.1772 50.7635 99.1811 50.8423 99.1682 50.9192C99.1553 50.9961 99.1259 51.0693 99.082 51.1338" stroke="black" stroke-width="1.14912" stroke-miterlimit="10"/>
<path d="M97.2707 46.5221C97.3599 46.4983 97.4547 46.508 97.5371 46.5494C97.6183 46.5914 97.7033 46.6252 97.7911 46.6505C97.85 46.663 97.9044 46.663 97.9702 46.6721C98.0797 46.6921 98.1807 46.7444 98.2603 46.8224C98.3399 46.9004 98.3944 47.0004 98.4168 47.1097C98.4678 47.3893 98.3035 47.6644 98.3035 47.9497C98.3041 48.1129 98.3614 48.2708 98.4656 48.3963C98.553 48.4762 98.6292 48.5676 98.6923 48.668C98.7252 48.7407 98.732 48.8237 98.7637 48.8953C98.833 49.024 98.9479 49.1221 99.0857 49.1703C99.2223 49.2163 99.354 49.2757 99.479 49.3476C99.7057 49.4988 99.8395 49.7886 100.103 49.8511C100.116 49.8568 100.13 49.8597 100.144 49.8597C100.158 49.8597 100.172 49.8568 100.185 49.8511C100.197 49.8416 100.207 49.8295 100.214 49.8158C100.22 49.802 100.224 49.7869 100.224 49.7716C100.23 49.7159 100.224 49.6596 100.206 49.6066C100.188 49.5537 100.158 49.5055 100.118 49.4658C100.054 49.4011 99.9597 49.3522 99.9393 49.2647C99.9189 49.1772 99.9733 49.1021 100.003 49.0226C100.097 48.7646 99.9404 48.4838 99.7624 48.2747C99.5844 48.0656 99.3713 47.8587 99.3282 47.5928C99.3181 47.503 99.3146 47.4126 99.318 47.3223C99.3148 47.1362 99.2826 46.9517 99.2228 46.7756C99.1941 46.6804 99.148 46.5913 99.0868 46.513C99.0301 46.4448 98.9576 46.3925 98.8986 46.3266C98.8203 46.2181 98.7498 46.1042 98.6878 45.9856C98.5977 45.8451 98.4746 45.7289 98.3294 45.6471C98.1841 45.5652 98.0211 45.5203 97.8546 45.5162C97.536 45.5162 97.2345 45.6572 96.9647 45.8265C96.8654 45.8808 96.7795 45.9565 96.713 46.0482C96.5997 46.2289 96.6337 46.4675 96.5679 46.6721C96.5022 46.8767 96.3469 47.0279 96.2924 47.2279C96.2757 47.2867 96.273 47.3486 96.2845 47.4086C96.3047 47.472 96.3317 47.5329 96.365 47.5905C96.4252 47.7368 96.4594 47.8926 96.4659 48.0508C96.4829 48.2418 96.4908 48.4475 96.3911 48.61C96.3136 48.7085 96.2173 48.7905 96.1077 48.851C96.2188 48.9414 96.3607 48.985 96.5033 48.9726C96.7187 48.9817 96.9681 48.9726 97.1018 48.8021C97.1819 48.6797 97.2142 48.532 97.1925 48.3872C97.182 48.229 97.1499 48.073 97.0973 47.9235C97.0236 47.7132 96.9103 47.5143 96.8774 47.2938C96.8645 47.2143 96.8679 47.133 96.8874 47.0548C96.9069 46.9767 96.9421 46.9033 96.9907 46.8392C97.0316 46.7881 97.1041 46.7619 97.1381 46.7074C97.1812 46.6346 97.1687 46.5585 97.2707 46.5221Z" fill="#464353"/>
<g opacity="0.1">
<path opacity="0.1" d="M96.3642 47.5753C96.4245 47.7216 96.4586 47.8774 96.4651 48.0356C96.4651 48.0856 96.4731 48.1367 96.4742 48.1879C96.4861 48.0768 96.4861 47.9648 96.4742 47.8537C96.4672 47.6974 96.4331 47.5436 96.3733 47.3991C96.3407 47.3416 96.3137 47.2811 96.2928 47.2184C96.276 47.2768 96.2733 47.3383 96.2849 47.398C96.305 47.4597 96.3316 47.5191 96.3642 47.5753V47.5753Z" fill="black"/>
<path opacity="0.1" d="M97.1115 48.6244C96.9778 48.7938 96.7283 48.804 96.513 48.7961C96.4218 48.7963 96.3312 48.7825 96.2443 48.7551C96.2012 48.7904 96.1547 48.8233 96.1094 48.8552C96.2205 48.9456 96.3624 48.9892 96.505 48.9768C96.7204 48.9859 96.9698 48.9768 97.1036 48.8063C97.1802 48.6926 97.2133 48.5549 97.1965 48.4187C97.1865 48.4935 97.1572 48.5644 97.1115 48.6244Z" fill="black"/>
<path opacity="0.1" d="M99.947 49.0782C99.9501 49.0911 99.9547 49.1037 99.9606 49.1157C99.9742 49.0838 99.99 49.0509 100.003 49.0179C100.03 48.9431 100.038 48.8625 100.025 48.7838C100.021 48.8019 100.016 48.8197 100.01 48.8372C99.981 48.9168 99.9277 48.9963 99.947 49.0782Z" fill="black"/>
<path opacity="0.1" d="M98.4232 47.1645C98.4362 47.0867 98.4362 47.0071 98.4232 46.9293C98.4009 46.8199 98.3465 46.7198 98.2668 46.6418C98.1872 46.5638 98.0861 46.5115 97.9765 46.4917C97.9165 46.4815 97.8564 46.4815 97.7974 46.4701C97.7099 46.4443 97.6249 46.4104 97.5435 46.3689C97.4612 46.3271 97.3664 46.317 97.2771 46.3405C97.1751 46.3769 97.1876 46.4542 97.1422 46.5292C97.1093 46.5838 97.0357 46.611 96.9949 46.661C96.905 46.7812 96.8644 46.9312 96.8815 47.0804C96.8957 46.9935 96.932 46.9117 96.9869 46.8429C97.0277 46.7917 97.1003 46.7656 97.1343 46.711C97.1796 46.6349 97.1672 46.5588 97.2692 46.5224C97.3583 46.4985 97.4531 46.5082 97.5356 46.5497C97.6167 46.5916 97.7018 46.6255 97.7895 46.6508C97.8485 46.6633 97.9029 46.6633 97.9686 46.6724C98.0781 46.6923 98.1791 46.7447 98.2587 46.8226C98.3383 46.9006 98.3928 47.0007 98.4152 47.11C98.419 47.128 98.4217 47.1462 98.4232 47.1645V47.1645Z" fill="black"/>
<path opacity="0.1" d="M100.188 49.667C100.161 49.6774 100.132 49.6774 100.105 49.667C99.8421 49.6045 99.706 49.3146 99.4816 49.1635C99.3561 49.0925 99.2244 49.0331 99.0882 48.9862C98.9505 48.9384 98.8356 48.8407 98.7663 48.7122C98.7345 48.6384 98.7277 48.5565 98.6948 48.4849C98.6317 48.3846 98.5555 48.2932 98.4681 48.2133C98.3737 48.1005 98.3166 47.9611 98.3049 47.8143C98.2981 47.8583 98.2947 47.9028 98.2947 47.9473C98.2967 48.1127 98.3569 48.2721 98.4647 48.3974C98.5521 48.4773 98.6284 48.5687 98.6914 48.669C98.7243 48.7418 98.7311 48.8248 98.7629 48.8964C98.8322 49.0251 98.947 49.1232 99.0848 49.1714C99.2214 49.2174 99.3532 49.2768 99.4782 49.3487C99.7049 49.4999 99.8387 49.7897 100.102 49.8522C100.115 49.8579 100.129 49.8608 100.143 49.8608C100.157 49.8608 100.171 49.8579 100.184 49.8522C100.196 49.8427 100.206 49.8305 100.213 49.8168C100.219 49.803 100.223 49.788 100.223 49.7727C100.228 49.7298 100.226 49.6863 100.216 49.6442C100.209 49.6542 100.199 49.6621 100.188 49.667V49.667Z" fill="black"/>
</g>
<path opacity="0.1" d="M95.3104 45.837H93.8525V47.925H95.3104V45.837Z" fill="#0159FA"/>
<path opacity="0.1" d="M95.1022 46.135H94.0615V47.6262H95.1022V46.135Z" fill="#0159FA"/>
<path opacity="0.1" d="M102.493 46.151H100.099V47.4035H102.493V46.151Z" fill="#0159FA"/>
<path opacity="0.1" d="M102.182 46.3132H100.412V47.2396H102.182V46.3132Z" fill="#0159FA"/>
</g>
<defs>
<clipPath id="clip0">
<rect width="131" height="79.2895" fill="white"/>
</clipPath>
</defs>
</svg>
