<svg width="148" height="82" viewBox="0 0 148 82" fill="none" xmlns="http://www.w3.org/2000/svg">
<g clip-path="url(#clip0)">
<path opacity="0.1" d="M147.265 53.5909C147.273 57.8513 146.11 62.0319 143.903 65.6759C143.903 70.1325 141.825 74.172 138.455 77.116C137.612 77.8519 136.703 78.5102 135.742 79.083C135.703 79.1075 135.663 79.1306 135.623 79.1538C135.551 79.1963 135.479 79.2388 135.406 79.2825L135.337 79.3224C135.03 79.4962 134.716 79.6636 134.395 79.8206C131.441 81.273 128.192 82.022 124.9 82.009H27.956C27.1836 82.009 26.4181 81.9781 25.6595 81.9163C22.9635 81.704 20.3142 81.0905 17.7993 80.0961C17.3084 79.9021 16.827 79.6936 16.355 79.4705C16.1302 79.3649 15.9075 79.2564 15.6869 79.1448C15.5492 79.0753 15.4114 79.0032 15.275 78.9311C14.447 78.4908 13.645 78.0034 12.8729 77.4713C12.1672 76.9884 11.4883 76.4675 10.839 75.9111C6.45835 72.1523 3.74862 66.9503 3.74862 61.2103C1.2932 57.4294 -0.00924215 53.0157 4.93686e-05 48.5074C4.93686e-05 35.7453 10.2005 25.3994 22.785 25.3994C23.1712 25.3994 23.5574 25.411 23.9435 25.4316C23.9989 25.4316 24.053 25.4316 24.1083 25.4393C26.2298 21.8233 29.0656 18.5008 32.4757 15.5761C41.775 7.60782 55.3661 2.58484 70.5059 2.58484C83.2268 2.58484 94.8549 6.13131 103.762 11.991C107.137 10.0831 110.949 9.08297 114.826 9.0882C127.408 9.0882 137.611 19.4341 137.611 32.1962C137.609 33.0037 137.566 33.8106 137.482 34.6138C140.515 36.7607 142.987 39.6056 144.69 42.9084C146.392 46.2112 147.276 49.875 147.265 53.5909V53.5909Z" fill="#0159FA"/>
<path opacity="0.1" d="M117.232 35.2677V33.8864C118.312 33.4478 119.206 32.6472 119.761 31.6218C120.316 30.5964 120.498 29.4099 120.274 28.2655C120.051 27.1211 119.437 26.09 118.536 25.3487C117.636 24.6074 116.507 24.202 115.341 24.202C114.175 24.202 113.045 24.6074 112.145 25.3487C111.245 26.09 110.63 27.1211 110.407 28.2655C110.184 29.4099 110.365 30.5964 110.92 31.6218C111.475 32.6472 112.369 33.4478 113.45 33.8864V35.2677C112.19 35.6178 111.052 36.3097 110.162 37.2669C109.219 35.8521 107.799 34.8233 106.161 34.3679V32.9854C107.241 32.5467 108.136 31.7461 108.691 30.7207C109.246 29.6953 109.427 28.5088 109.204 27.3644C108.98 26.22 108.366 25.1889 107.466 24.4476C106.566 23.7063 105.436 23.3009 104.27 23.3009C103.104 23.3009 101.974 23.7063 101.074 24.4476C100.174 25.1889 99.5598 26.22 99.3363 27.3644C99.1129 28.5088 99.2942 29.6953 99.8493 30.7207C100.404 31.7461 101.299 32.5467 102.379 32.9854V34.3666C101.259 34.6775 100.233 35.2593 99.3912 36.0607C98.4519 34.7998 97.1201 33.8869 95.6053 33.4655V32.0843C96.6857 31.6456 97.5799 30.845 98.135 29.8196C98.6901 28.7942 98.8714 27.6077 98.6479 26.4633C98.4245 25.3189 97.8101 24.2878 96.9101 23.5465C96.01 22.8052 94.8803 22.3998 93.7143 22.3998C92.5482 22.3998 91.4185 22.8052 90.5184 23.5465C89.6184 24.2878 89.0041 25.3189 88.7806 26.4633C88.5571 27.6077 88.7385 28.7942 89.2935 29.8196C89.8486 30.845 90.7429 31.6456 91.8232 32.0843V33.4655C90.5347 33.8246 89.3743 34.5414 88.4763 35.5329C88.0761 34.5066 87.4422 33.5877 86.6251 32.849C85.808 32.1103 84.83 31.5721 83.7687 31.2771V29.8959C84.8491 29.4572 85.7434 28.6567 86.2984 27.6312C86.8535 26.6058 87.0348 25.4193 86.8114 24.2749C86.5879 23.1305 85.9735 22.0994 85.0735 21.3581C84.1735 20.6168 83.0437 20.2114 81.8777 20.2114C80.7117 20.2114 79.5819 20.6168 78.6819 21.3581C77.7818 22.0994 77.1675 23.1305 76.944 24.2749C76.7206 25.4193 76.9019 26.6058 77.457 27.6312C78.012 28.6567 78.9063 29.4572 79.9867 29.8959V31.2771C78.6072 31.6612 77.3767 32.4545 76.4574 33.5524C75.5381 34.6502 74.9733 36.001 74.8375 37.4265C74.1878 36.9755 73.4667 36.6373 72.7045 36.4263V35.045C73.7849 34.6064 74.6791 33.8058 75.2342 32.7804C75.7893 31.7549 75.9706 30.5684 75.7472 29.424C75.5237 28.2796 74.9093 27.2485 74.0093 26.5072C73.1092 25.7659 71.9795 25.3606 70.8135 25.3606C69.6475 25.3606 68.5177 25.7659 67.6177 26.5072C66.7176 27.2485 66.1033 28.2796 65.8798 29.424C65.6563 30.5684 65.8377 31.7549 66.3927 32.7804C66.9478 33.8058 67.8421 34.6064 68.9225 35.045V36.4263C67.9609 36.694 67.0666 37.1615 66.2979 37.798C65.5291 38.4346 64.9031 39.226 64.4607 40.1208C63.8643 39.7375 63.2133 39.4467 62.5298 39.2583V37.877C63.6102 37.4384 64.5044 36.6378 65.0595 35.6124C65.6146 34.587 65.7959 33.4005 65.5725 32.2561C65.349 31.1117 64.7346 30.0805 63.8346 29.3392C62.9346 28.5979 61.8048 28.1926 60.6388 28.1926C59.4728 28.1926 58.343 28.5979 57.443 29.3392C56.5429 30.0805 55.9286 31.1117 55.7051 32.2561C55.4817 33.4005 55.663 34.587 56.218 35.6124C56.7731 36.6378 57.6674 37.4384 58.7478 37.877V39.2583C58.1028 39.4363 57.4868 39.7059 56.9185 40.059C56.4731 39.1789 55.8492 38.4014 55.0865 37.7759C54.3239 37.1504 53.4392 36.6908 52.489 36.4263V35.045C53.5694 34.6064 54.4636 33.8058 55.0187 32.7804C55.5738 31.7549 55.7551 30.5684 55.5316 29.424C55.3082 28.2796 54.6938 27.2485 53.7938 26.5072C52.8937 25.7659 51.764 25.3606 50.598 25.3606C49.4319 25.3606 48.3022 25.7659 47.4021 26.5072C46.5021 27.2485 45.8878 28.2796 45.6643 29.424C45.4408 30.5684 45.6222 31.7549 46.1772 32.7804C46.7323 33.8058 47.6266 34.6064 48.7069 35.045V36.4263C47.6843 36.7107 46.7385 37.2211 45.9393 37.9198C45.1401 38.6185 44.508 39.4877 44.0895 40.4632C43.3696 39.9106 42.5501 39.5015 41.6758 39.2583V37.877C42.7562 37.4384 43.6504 36.6378 44.2055 35.6124C44.7606 34.587 44.9419 33.4005 44.7184 32.2561C44.495 31.1117 43.8806 30.0805 42.9806 29.3392C42.0805 28.5979 40.9508 28.1926 39.7848 28.1926C38.6188 28.1926 37.489 28.5979 36.589 29.3392C35.6889 30.0805 35.0746 31.1117 34.8511 32.2561C34.6276 33.4005 34.809 34.587 35.364 35.6124C35.9191 36.6378 36.8134 37.4384 37.8938 37.877V39.2583C36.4019 39.6718 35.0866 40.5629 34.1494 41.7951C33.2122 43.0273 32.7048 44.5328 32.7047 46.0809V78.0055H46.8571V75.1735H53.551V78.0055H67.7111V75.1735H77.8807V70.0244H86.6342V72.2128H97.1899V73.1139H108.261V74.015H122.421V42.0903C122.421 40.5422 121.913 39.0367 120.976 37.8045C120.039 36.5723 118.724 35.6812 117.232 35.2677V35.2677Z" fill="#0159FA"/>
<path d="M63.1773 21.7551H74.947C77.8256 21.755 80.6761 22.3218 83.3357 23.4233C85.9953 24.5248 88.4119 26.1394 90.4475 28.1749C92.4831 30.2103 94.0978 32.6268 95.1995 35.2863C96.3011 37.9459 96.8681 40.7963 96.8681 43.675V73.3752H41.2574V43.675C41.2574 37.8615 43.5669 32.2861 47.6776 28.1753C51.7884 24.0645 57.3638 21.7551 63.1773 21.7551V21.7551Z" fill="#2F2E41"/>
<path opacity="0.2" d="M64.4647 22.9497H73.6598C76.5384 22.9495 79.3889 23.5164 82.0485 24.6179C84.7081 25.7194 87.1247 27.334 89.1603 29.3694C91.1959 31.4049 92.8106 33.8214 93.9122 36.4809C95.0139 39.1404 95.5809 41.9909 95.5809 44.8696V72.1793H42.5448V44.8696C42.5448 39.0561 44.8542 33.4807 48.965 29.3699C53.0758 25.2591 58.6512 22.9497 64.4647 22.9497V22.9497Z" fill="black"/>
<path d="M134.392 77.5705V79.8181C131.439 81.2705 128.189 82.0195 124.897 82.0064H27.9559C27.1835 82.0064 26.418 81.9756 25.6594 81.9138C22.9634 81.7014 20.3142 81.0879 17.7992 80.0935C17.3084 79.8996 16.8269 79.6911 16.3549 79.4679C16.1301 79.3624 15.9074 79.2538 15.6868 79.1422C15.5491 79.0727 15.4113 79.0006 15.2749 78.9286C14.447 78.4891 13.645 78.0026 12.8728 77.4713V71.367C12.8728 70.3804 13.2648 69.4341 13.9624 68.7364C14.6601 68.0387 15.6064 67.6468 16.5931 67.6468H123.596C124.496 67.6484 125.365 67.9764 126.042 68.5698L133.122 74.7745C133.521 75.1231 133.84 75.5529 134.059 76.0351C134.279 76.5173 134.392 77.0408 134.392 77.5705V77.5705Z" fill="#2F2E41"/>
<path d="M62.1334 29.0681C59.3262 29.2535 56.5298 29.5539 53.7441 29.9692C52.9525 30.0877 52.1492 30.219 51.427 30.5691C50.8658 30.863 50.3485 31.2339 49.89 31.671C47.8222 33.5236 46.1571 35.7815 44.9983 38.3044C44.2813 39.8685 43.7664 41.5226 43.0906 43.0995C40.6846 48.7314 36.3207 53.3373 33.7809 58.91C33.2313 60.1162 32.7678 61.3751 32.5838 62.6869C32.3932 64.0437 32.6095 65.627 33.7243 66.42C34.2392 66.7843 34.8648 66.9349 35.4776 67.0636C43.1912 68.7718 50.9945 70.0461 58.8508 70.8804C57.9999 70.0591 57.7154 68.786 57.8274 67.6094C57.9394 66.4329 58.4015 65.3206 58.8572 64.2303C54.411 63.2494 49.9758 62.2196 45.5519 61.1408C44.8915 60.9799 44.0985 60.6774 44.0174 60.0029C43.9762 59.6592 44.1461 59.3283 44.3135 59.0258C46.2003 55.6093 48.4628 52.4142 51.0589 49.4999C51.0589 53.112 50.8799 57.1914 50.8799 60.8048H92.6008C92.0991 58.7432 91.8041 56.6366 91.7203 54.5165C91.5259 47.596 93.8559 40.7284 93.2509 33.8221C93.1943 33.1849 93.1067 32.5284 92.7733 31.9826C92.1979 31.0403 91.0496 30.6502 89.9941 30.3284C85.9468 29.0977 81.8147 27.8529 77.5846 27.9495C76.327 27.9791 75.0744 28.1259 73.8245 28.2739C70.0154 28.7232 65.9605 28.8145 62.1334 29.0681Z" fill="#0159FA"/>
<path d="M42.5937 70.5844L45.6317 80.3072C45.6511 80.3688 45.6896 80.4226 45.7417 80.4608C45.7938 80.499 45.8567 80.5196 45.9213 80.5196H58.9576L55.8681 69.1915L42.8589 70.1918C42.8135 70.1955 42.7696 70.2094 42.7304 70.2323C42.6912 70.2553 42.6576 70.2868 42.6321 70.3245C42.6067 70.3622 42.59 70.4051 42.5833 70.45C42.5767 70.495 42.5802 70.5409 42.5937 70.5844V70.5844Z" fill="#656478"/>
<path d="M64.8792 33.2493C64.3128 33.5749 63.6524 33.6921 63.0087 33.8041L58.8547 34.525C58.0463 34.6653 57.1954 34.8249 56.5723 35.3591C55.2979 36.4495 55.5734 38.4563 55.9596 40.0886L56.7319 43.3635C57.3138 45.8247 57.9085 48.3156 59.1018 50.5452C61.1859 54.4367 65.0092 57.2391 69.2134 58.5895C70.7157 59.0722 72.3029 59.3863 73.8708 59.2138C76.9423 58.8765 79.5697 56.6868 81.1891 54.0543C82.8085 51.4219 83.5795 48.3684 84.2863 45.3587C84.9647 42.4778 85.6096 39.5557 85.5658 36.5949C85.553 35.6732 85.4603 34.7103 84.9685 33.9289C83.8911 32.213 81.4491 32.0843 79.4474 32.4009C79.1358 32.4511 78.8127 32.5052 78.5128 32.4112C77.6117 32.1306 77.5911 30.8935 77.2049 30.0349C76.475 28.4155 74.3098 28.1284 72.5398 28.2752C70.7698 28.4219 68.0137 28.6112 66.4715 29.614C64.9886 30.573 66.6183 32.2465 64.8792 33.2493Z" fill="#FBBEBE"/>
<path opacity="0.1" d="M64.8792 33.2493C64.3128 33.5749 63.6524 33.6921 63.0087 33.8041L58.8547 34.525C58.0463 34.6653 57.1954 34.8249 56.5723 35.3591C55.2979 36.4495 55.5734 38.4563 55.9596 40.0886L56.7319 43.3635C57.3138 45.8247 57.9085 48.3156 59.1018 50.5452C61.1859 54.4367 65.0092 57.2391 69.2134 58.5895C70.7157 59.0722 72.3029 59.3863 73.8708 59.2138C76.9423 58.8765 79.5697 56.6868 81.1891 54.0543C82.8085 51.4219 83.5795 48.3684 84.2863 45.3587C84.9647 42.4778 85.6096 39.5557 85.5658 36.5949C85.553 35.6732 85.4603 34.7103 84.9685 33.9289C83.8911 32.213 81.4491 32.0843 79.4474 32.4009C79.1358 32.4511 78.8127 32.5052 78.5128 32.4112C77.6117 32.1306 77.5911 30.8935 77.2049 30.0349C76.475 28.4155 74.3098 28.1284 72.5398 28.2752C70.7698 28.4219 68.0137 28.6112 66.4715 29.614C64.9886 30.573 66.6183 32.2465 64.8792 33.2493Z" fill="black"/>
<path d="M61.4408 36.9386C62.069 38.2568 62.5402 39.6548 63.2997 40.9022C63.9034 41.8934 64.6771 42.7674 65.4469 43.6364C67.4409 45.8917 69.4606 48.165 71.9283 49.8823C72.9503 44.6323 75.419 39.7724 79.056 35.8509C80.1193 34.709 81.4504 33.584 83.0106 33.6264C83.9786 33.6535 84.872 34.1336 85.6778 34.6678C86.5789 35.2639 87.4311 35.9551 88.0786 36.8138C89.102 38.1808 89.5435 39.9122 89.6233 41.6179C89.7032 43.3235 89.438 45.0253 89.1754 46.7117L87.8237 55.4279C87.7452 55.9325 87.6358 56.4899 87.2239 56.7924C86.9899 56.9406 86.7262 57.0355 86.4515 57.0705C81.5379 58.0269 76.4737 57.4064 71.4675 57.3575C65.9322 57.3047 60.2437 57.9355 55.0006 56.1745C54.7264 56.0818 54.4419 55.975 54.2565 55.7549C54.1347 55.5888 54.0472 55.4002 53.999 55.2C52.7774 51.2455 53.757 46.9962 54.4818 42.9219C55.0556 39.6932 55.4642 36.4373 55.706 33.1669C55.7279 32.8721 58.9667 33.5235 59.3284 33.732C60.3132 34.3151 60.9671 35.9448 61.4408 36.9386Z" fill="#0159FA"/>
<g opacity="0.2">
<path opacity="0.2" d="M21.481 69.1001C21.481 69.1593 21.4745 69.2173 21.4681 69.2739C20.9772 69.08 20.4958 68.8714 20.0238 68.6483C19.7716 68.6151 19.5371 68.5008 19.3557 68.3226C19.2179 68.2531 19.0802 68.181 18.9437 68.1089C18.9746 68.0442 19.0094 67.9814 19.048 67.921C19.3132 67.5013 19.7161 67.2387 20.1602 67.2529C20.6043 67.267 20.9892 67.5541 21.2274 67.9879C21.4095 68.3294 21.4971 68.7134 21.481 69.1001V69.1001Z" fill="#3F3D56"/>
<path opacity="0.2" d="M21.5504 66.8963C21.5416 67.2824 21.4301 67.6592 21.2273 67.9879C20.9621 68.4063 20.5592 68.6689 20.1151 68.6548L20.0237 68.6483C19.7715 68.6152 19.537 68.5008 19.3556 68.3226C19.2325 68.2058 19.1287 68.0702 19.0479 67.921C18.8703 67.5783 18.7834 67.1958 18.7956 66.81C18.8077 66.4242 18.9185 66.048 19.1174 65.7172C19.3826 65.2975 19.7855 65.0349 20.2296 65.0491C20.6738 65.0632 21.0587 65.3503 21.2968 65.7841C21.4789 66.1256 21.5665 66.5096 21.5504 66.8963V66.8963Z" fill="#3F3D56"/>
<path opacity="0.2" d="M21.62 64.6958C21.6514 63.7003 21.0605 62.8737 20.3002 62.8497C19.5399 62.8257 18.898 63.6133 18.8665 64.6088C18.8351 65.6043 19.4259 66.4309 20.1863 66.4549C20.9466 66.4789 21.5885 65.6913 21.62 64.6958Z" fill="#3F3D56"/>
<path opacity="0.2" d="M21.6901 62.4919C21.7216 61.4964 21.1307 60.6699 20.3704 60.6459C19.6101 60.6218 18.9682 61.4094 18.9367 62.4049C18.9053 63.4005 19.4961 64.227 20.2565 64.251C21.0168 64.2751 21.6587 63.4875 21.6901 62.4919Z" fill="#3F3D56"/>
<path opacity="0.2" d="M21.7591 60.2881C21.7906 59.2925 21.1997 58.466 20.4394 58.442C19.679 58.418 19.0372 59.2055 19.0057 60.2011C18.9742 61.1966 19.5651 62.0231 20.3254 62.0472C21.0858 62.0712 21.7276 61.2836 21.7591 60.2881Z" fill="#3F3D56"/>
<path opacity="0.2" d="M15.7049 44.997C15.5236 44.7516 15.3601 44.4934 15.2157 44.2246L18.8536 43.7445L14.9325 43.6518C14.583 42.8229 14.4063 41.9314 14.4132 41.0319C14.4201 40.1324 14.6103 39.2437 14.9724 38.4203L20.137 41.3089L15.4062 37.5964C15.8834 36.8245 16.5147 36.1593 17.2606 35.6424C18.0064 35.1255 18.8509 34.7678 19.7412 34.5919C20.6314 34.416 21.5484 34.4255 22.4349 34.6199C23.3213 34.8143 24.1581 35.1893 24.8931 35.7217C25.6281 36.254 26.2454 36.9321 26.7065 37.7138C27.1676 38.4954 27.4626 39.3637 27.573 40.2644C27.6835 41.1652 27.607 42.079 27.3484 42.9489C27.0898 43.8188 26.6546 44.626 26.0701 45.3201C26.3518 45.7021 26.5913 46.1134 26.7845 46.5469L22.0125 48.8434L27.0754 47.3206C27.3944 48.3722 27.4461 49.4868 27.2258 50.5634C27.0055 51.6401 26.5203 52.6448 25.8139 53.4866C26.5492 54.4841 26.9889 55.6684 27.0826 56.904C27.1764 58.1396 26.9205 59.3767 26.3442 60.4737C25.7678 61.5707 24.8944 62.4833 23.8237 63.1072C22.753 63.731 21.5284 64.0409 20.2898 64.0014C19.0513 63.9619 17.8489 63.5745 16.8201 62.8837C15.7914 62.1928 14.9779 61.2263 14.4727 60.0948C13.9675 58.9633 13.791 57.7124 13.9633 56.4853C14.1357 55.2582 14.65 54.1044 15.4474 53.1558C14.5692 51.964 14.1172 50.5115 14.1639 49.0318C14.2106 47.5522 14.7533 46.1311 15.7049 44.997V44.997Z" fill="#0159FA"/>
<path opacity="0.1" d="M27.3548 49.4472C27.3095 50.9281 26.7651 52.3502 25.8101 53.4828C26.5464 54.4799 26.9871 55.6641 27.0818 56.8999C27.1765 58.1357 26.9213 59.3733 26.3455 60.4708C25.7697 61.5684 24.8966 62.4817 23.826 63.1062C22.7553 63.7308 21.5305 64.0412 20.2917 64.0021C19.0529 63.9631 17.8501 63.576 16.8209 62.8852C15.7918 62.1945 14.978 61.2279 14.4725 60.0962C13.9671 58.9645 13.7905 57.7134 13.9629 56.486C14.1353 55.2586 14.6498 54.1045 15.4474 53.1559C14.594 52.005 27.378 48.707 27.3548 49.4472Z" fill="black"/>
</g>
<path opacity="0.1" d="M8.75608 20.9583C10.2939 20.9583 11.5405 19.7116 11.5405 18.1739C11.5405 16.6361 10.2939 15.3895 8.75608 15.3895C7.2183 15.3895 5.97168 16.6361 5.97168 18.1739C5.97168 19.7116 7.2183 20.9583 8.75608 20.9583Z" fill="#0159FA"/>
<path opacity="0.1" d="M20.3609 5.56879C21.8987 5.56879 23.1453 4.32218 23.1453 2.7844C23.1453 1.24662 21.8987 0 20.3609 0C18.8232 0 17.5765 1.24662 17.5765 2.7844C17.5765 4.32218 18.8232 5.56879 20.3609 5.56879Z" fill="#0159FA"/>
<path opacity="0.1" d="M19.4174 18.0232C21.9946 18.0232 24.0838 15.934 24.0838 13.3568C24.0838 10.7797 21.9946 8.69043 19.4174 8.69043C16.8402 8.69043 14.751 10.7797 14.751 13.3568C14.751 15.934 16.8402 18.0232 19.4174 18.0232Z" fill="#0159FA"/>
<path d="M69.8995 34.6923C75.8715 34.6923 80.7127 29.8511 80.7127 23.8791C80.7127 17.9071 75.8715 13.0659 69.8995 13.0659C63.9275 13.0659 59.0863 17.9071 59.0863 23.8791C59.0863 29.8511 63.9275 34.6923 69.8995 34.6923Z" fill="#FBBEBE"/>
<path d="M65.5074 2.6608C62.6226 3.02639 59.5086 3.50912 57.4696 5.58165C56.329 6.7402 55.6609 8.28494 55.1113 9.81424C54.2591 12.1957 53.6245 14.7059 53.824 17.2329C54.0016 19.4933 54.8384 21.8053 54.1612 23.9705C53.8497 24.9669 53.2383 25.8371 52.7633 26.7652C51.8828 28.4889 51.4683 30.4211 51.3164 32.3507C51.2108 33.6779 51.2314 35.0437 51.6678 36.3014C52.1325 37.6402 53.0387 38.7794 53.6129 40.0744C54.4625 41.9873 54.5474 44.1397 54.6131 46.2315C54.6787 48.3233 54.7341 50.401 54.783 52.4851C54.8139 53.7956 54.8165 55.1987 54.0917 56.2916C56.768 55.2193 59.4816 54.1251 61.7717 52.3744C64.0618 50.6237 65.9154 48.0994 66.2115 45.2313C66.451 42.9065 65.6657 40.6151 64.9886 38.3778C63.3151 32.8425 62.2338 26.9416 63.4516 21.2891C63.8905 19.2539 64.9577 16.9818 67.0058 16.6072C68.2557 16.3794 69.5031 16.9497 70.6295 17.5392C73.2916 18.9321 76.0361 20.7343 77.0273 23.5702C77.9284 26.1344 77.1702 28.9909 75.9975 31.4393C74.8247 33.8877 73.2285 36.1392 72.3171 38.6983C70.9178 42.6245 71.3117 47.2214 73.6366 50.6804C75.9614 54.1393 80.2571 56.2672 84.388 55.7085C84.0649 54.3131 83.0518 53.1854 82.5085 51.8595C81.5212 49.451 82.1867 46.6808 83.2487 44.3044C84.3107 41.9281 85.7602 39.7127 86.4245 37.1896C86.893 35.4132 86.9497 33.5569 86.9471 31.72C86.9471 28.8287 86.8042 25.9362 86.5262 23.0578C86.2481 20.1794 85.8233 17.265 84.9068 14.4961C84.1704 12.2755 83.0981 10.1283 81.4942 8.42526C79.7872 6.61147 77.5654 5.38212 75.3834 4.17722C74.0781 3.45891 72.7445 2.7316 71.2796 2.46256C70.121 2.25015 68.9032 1.94764 67.7215 1.92833C66.9182 1.91675 66.0738 2.09053 65.5074 2.6608Z" fill="#434175"/>
<path d="M85.8593 16.6174L78.9025 15.2677C78.7001 15.2284 78.5042 15.3607 78.4649 15.5631L75.1319 32.7421C75.0926 32.9445 75.2248 33.1404 75.4272 33.1796L82.384 34.5294C82.5864 34.5687 82.7823 34.4364 82.8216 34.234L86.1546 17.055C86.1939 16.8526 86.0617 16.6567 85.8593 16.6174Z" fill="#656478"/>
<path d="M86.3851 16.7195L79.4284 15.3697C79.226 15.3305 79.0301 15.4627 78.9908 15.6651L75.6578 32.8441C75.6185 33.0465 75.7507 33.2424 75.9531 33.2817L82.9099 34.6314C83.1123 34.6707 83.3082 34.5385 83.3475 34.3361L86.6805 17.1571C86.7198 16.9547 86.5875 16.7588 86.3851 16.7195Z" fill="#3F3D56"/>
<path d="M82.6702 20.0242C82.8063 19.3228 82.6818 18.7086 82.3921 18.6524C82.1025 18.5962 81.7574 19.1193 81.6213 19.8207C81.4852 20.5221 81.6097 21.1363 81.8993 21.1925C82.189 21.2487 82.5341 20.7256 82.6702 20.0242Z" fill="#0159FA"/>
<path d="M84.3171 25.8744C83.9773 25.2733 83.6143 24.6515 83.0414 24.2666C82.7122 24.0647 82.3582 23.9059 81.9884 23.7942C80.7411 23.3578 79.4731 22.9175 78.1536 22.848C77.9386 22.8377 77.6928 22.848 77.5525 23.0128C77.2641 23.3514 77.7211 23.8122 78.1163 24.0169L81.2598 25.6453L78.3622 25.3389C77.9412 25.2939 77.3413 25.4084 77.3722 25.8307C77.3928 26.1074 77.6966 26.258 77.9592 26.3456C79.8194 26.9892 81.9691 27.4938 82.9874 29.1776C81.6306 29.0489 80.2442 28.9202 78.9144 29.2188C78.5501 29.3012 78.1729 29.4286 77.9348 29.7157C77.6966 30.0028 77.6696 30.4881 77.9695 30.7159C78.1549 30.8536 78.4046 30.8575 78.6364 30.8446C79.5799 30.7996 80.548 30.6116 81.4542 30.8807C82.3605 31.1497 83.165 32.0997 82.8522 32.9905C83.6555 33.0626 84.6055 32.9905 85.3483 32.6443C86.167 32.2581 86.1477 31.532 86.0975 30.6567C85.9906 28.942 85.1397 27.3419 84.3171 25.8744Z" fill="#FBBEBE"/>
<path opacity="0.1" d="M83.5048 53.9359C82.7844 48.8702 81.7961 43.8461 80.5441 38.885C79.9004 36.3104 79.1693 33.6921 79.3533 31.0428C82.0129 31.3814 84.3956 31.6324 86.8466 30.546C86.8865 31.9375 87.8958 33.1205 88.2626 34.4657C88.5085 35.3668 88.4158 36.3207 88.5124 37.2488C88.6089 38.177 88.8986 39.0768 89.147 39.9792C90.3797 44.4509 90.6703 49.1298 90.0005 53.7197C87.7258 53.99 85.7743 54.2873 83.5048 53.9359Z" fill="black"/>
<path d="M83.1186 53.9359C82.3982 48.8702 81.4099 43.8461 80.1579 38.885C79.5142 36.3104 78.783 33.6921 78.9671 31.0428C81.6266 31.3814 84.0094 31.6324 86.4604 30.546C86.5003 31.9375 87.5095 33.1205 87.8764 34.4657C88.1223 35.3668 88.0296 36.3207 88.1261 37.2488C88.2227 38.177 88.5123 39.0768 88.7608 39.9792C89.9935 44.4509 90.2841 49.1298 89.6142 53.7197C87.3396 53.99 85.3881 54.2873 83.1186 53.9359Z" fill="#0159FA"/>
<path d="M45.9084 79.0097L47.1686 47.7454C47.1887 47.2484 47.4015 46.7788 47.762 46.4361C48.1225 46.0934 48.6022 45.9046 49.0996 45.9097L98.8557 46.386C99.1193 46.3887 99.3796 46.4459 99.6201 46.554C99.8606 46.662 100.076 46.8187 100.253 47.014C100.43 47.2094 100.565 47.4392 100.649 47.6891C100.733 47.939 100.765 48.2036 100.742 48.4663L98.1129 78.4175C98.0716 78.8885 97.8574 79.3275 97.5115 79.6498C97.1656 79.9722 96.7126 80.155 96.2399 80.1631L47.8535 80.9998C47.593 81.0042 47.3343 80.9554 47.0934 80.8564C46.8524 80.7573 46.6342 80.6101 46.4521 80.4238C46.27 80.2375 46.1279 80.016 46.0344 79.7728C45.9409 79.5297 45.898 79.27 45.9084 79.0097Z" fill="#3F3D56"/>
<path d="M73.6971 62.6908C74.9057 62.6908 75.8854 61.5381 75.8854 60.1162C75.8854 58.6943 74.9057 57.5416 73.6971 57.5416C72.4884 57.5416 71.5087 58.6943 71.5087 60.1162C71.5087 61.5381 72.4884 62.6908 73.6971 62.6908Z" fill="#0159FA"/>
<path d="M120.49 58.3475L120.387 59.2305L118.713 73.5014C114.351 76.5432 110.957 73.6198 110.928 73.5014L108.819 59.1636L108.7 58.3475H120.49Z" fill="#3F3D56"/>
<path opacity="0.1" d="M120.49 58.3475L120.387 59.2305C115.472 62.0883 110.229 59.8639 108.819 59.1636L108.7 58.3475H120.49Z" fill="black"/>
<path d="M108.454 57.5725V58.8598C108.454 58.8598 114.955 62.6393 120.812 58.8598V57.5725H108.454Z" fill="#0159FA"/>
<path d="M109.209 55.872C109.209 55.872 109.02 56.7409 108.454 56.8169V57.9124H120.812V56.9302C120.812 56.9302 120.056 56.7409 120.168 55.872H109.209Z" fill="#0159FA"/>
<path d="M114.595 57.5725C117.674 57.5725 120.169 56.8532 120.169 55.966C120.169 55.0787 117.674 54.3594 114.595 54.3594C111.517 54.3594 109.021 55.0787 109.021 55.966C109.021 56.8532 111.517 57.5725 114.595 57.5725Z" fill="#0159FA"/>
<path opacity="0.1" d="M114.595 57.5725C117.674 57.5725 120.169 56.8532 120.169 55.966C120.169 55.0787 117.674 54.3594 114.595 54.3594C111.517 54.3594 109.021 55.0787 109.021 55.966C109.021 56.8532 111.517 57.5725 114.595 57.5725Z" fill="black"/>
<path opacity="0.1" d="M119.488 55.872C119.488 56.5157 117.375 57.0435 114.765 57.0435H114.626C112.874 57.0306 111.36 56.786 110.588 56.4204C110.239 56.2556 110.041 56.069 110.041 55.872C110.041 55.5451 110.582 55.249 111.457 55.0366C112.545 54.7987 113.656 54.686 114.769 54.7006C117.375 54.7006 119.488 55.2245 119.488 55.872Z" fill="black"/>
<path opacity="0.1" d="M114.626 57.0435C112.874 57.0306 111.36 56.786 110.588 56.4204L111.453 55.0314L114.626 57.0435Z" fill="black"/>
<path opacity="0.1" d="M109.689 55.9621C109.623 55.948 109.534 55.9711 109.521 56.0381C109.519 56.0721 109.528 56.1059 109.547 56.1346C109.694 56.368 109.909 56.5514 110.162 56.6611C110.205 56.6855 110.253 56.7008 110.302 56.7062C110.328 56.7092 110.354 56.7045 110.377 56.6926C110.4 56.6806 110.419 56.662 110.431 56.6392C110.438 56.6198 110.441 56.599 110.439 56.5784C110.438 56.5578 110.432 56.5377 110.422 56.5195C110.383 56.4499 110.328 56.3901 110.262 56.3444C110.09 56.2093 109.913 55.9994 109.689 55.9621Z" fill="black"/>
<path d="M114.783 69.7219C116.62 69.7219 118.108 68.2332 118.108 66.3968C118.108 64.5605 116.62 63.0718 114.783 63.0718C112.947 63.0718 111.458 64.5605 111.458 66.3968C111.458 68.2332 112.947 69.7219 114.783 69.7219Z" fill="#0159FA"/>
<path d="M24.2435 66.4045H25.8024C26.6559 66.4045 27.4745 66.7436 28.078 67.3471C28.6815 67.9507 29.0206 68.7692 29.0206 69.6228V74.405H21.0253V69.6228C21.0253 68.7692 21.3643 67.9507 21.9679 67.3471C22.5714 66.7436 23.39 66.4045 24.2435 66.4045V66.4045Z" fill="#3F3D56"/>
<path opacity="0.1" d="M24.2435 66.4045H25.8024C26.6559 66.4045 27.4745 66.7436 28.078 67.3471C28.6815 67.9507 29.0206 68.7692 29.0206 69.6228V74.405H21.0253V69.6228C21.0253 68.7692 21.3643 67.9507 21.9679 67.3471C22.5714 66.7436 23.39 66.4045 24.2435 66.4045V66.4045Z" fill="black"/>
<path d="M24.703 68.1643C25.0564 68.1643 25.3428 67.8778 25.3428 67.5245C25.3428 67.1711 25.0564 66.8847 24.703 66.8847C24.3497 66.8847 24.0632 67.1711 24.0632 67.5245C24.0632 67.8778 24.3497 68.1643 24.703 68.1643Z" fill="#3F3D56"/>
<path d="M24.703 67.3649C25.0564 67.3649 25.3428 67.0785 25.3428 66.7251C25.3428 66.3718 25.0564 66.0853 24.703 66.0853C24.3497 66.0853 24.0632 66.3718 24.0632 66.7251C24.0632 67.0785 24.3497 67.3649 24.703 67.3649Z" fill="#3F3D56"/>
<path d="M24.703 66.5642C25.0564 66.5642 25.3428 66.2777 25.3428 65.9244C25.3428 65.571 25.0564 65.2846 24.703 65.2846C24.3497 65.2846 24.0632 65.571 24.0632 65.9244C24.0632 66.2777 24.3497 66.5642 24.703 66.5642Z" fill="#3F3D56"/>
<path d="M24.703 65.7648C25.0564 65.7648 25.3428 65.4784 25.3428 65.125C25.3428 64.7717 25.0564 64.4852 24.703 64.4852C24.3497 64.4852 24.0632 64.7717 24.0632 65.125C24.0632 65.4784 24.3497 65.7648 24.703 65.7648Z" fill="#3F3D56"/>
<path d="M24.703 64.9654C25.0564 64.9654 25.3428 64.6789 25.3428 64.3256C25.3428 63.9722 25.0564 63.6858 24.703 63.6858C24.3497 63.6858 24.0632 63.9722 24.0632 64.3256C24.0632 64.6789 24.3497 64.9654 24.703 64.9654Z" fill="#3F3D56"/>
<path d="M24.703 64.166C25.0564 64.166 25.3428 63.8795 25.3428 63.5262C25.3428 63.1729 25.0564 62.8864 24.703 62.8864C24.3497 62.8864 24.0632 63.1729 24.0632 63.5262C24.0632 63.8795 24.3497 64.166 24.703 64.166Z" fill="#3F3D56"/>
<path d="M24.703 63.3666C25.0564 63.3666 25.3428 63.0802 25.3428 62.7268C25.3428 62.3735 25.0564 62.087 24.703 62.087C24.3497 62.087 24.0632 62.3735 24.0632 62.7268C24.0632 63.0802 24.3497 63.3666 24.703 63.3666Z" fill="#3F3D56"/>
<path d="M25.6633 63.6858C26.0167 63.6858 26.3031 63.3994 26.3031 63.046C26.3031 62.6927 26.0167 62.4062 25.6633 62.4062C25.31 62.4062 25.0236 62.6927 25.0236 63.046C25.0236 63.3994 25.31 63.6858 25.6633 63.6858Z" fill="#3F3D56"/>
<path d="M26.3031 63.3666C26.6565 63.3666 26.9429 63.0802 26.9429 62.7268C26.9429 62.3735 26.6565 62.087 26.3031 62.087C25.9498 62.087 25.6633 62.3735 25.6633 62.7268C25.6633 63.0802 25.9498 63.3666 26.3031 63.3666Z" fill="#3F3D56"/>
<path d="M26.9429 63.046C27.2962 63.046 27.5827 62.7596 27.5827 62.4063C27.5827 62.0529 27.2962 61.7665 26.9429 61.7665C26.5895 61.7665 26.3031 62.0529 26.3031 62.4063C26.3031 62.7596 26.5895 63.046 26.9429 63.046Z" fill="#3F3D56"/>
<path d="M24.703 62.5672C25.0564 62.5672 25.3428 62.2807 25.3428 61.9274C25.3428 61.574 25.0564 61.2876 24.703 61.2876C24.3497 61.2876 24.0632 61.574 24.0632 61.9274C24.0632 62.2807 24.3497 62.5672 24.703 62.5672Z" fill="#3F3D56"/>
<path d="M24.703 61.7678C25.0564 61.7678 25.3428 61.4813 25.3428 61.128C25.3428 60.7747 25.0564 60.4882 24.703 60.4882C24.3497 60.4882 24.0632 60.7747 24.0632 61.128C24.0632 61.4813 24.3497 61.7678 24.703 61.7678Z" fill="#3F3D56"/>
<path d="M24.703 60.9671C25.0564 60.9671 25.3428 60.6806 25.3428 60.3273C25.3428 59.9739 25.0564 59.6875 24.703 59.6875C24.3497 59.6875 24.0632 59.9739 24.0632 60.3273C24.0632 60.6806 24.3497 60.9671 24.703 60.9671Z" fill="#3F3D56"/>
<path d="M24.703 60.1677C25.0564 60.1677 25.3428 59.8812 25.3428 59.5279C25.3428 59.1746 25.0564 58.8881 24.703 58.8881C24.3497 58.8881 24.0632 59.1746 24.0632 59.5279C24.0632 59.8812 24.3497 60.1677 24.703 60.1677Z" fill="#3F3D56"/>
<path d="M27.3548 57.4657C27.1965 57.4888 27.0369 57.5056 26.8772 57.5159C27.0262 57.3856 27.1644 57.2436 27.2905 57.0911C27.2014 56.8224 27.0711 56.5692 26.9043 56.3406C26.7457 56.4297 26.5704 56.4849 26.3894 56.5028C26.231 56.5259 26.0714 56.5427 25.9118 56.5543C26.1216 56.3831 26.3173 56.1256 26.5232 55.9106C26.0472 55.479 25.4336 55.2302 24.7914 55.2085C24.1492 55.1868 23.5202 55.3935 23.0161 55.792C22.512 56.1904 22.1656 56.7547 22.0384 57.3846C21.9113 58.0144 22.0116 58.6689 22.3216 59.2317C22.6317 59.7945 23.1312 60.2291 23.7315 60.4583C24.3318 60.6874 24.9939 60.6962 25.6001 60.4831C26.2063 60.2699 26.7172 59.8487 27.042 59.2944C27.3669 58.74 27.4845 58.0884 27.3741 57.4554L27.3548 57.4657Z" fill="#0159FA"/>
<path d="M29.493 60.644C29.3298 60.7442 29.1457 60.8054 28.9549 60.8229C28.7966 60.8461 28.637 60.8641 28.4774 60.8744C28.647 60.7222 28.8053 60.5579 28.9511 60.3827C28.5653 60.2821 28.156 60.329 27.803 60.5142C27.45 60.6995 27.1788 61.0097 27.0424 61.3842C26.906 61.7588 26.9141 62.1708 27.0653 62.5396C27.2165 62.9085 27.4998 63.2077 27.8599 63.3787C28.22 63.5498 28.6309 63.5804 29.0123 63.4646C29.3938 63.3487 29.7183 63.0948 29.9225 62.7525C30.1266 62.4101 30.1958 62.0039 30.1163 61.6132C30.0369 61.2226 29.8147 60.8756 29.493 60.6401V60.644Z" fill="#0159FA"/>
<path d="M23.7439 63.6858C24.0972 63.6858 24.3837 63.3994 24.3837 63.046C24.3837 62.6927 24.0972 62.4062 23.7439 62.4062C23.3906 62.4062 23.1041 62.6927 23.1041 63.046C23.1041 63.3994 23.3906 63.6858 23.7439 63.6858Z" fill="#3F3D56"/>
<path d="M23.1041 63.3666C23.4575 63.3666 23.7439 63.0802 23.7439 62.7268C23.7439 62.3735 23.4575 62.087 23.1041 62.087C22.7508 62.087 22.4644 62.3735 22.4644 62.7268C22.4644 63.0802 22.7508 63.3666 23.1041 63.3666Z" fill="#3F3D56"/>
<path d="M22.4644 63.046C22.8177 63.046 23.1041 62.7596 23.1041 62.4063C23.1041 62.0529 22.8177 61.7665 22.4644 61.7665C22.111 61.7665 21.8246 62.0529 21.8246 62.4063C21.8246 62.7596 22.111 63.046 22.4644 63.046Z" fill="#3F3D56"/>
<path d="M19.9143 60.644C20.0775 60.7444 20.2617 60.8056 20.4524 60.8229C20.6108 60.8461 20.7704 60.8641 20.93 60.8744C20.76 60.7226 20.6017 60.5582 20.4563 60.3827C20.842 60.2821 21.2514 60.329 21.6044 60.5142C21.9574 60.6995 22.2286 61.0097 22.365 61.3842C22.5014 61.7588 22.4932 62.1708 22.342 62.5396C22.1908 62.9085 21.9075 63.2077 21.5475 63.3787C21.1874 63.5498 20.7765 63.5804 20.395 63.4646C20.0136 63.3487 19.6891 63.0948 19.4849 62.7525C19.2807 62.4101 19.2116 62.0039 19.291 61.6132C19.3704 61.2226 19.5927 60.8756 19.9143 60.6401V60.644Z" fill="#0159FA"/>
<path d="M24.2435 66.8847H25.8024C26.6559 66.8847 27.4745 67.2238 28.078 67.8273C28.6815 68.4308 29.0206 69.2494 29.0206 70.1029V74.3342C29.0206 74.479 28.9631 74.6178 28.8607 74.7202C28.7584 74.8225 28.6195 74.88 28.4748 74.88H21.5711C21.4263 74.88 21.2875 74.8225 21.1851 74.7202C21.0828 74.6178 21.0253 74.479 21.0253 74.3342V70.1029C21.0253 69.2494 21.3643 68.4308 21.9679 67.8273C22.5714 67.2238 23.39 66.8847 24.2435 66.8847V66.8847Z" fill="#3F3D56"/>
<g opacity="0.1">
<path opacity="0.1" d="M27.4037 57.6407C27.3389 57.7099 27.2702 57.7753 27.1978 57.8364C27.2711 57.8364 27.3432 57.8248 27.4166 57.8171C27.4192 57.7579 27.4102 57.6987 27.4037 57.6407Z" fill="black"/>
<path opacity="0.1" d="M26.2374 56.8761C26.3983 56.8658 26.5567 56.849 26.7163 56.8259C26.8595 56.8077 26.9995 56.7696 27.1321 56.7126C27.0673 56.5837 26.9924 56.4602 26.9081 56.3431C26.828 56.3919 26.7413 56.4287 26.6506 56.4526C26.5244 56.6045 26.3862 56.7461 26.2374 56.8761Z" fill="black"/>
<path opacity="0.1" d="M22.3047 58.2496C22.3038 57.7616 22.4345 57.2823 22.683 56.8623C22.9316 56.4423 23.2888 56.0971 23.7171 55.863C24.1453 55.629 24.6288 55.5148 25.1165 55.5325C25.6043 55.5501 26.0782 55.699 26.4884 55.9634L26.5296 55.9196C26.2619 55.6814 25.9497 55.4985 25.6109 55.3815C25.2722 55.2645 24.9137 55.2157 24.556 55.2379C24.1984 55.26 23.8486 55.3528 23.5269 55.5107C23.2053 55.6687 22.918 55.8887 22.6818 56.1582C22.4455 56.4276 22.2649 56.7412 22.1504 57.0807C22.0359 57.4203 21.9897 57.7792 22.0144 58.1367C22.0392 58.4942 22.1345 58.8432 22.2948 59.1638C22.4551 59.4843 22.6772 59.7699 22.9484 60.0042C22.5321 59.5144 22.3039 58.8924 22.3047 58.2496V58.2496Z" fill="black"/>
</g>
<g opacity="0.1">
<path opacity="0.1" d="M28.4773 61.1936C28.6369 61.1833 28.7965 61.1666 28.9549 61.1434C29.1457 61.1254 29.3298 61.0638 29.493 60.9632C29.6737 61.0963 29.8244 61.2659 29.9353 61.4611C30.0462 61.6563 30.1148 61.8726 30.1366 62.096C30.1428 62.04 30.1459 61.9837 30.1456 61.9274C30.1468 61.6773 30.0892 61.4305 29.9774 61.2069C29.8656 60.9833 29.7027 60.7891 29.502 60.6401C29.3387 60.7403 29.1546 60.8015 28.9639 60.819L28.8352 60.8357C28.7253 60.9641 28.6057 61.0838 28.4773 61.1936V61.1936Z" fill="black"/>
<path opacity="0.1" d="M28.5417 60.6478C28.5951 60.6484 28.6484 60.6523 28.7013 60.6594C28.785 60.5706 28.8674 60.4753 28.951 60.3826C28.7144 60.3194 28.4663 60.3115 28.2261 60.3595C27.9859 60.4076 27.76 60.5102 27.5659 60.6596C27.3717 60.8089 27.2145 61.001 27.1065 61.2208C26.9985 61.4406 26.9425 61.6824 26.9429 61.9274C26.9429 61.9814 26.9429 62.0342 26.9506 62.087C26.9902 61.6925 27.1749 61.3268 27.4689 61.0609C27.7629 60.795 28.1452 60.6477 28.5417 60.6478V60.6478Z" fill="black"/>
</g>
<g opacity="0.1">
<path opacity="0.1" d="M20.9299 61.1936C20.7703 61.1833 20.6107 61.1666 20.4524 61.1434C20.2615 61.1256 20.0773 61.064 19.9143 60.9632C19.7335 61.0963 19.5828 61.2659 19.4719 61.4611C19.361 61.6563 19.2925 61.8726 19.2706 62.096C19.2644 62.04 19.2614 61.9837 19.2616 61.9274C19.2604 61.6773 19.318 61.4305 19.4298 61.2069C19.5417 60.9833 19.7045 60.7891 19.9053 60.6401C20.0684 60.7404 20.2526 60.8017 20.4433 60.819L20.5721 60.8357C20.6812 60.9648 20.8009 61.0844 20.9299 61.1936Z" fill="black"/>
<path opacity="0.1" d="M20.8657 60.6478C20.8118 60.6484 20.7581 60.6523 20.7047 60.6594C20.6224 60.5706 20.54 60.4753 20.4563 60.3826C20.693 60.3194 20.941 60.3115 21.1812 60.3595C21.4214 60.4076 21.6473 60.5102 21.8415 60.6596C22.0356 60.8089 22.1928 61.001 22.3008 61.2208C22.4089 61.4406 22.4649 61.6824 22.4645 61.9274C22.4645 61.9814 22.4645 62.0342 22.4567 62.087C22.4172 61.6925 22.2324 61.3268 21.9384 61.0609C21.6444 60.795 21.2621 60.6477 20.8657 60.6478V60.6478Z" fill="black"/>
</g>
</g>
<defs>
<clipPath id="clip0">
<rect width="147.265" height="82" fill="white"/>
</clipPath>
</defs>
</svg>
