<svg width="161" height="103" viewBox="0 0 161 103" fill="none" xmlns="http://www.w3.org/2000/svg">
<g clip-path="url(#clip0)">
<path opacity="0.1" d="M158.846 68.6566C158.855 73.2475 157.6 77.7524 155.219 81.6791C155.219 86.4814 152.978 90.8343 149.343 94.0067C148.433 94.7996 147.454 95.509 146.416 96.1263C146.375 96.1526 146.332 96.1776 146.288 96.2026C146.211 96.2483 146.133 96.2941 146.054 96.3413L145.98 96.3843C145.648 96.5715 145.31 96.7519 144.964 96.9211C141.778 98.4862 138.272 99.2933 134.722 99.2793H30.1544C29.3213 99.2793 28.4956 99.246 27.6773 99.1794C24.7693 98.9506 21.9117 98.2895 19.1991 97.218C18.6696 97.009 18.1503 96.7842 17.6411 96.5438C17.3986 96.43 17.1584 96.3131 16.9205 96.1929C16.7719 96.1179 16.6234 96.0403 16.4762 95.9626C15.5831 95.4882 14.718 94.963 13.8852 94.3896C13.1241 93.8692 12.3917 93.3079 11.6914 92.7083C6.96623 88.6579 4.04341 83.0524 4.04341 76.8671C1.3949 72.7928 -0.00996895 68.0368 5.32509e-05 63.1788C5.32509e-05 49.4266 11.0026 38.2781 24.5768 38.2781C24.9933 38.2781 25.4099 38.2906 25.8264 38.3128C25.8861 38.3128 25.9445 38.3128 26.0042 38.3211C28.2924 34.4246 31.3513 30.8444 35.0295 27.6928C45.0602 19.1064 59.7201 13.6937 76.0504 13.6937C89.7717 13.6937 102.314 17.5153 111.921 23.8296C115.562 21.7737 119.674 20.696 123.856 20.7016C137.427 20.7016 148.432 31.8501 148.432 45.6022C148.43 46.4724 148.384 47.3419 148.293 48.2073C151.565 50.5208 154.231 53.5864 156.068 57.1454C157.905 60.7044 158.857 64.6525 158.846 68.6566V68.6566Z" fill="#0159FA"/>
<path d="M160.108 98.8833H0V99.287H160.108V98.8833Z" fill="#3F3D56"/>
<path d="M129.264 30.4225C129.264 30.4225 131.094 34.2835 132.314 34.6899L128.857 39.9733L126.011 36.5188C126.011 36.5188 126.214 34.0803 125.604 33.0642C124.994 32.0482 129.264 30.4225 129.264 30.4225Z" fill="#FBBEBE"/>
<path d="M126.417 33.8771C128.551 33.8771 130.281 32.1485 130.281 30.0161C130.281 27.8838 128.551 26.1552 126.417 26.1552C124.283 26.1552 122.553 27.8838 122.553 30.0161C122.553 32.1485 124.283 33.8771 126.417 33.8771Z" fill="#FBBEBE"/>
<path d="M121.13 57.6524L122.147 60.4972L123.367 59.0747L122.343 55.8344L121.13 57.6524Z" fill="#FBBEBE"/>
<path d="M123.977 56.2298C123.977 56.2298 122.757 61.31 123.367 63.7485C123.977 66.187 125.807 82.8499 125.807 82.8499L127.027 96.0584L131.908 96.4648L131.298 81.0211L131.908 67.6094L135.364 80.6146V96.4648L141.261 96.668L140.651 76.1441C140.651 76.1441 141.058 60.294 138.415 58.2619C135.771 56.2298 135.364 55.8234 135.364 55.8234L123.977 56.2298Z" fill="#2F2E41"/>
<path d="M128.044 95.8552L127.637 97.2776L127.027 99.1065C127.027 99.1065 125.197 102.764 128.247 102.155C131.297 101.545 130.891 100.122 130.891 100.122C130.891 100.122 131.907 99.5129 131.704 99.3097C131.501 99.1065 131.501 96.0584 131.501 96.0584L128.044 95.8552Z" fill="#2F2E41"/>
<path d="M139.838 95.8552L140.245 97.2776L140.855 99.1065C140.855 99.1065 142.685 102.764 139.635 102.155C136.584 101.545 136.991 100.122 136.991 100.122C136.991 100.122 135.974 99.5129 136.178 99.3097C136.381 99.1065 136.381 96.0584 136.381 96.0584L139.838 95.8552Z" fill="#2F2E41"/>
<path d="M128.857 37.5348L131.344 33.8771L135.974 36.3156L136.584 57.4491C136.584 57.4491 133.941 55.8234 129.874 57.8555C125.807 59.8875 123.164 58.4651 123.164 58.4651L125.604 49.3208L124.587 37.1284L126.041 35.8094L128.857 37.5348Z" fill="#E6E6E6"/>
<path d="M126.042 35.4247L125.197 36.1123C125.197 36.1123 119.91 38.754 119.707 40.5829L123.367 50.54C123.367 50.54 124.384 52.7753 123.57 53.5881C122.757 54.4009 121.944 56.433 122.147 57.449C122.35 58.4651 120.927 62.7324 122.554 62.7324C124.18 62.7324 128.044 52.9785 127.841 49.1175C127.637 45.2566 127.496 35.1435 126.042 35.4247Z" fill="#2F2E41"/>
<path d="M121.537 39.3636L120.284 39.4976C120.284 39.4976 119.097 40.3797 119.097 42.4118C119.097 44.4438 118.893 50.54 118.893 50.54C118.893 50.54 118.487 53.5881 119.707 55.8234C120.927 58.0587 121.13 58.6683 121.13 58.6683L123.164 56.2298V51.1496L123.977 47.8983L121.537 39.3636Z" fill="#2F2E41"/>
<path d="M130.733 33.041L132.721 33.877C132.721 33.877 139.635 35.7059 140.651 38.754L137.804 45.8663C137.804 45.8663 139.838 58.8715 139.228 58.8715H138.618C138.618 58.8715 140.245 60.0907 139.228 60.4971C138.211 60.9036 135.771 64.1549 135.161 62.7324C134.551 61.31 130.891 44.4438 131.297 40.7861C131.704 37.1284 130.372 33.4242 130.733 33.041Z" fill="#2F2E41"/>
<path d="M127.942 25.0376V24.6311H126.926C126.926 24.6311 125.299 23.6151 123.875 24.8343C122.452 26.0536 121.842 26.6632 121.842 26.6632L121.232 27.476L121.842 27.6792L121.232 28.2889H121.842L121.435 28.8985L122.575 30.4225C122.575 30.4225 122.452 28.8985 123.672 28.8985C124.892 28.8985 126.316 27.2728 126.316 27.2728L129.366 29.5081C129.366 29.5081 129.162 28.2946 129.874 28.2917C129.874 28.2917 130.179 25.2408 127.942 25.0376Z" fill="#2F2E41"/>
<path d="M142.075 57.6522L141.668 61.9196C141.668 61.9196 141.668 68.219 139.431 67.6093C137.194 66.9997 139.024 61.7164 139.024 61.7164L139.333 57.8949L142.075 57.6522Z" fill="#FBBEBE"/>
<path d="M137.601 37.738C137.601 37.738 140.244 36.722 141.058 39.7701C141.871 42.8182 142.888 48.9144 142.888 48.9144C143.738 51.069 143.738 53.4656 142.888 55.6202L142.278 58.6683L138.821 58.2619L138.008 51.3529L137.194 42.615L137.601 37.738Z" fill="#2F2E41"/>
<g filter="url(#filter0_d)">
<rect x="21.6362" y="5.94592" width="77.8083" height="90.4506" rx="1.72424" fill="white"/>
</g>
<path d="M95.109 39.0715H50.7833C50.0332 39.0715 49.425 39.6796 49.425 40.4298V92.0629C49.425 92.813 50.0332 93.4212 50.7833 93.4212H95.109C95.8592 93.4212 96.4673 92.813 96.4673 92.0629V40.4298C96.4673 39.6796 95.8592 39.0715 95.109 39.0715Z" fill="#B9C2CD" fill-opacity="0.21"/>
<path d="M80.0069 47.0206H62.8561C62.4715 47.0206 62.1597 47.3324 62.1597 47.717C62.1597 48.1017 62.4715 48.4135 62.8561 48.4135H80.0069C80.3915 48.4135 80.7033 48.1017 80.7033 47.717C80.7033 47.3324 80.3915 47.0206 80.0069 47.0206Z" fill="white"/>
<path d="M90.0986 51.1096H62.8561C62.4715 51.1096 62.1597 51.4214 62.1597 51.806C62.1597 52.1906 62.4715 52.5024 62.8561 52.5024H90.0986C90.4832 52.5024 90.795 52.1906 90.795 51.806C90.795 51.4214 90.4832 51.1096 90.0986 51.1096Z" fill="#0158FB"/>
<path d="M85.0982 55.0037H63.1538C62.7692 55.0037 62.4574 55.3155 62.4574 55.7001C62.4574 56.0848 62.7692 56.3966 63.1538 56.3966H85.0982C85.4828 56.3966 85.7946 56.0848 85.7946 55.7001C85.7946 55.3155 85.4828 55.0037 85.0982 55.0037Z" fill="white"/>
<path d="M75.0871 59.2765H62.8561C62.4715 59.2765 62.1597 59.5883 62.1597 59.9729C62.1597 60.3575 62.4715 60.6693 62.8561 60.6693H75.0871C75.4717 60.6693 75.7835 60.3575 75.7835 59.9729C75.7835 59.5883 75.4717 59.2765 75.0871 59.2765Z" fill="white"/>
<path d="M82.0252 63.4501H62.8561C62.4715 63.4501 62.1597 63.7619 62.1597 64.1465C62.1597 64.5311 62.4715 64.8429 62.8561 64.8429H82.0252C82.4098 64.8429 82.7216 64.5311 82.7216 64.1465C82.7216 63.7619 82.4098 63.4501 82.0252 63.4501Z" fill="#0158FB"/>
<path d="M55.4692 46.5825H54.2172C53.9359 46.5825 53.7079 46.8106 53.7079 47.0919V48.3423C53.7079 48.6236 53.9359 48.8516 54.2172 48.8516H55.4692C55.7505 48.8516 55.9785 48.6236 55.9785 48.3423V47.0919C55.9785 46.8106 55.7505 46.5825 55.4692 46.5825Z" fill="white"/>
<path d="M55.4692 50.6714H54.2172C53.9359 50.6714 53.7079 50.8995 53.7079 51.1808V52.4312C53.7079 52.7125 53.9359 52.9406 54.2172 52.9406H55.4692C55.7505 52.9406 55.9785 52.7125 55.9785 52.4312V51.1808C55.9785 50.8995 55.7505 50.6714 55.4692 50.6714Z" fill="#0158FB"/>
<path d="M55.4692 54.5656H54.2172C53.9359 54.5656 53.7079 54.7936 53.7079 55.0749V56.3253C53.7079 56.6066 53.9359 56.8347 54.2172 56.8347H55.4692C55.7505 56.8347 55.9785 56.6066 55.9785 56.3253V55.0749C55.9785 54.7936 55.7505 54.5656 55.4692 54.5656Z" fill="white"/>
<path d="M55.4692 58.8383H54.2172C53.9359 58.8383 53.7079 59.0664 53.7079 59.3477V60.5981C53.7079 60.8794 53.9359 61.1074 54.2172 61.1074H55.4692C55.7505 61.1074 55.9785 60.8794 55.9785 60.5981V59.3477C55.9785 59.0664 55.7505 58.8383 55.4692 58.8383Z" fill="white"/>
<path d="M55.4692 63.012H54.2172C53.9359 63.012 53.7079 63.24 53.7079 63.5213V64.7717C53.7079 65.053 53.9359 65.2811 54.2172 65.2811H55.4692C55.7505 65.2811 55.9785 65.053 55.9785 64.7717V63.5213C55.9785 63.24 55.7505 63.012 55.4692 63.012Z" fill="#0158FB"/>
<path d="M80.0069 67.6497H62.8561C62.4715 67.6497 62.1597 67.9615 62.1597 68.3461C62.1597 68.7308 62.4715 69.0426 62.8561 69.0426H80.0069C80.3915 69.0426 80.7033 68.7308 80.7033 68.3461C80.7033 67.9615 80.3915 67.6497 80.0069 67.6497Z" fill="white"/>
<path d="M90.0986 71.7386H62.8561C62.4715 71.7386 62.1597 72.0504 62.1597 72.4351C62.1597 72.8197 62.4715 73.1315 62.8561 73.1315H90.0986C90.4832 73.1315 90.795 72.8197 90.795 72.4351C90.795 72.0504 90.4832 71.7386 90.0986 71.7386Z" fill="#0158FB"/>
<path d="M85.0982 75.6328H63.1538C62.7692 75.6328 62.4574 75.9445 62.4574 76.3292C62.4574 76.7138 62.7692 77.0256 63.1538 77.0256H85.0982C85.4828 77.0256 85.7946 76.7138 85.7946 76.3292C85.7946 75.9445 85.4828 75.6328 85.0982 75.6328Z" fill="white"/>
<path d="M75.0871 79.9056H62.8561C62.4715 79.9056 62.1597 80.2174 62.1597 80.602C62.1597 80.9866 62.4715 81.2984 62.8561 81.2984H75.0871C75.4717 81.2984 75.7835 80.9866 75.7835 80.602C75.7835 80.2174 75.4717 79.9056 75.0871 79.9056Z" fill="white"/>
<path d="M82.0252 84.0792H62.8561C62.4715 84.0792 62.1597 84.391 62.1597 84.7756C62.1597 85.1602 62.4715 85.472 62.8561 85.472H82.0252C82.4098 85.472 82.7216 85.1602 82.7216 84.7756C82.7216 84.391 82.4098 84.0792 82.0252 84.0792Z" fill="white"/>
<path d="M55.4692 67.2116H54.2172C53.9359 67.2116 53.7079 67.4397 53.7079 67.721V68.9714C53.7079 69.2527 53.9359 69.4807 54.2172 69.4807H55.4692C55.7505 69.4807 55.9785 69.2527 55.9785 68.9714V67.721C55.9785 67.4397 55.7505 67.2116 55.4692 67.2116Z" fill="white"/>
<path d="M55.4692 71.3005H54.2172C53.9359 71.3005 53.7079 71.5286 53.7079 71.8099V73.0603C53.7079 73.3416 53.9359 73.5697 54.2172 73.5697H55.4692C55.7505 73.5697 55.9785 73.3416 55.9785 73.0603V71.8099C55.9785 71.5286 55.7505 71.3005 55.4692 71.3005Z" fill="#0158FB"/>
<path d="M55.4692 75.1946H54.2172C53.9359 75.1946 53.7079 75.4227 53.7079 75.704V76.9544C53.7079 77.2357 53.9359 77.4637 54.2172 77.4637H55.4692C55.7505 77.4637 55.9785 77.2357 55.9785 76.9544V75.704C55.9785 75.4227 55.7505 75.1946 55.4692 75.1946Z" fill="white"/>
<path d="M55.4692 79.4674H54.2172C53.9359 79.4674 53.7079 79.6955 53.7079 79.9768V81.2272C53.7079 81.5085 53.9359 81.7365 54.2172 81.7365H55.4692C55.7505 81.7365 55.9785 81.5085 55.9785 81.2272V79.9768C55.9785 79.6955 55.7505 79.4674 55.4692 79.4674Z" fill="white"/>
<path d="M55.4692 83.6411H54.2172C53.9359 83.6411 53.7079 83.8691 53.7079 84.1504V85.4008C53.7079 85.6821 53.9359 85.9102 54.2172 85.9102H55.4692C55.7505 85.9102 55.9785 85.6821 55.9785 85.4008V84.1504C55.9785 83.8691 55.7505 83.6411 55.4692 83.6411Z" fill="white"/>
<rect x="24.4152" y="8.52454" width="22.0325" height="27.3732" rx="1.35829" fill="#B9C2CD" fill-opacity="0.21"/>
<rect x="24.4152" y="39.0715" width="22.0325" height="25.7864" rx="1.35829" fill="#B9C2CD" fill-opacity="0.21"/>
<rect x="24.4152" y="68.0316" width="22.0325" height="25.7864" rx="1.35829" fill="#B9C2CD" fill-opacity="0.21"/>
<path d="M39.388 23.4013H31.6732C31.3919 23.4013 31.1638 23.6294 31.1638 23.9107V24.2804C31.1638 24.5618 31.3919 24.7898 31.6732 24.7898H39.388C39.6694 24.7898 39.8974 24.5618 39.8974 24.2804V23.9107C39.8974 23.6294 39.6694 23.4013 39.388 23.4013Z" fill="#CCD4DC"/>
<path d="M35.6168 42.6419H27.9019C27.6206 42.6419 27.3926 42.87 27.3926 43.1513V43.521C27.3926 43.8024 27.6206 44.0304 27.9019 44.0304H35.6168C35.8981 44.0304 36.1262 43.8024 36.1262 43.521V43.1513C36.1262 42.87 35.8981 42.6419 35.6168 42.6419Z" fill="#0158FB"/>
<path d="M35.6168 71.602H27.9019C27.6206 71.602 27.3926 71.83 27.3926 72.1113V72.4811C27.3926 72.7624 27.6206 72.9905 27.9019 72.9905H35.6168C35.8981 72.9905 36.1262 72.7624 36.1262 72.4811V72.1113C36.1262 71.83 35.8981 71.602 35.6168 71.602Z" fill="#0158FB"/>
<path d="M43.1595 26.7734H27.9019C27.6206 26.7734 27.3926 27.0014 27.3926 27.2827V27.6525C27.3926 27.9338 27.6206 28.1619 27.9019 28.1619H43.1595C43.4408 28.1619 43.6688 27.9338 43.6688 27.6525V27.2827C43.6688 27.0014 43.4408 26.7734 43.1595 26.7734Z" fill="#CCD4DC"/>
<path d="M43.1595 46.014H27.9019C27.6206 46.014 27.3926 46.242 27.3926 46.5233V46.8931C27.3926 47.1744 27.6206 47.4025 27.9019 47.4025H43.1595C43.4408 47.4025 43.6688 47.1744 43.6688 46.8931V46.5233C43.6688 46.242 43.4408 46.014 43.1595 46.014Z" fill="#CCD4DC"/>
<path d="M43.1595 74.974H27.9019C27.6206 74.974 27.3926 75.202 27.3926 75.4834V75.8531C27.3926 76.1344 27.6206 76.3625 27.9019 76.3625H43.1595C43.4408 76.3625 43.6688 76.1344 43.6688 75.8531V75.4834C43.6688 75.202 43.4408 74.974 43.1595 74.974Z" fill="#CCD4DC"/>
<path d="M43.1595 30.1454H27.9019C27.6206 30.1454 27.3926 30.3735 27.3926 30.6548V31.0246C27.3926 31.3059 27.6206 31.5339 27.9019 31.5339H43.1595C43.4408 31.5339 43.6688 31.3059 43.6688 31.0246V30.6548C43.6688 30.3735 43.4408 30.1454 43.1595 30.1454Z" fill="#CCD4DC"/>
<path d="M43.1595 49.386H27.9019C27.6206 49.386 27.3926 49.6141 27.3926 49.8954V50.2652C27.3926 50.5465 27.6206 50.7745 27.9019 50.7745H43.1595C43.4408 50.7745 43.6688 50.5465 43.6688 50.2652V49.8954C43.6688 49.6141 43.4408 49.386 43.1595 49.386Z" fill="#CCD4DC"/>
<path d="M43.1595 78.3461H27.9019C27.6206 78.3461 27.3926 78.5741 27.3926 78.8554V79.2252C27.3926 79.5065 27.6206 79.7346 27.9019 79.7346H43.1595C43.4408 79.7346 43.6688 79.5065 43.6688 79.2252V78.8554C43.6688 78.5741 43.4408 78.3461 43.1595 78.3461Z" fill="#CCD4DC"/>
<path d="M43.1595 52.7581H27.9019C27.6206 52.7581 27.3926 52.9861 27.3926 53.2674V53.6372C27.3926 53.9185 27.6206 54.1465 27.9019 54.1465H43.1595C43.4408 54.1465 43.6688 53.9185 43.6688 53.6372V53.2674C43.6688 52.9861 43.4408 52.7581 43.1595 52.7581Z" fill="#CCD4DC"/>
<path d="M43.1595 81.7181H27.9019C27.6206 81.7181 27.3926 81.9462 27.3926 82.2275V82.5973C27.3926 82.8786 27.6206 83.1066 27.9019 83.1066H43.1595C43.4408 83.1066 43.6688 82.8786 43.6688 82.5973V82.2275C43.6688 81.9462 43.4408 81.7181 43.1595 81.7181Z" fill="#CCD4DC"/>
<path d="M43.1595 56.1301H27.9019C27.6206 56.1301 27.3926 56.3582 27.3926 56.6395V57.0093C27.3926 57.2906 27.6206 57.5186 27.9019 57.5186H43.1595C43.4408 57.5186 43.6688 57.2906 43.6688 57.0093V56.6395C43.6688 56.3582 43.4408 56.1301 43.1595 56.1301Z" fill="#CCD4DC"/>
<path d="M43.1595 85.0902H27.9019C27.6206 85.0902 27.3926 85.3183 27.3926 85.5996V85.9694C27.3926 86.2507 27.6206 86.4787 27.9019 86.4787H43.1595C43.4408 86.4787 43.6688 86.2507 43.6688 85.9694V85.5996C43.6688 85.3183 43.4408 85.0902 43.1595 85.0902Z" fill="#CCD4DC"/>
<path d="M43.1595 59.5022H27.9019C27.6206 59.5022 27.3926 59.7302 27.3926 60.0116V60.3813C27.3926 60.6626 27.6206 60.8907 27.9019 60.8907H43.1595C43.4408 60.8907 43.6688 60.6626 43.6688 60.3813V60.0116C43.6688 59.7302 43.4408 59.5022 43.1595 59.5022Z" fill="#CCD4DC"/>
<path d="M43.1595 88.4623H27.9019C27.6206 88.4623 27.3926 88.6903 27.3926 88.9716V89.3414C27.3926 89.6227 27.6206 89.8508 27.9019 89.8508H43.1595C43.4408 89.8508 43.6688 89.6227 43.6688 89.3414V88.9716C43.6688 88.6903 43.4408 88.4623 43.1595 88.4623Z" fill="#CCD4DC"/>
<rect x="49.425" y="8.52454" width="47.0423" height="27.3732" rx="1.35829" fill="#B9C2CD" fill-opacity="0.21"/>
<path d="M35.4314 12.095C34.5873 12.095 33.7622 12.3451 33.0604 12.8137C32.3587 13.2823 31.8117 13.9484 31.4887 14.7276C31.1657 15.5069 31.0812 16.3644 31.2458 17.1916C31.4105 18.0189 31.8169 18.7788 32.4138 19.3752C33.0106 19.9716 33.771 20.3778 34.5988 20.5424C35.4266 20.7069 36.2847 20.6225 37.0645 20.2997C37.8443 19.9769 38.5108 19.4303 38.9797 18.729C39.4486 18.0276 39.6989 17.2031 39.6989 16.3596C39.6956 15.2296 39.2449 14.1468 38.4453 13.3477C37.6457 12.5487 36.5622 12.0983 35.4314 12.095V12.095ZM35.4314 13.3744C35.6846 13.3744 35.9321 13.4494 36.1426 13.59C36.3532 13.7306 36.5173 13.9304 36.6142 14.1642C36.7111 14.3979 36.7364 14.6552 36.687 14.9034C36.6376 15.1515 36.5157 15.3795 36.3367 15.5584C36.1576 15.7374 35.9295 15.8592 35.6811 15.9086C35.4328 15.958 35.1754 15.9326 34.9414 15.8358C34.7075 15.739 34.5075 15.575 34.3669 15.3646C34.2262 15.1542 34.1511 14.9068 34.1511 14.6538C34.1522 14.3148 34.2875 13.99 34.5273 13.7503C34.7672 13.5107 35.0922 13.3755 35.4314 13.3744V13.3744ZM35.4314 19.5335C34.9256 19.5312 34.4281 19.4057 33.9819 19.1677C33.5357 18.9297 33.1543 18.5866 32.8708 18.168C32.8914 17.3151 34.5779 16.8456 35.4314 16.8456C36.2849 16.8456 37.9714 17.3151 37.9919 18.168C37.7081 18.5863 37.3267 18.9292 36.8806 19.1671C36.4344 19.405 35.937 19.5308 35.4314 19.5335Z" fill="#0158FB"/>
<ellipse cx="73.0224" cy="22.2523" rx="6.85149" ry="6.75677" fill="#0156FB" fill-opacity="0.8"/>
<g clip-path="url(#clip1)">
<path d="M75.5397 22.0402L71.6451 19.851C71.5697 19.8086 71.4777 19.8096 71.4032 19.8529C71.3282 19.8967 71.2825 19.9765 71.2825 20.0631V24.4414C71.2825 24.528 71.3282 24.6078 71.4032 24.6516C71.4412 24.6735 71.4835 24.6847 71.5259 24.6847C71.5668 24.6847 71.6081 24.6745 71.6451 24.6536L75.5397 22.4644C75.6161 22.4211 75.6638 22.3403 75.6638 22.2523C75.6638 22.1642 75.6161 22.0835 75.5397 22.0402Z" fill="white"/>
</g>
</g>
<defs>
<filter id="filter0_d" x="14.7393" y="0.0342267" width="91.6023" height="104.245" filterUnits="userSpaceOnUse" color-interpolation-filters="sRGB">
<feFlood flood-opacity="0" result="BackgroundImageFix"/>
<feColorMatrix in="SourceAlpha" type="matrix" values="0 0 0 0 0 0 0 0 0 0 0 0 0 0 0 0 0 0 127 0"/>
<feOffset dy="0.985283"/>
<feGaussianBlur stdDeviation="3.44849"/>
<feColorMatrix type="matrix" values="0 0 0 0 0.0816667 0 0 0 0 0.304967 0 0 0 0 0.466667 0 0 0 0.1 0"/>
<feBlend mode="normal" in2="BackgroundImageFix" result="effect1_dropShadow"/>
<feBlend mode="normal" in="SourceGraphic" in2="effect1_dropShadow" result="shape"/>
</filter>
<clipPath id="clip0">
<rect width="160.108" height="102.223" fill="white"/>
</clipPath>
<clipPath id="clip1">
<rect x="71.0391" y="19.8198" width="4.86816" height="4.86487" fill="white"/>
</clipPath>
</defs>
</svg>
