<svg width="529" height="418" viewBox="0 0 529 418" fill="none" xmlns="http://www.w3.org/2000/svg">
<path d="M279.368 417.097C417.236 417.097 529.001 407.015 529.001 394.579C529.001 382.142 417.236 372.061 279.368 372.061C141.5 372.061 29.7354 382.142 29.7354 394.579C29.7354 407.015 141.5 417.097 279.368 417.097Z" fill="#3F3D56"/>
<path opacity="0.3" d="M157.351 183.992L428.308 183.992V0.000808716L157.351 0.000808716V183.992Z" fill="#3F3D56"/>
<path d="M411.013 16.8572H330.783V104.518H411.013V16.8572Z" fill="#F2F2F2"/>
<path d="M203.951 22.1555L281.299 22.1555V16.8573L203.951 16.8573V22.1555Z" fill="#F2F2F2"/>
<path d="M330.782 123.304H358.166V118.006H330.782V123.304Z" fill="#F2F2F2"/>
<path d="M331.744 132.937H410.052V127.639L331.744 127.639V132.937Z" fill="#F2F2F2"/>
<path d="M188.096 41.4219L299.554 41.4219V36.1237L188.096 36.1237V41.4219Z" fill="#F2F2F2"/>
<path d="M188.096 56.3538L299.554 56.3538V51.0556L188.096 51.0556V56.3538Z" fill="#F2F2F2"/>
<path d="M188.096 71.2837L299.554 71.2837V65.9855L188.096 65.9855V71.2837Z" fill="#F2F2F2"/>
<path d="M188.096 86.2163L299.554 86.2163V80.9181L188.096 80.9181V86.2163Z" fill="#F2F2F2"/>
<path d="M188.096 101.148L299.554 101.148V95.8497L188.096 95.8497V101.148Z" fill="#F2F2F2"/>
<path d="M188.096 116.078L299.554 116.078V110.779L188.096 110.779V116.078Z" fill="#F2F2F2"/>
<path d="M188.096 131.01H299.554V125.712L188.096 125.712V131.01Z" fill="#F2F2F2"/>
<path d="M342.831 66.9139C344.018 66.0667 345.328 65.4079 346.715 64.9606C355.511 61.6794 364.728 59.668 374.088 58.9867C382.227 58.4081 391.049 59.0954 397.406 64.2238C398.395 64.9512 399.204 65.8964 399.771 66.9865C400.571 68.7168 400.329 70.7281 400.07 72.6174C400.012 73.3502 399.827 74.0674 399.525 74.7372C398.67 76.3702 396.563 76.9422 394.734 76.7464C392.905 76.5506 391.188 75.7746 389.384 75.4148C388.267 75.2196 387.138 75.1043 386.004 75.0698L374.687 74.4555C367.65 74.0735 360.52 73.6979 353.617 75.1219C351.492 75.5048 349.439 76.2142 347.529 77.225C345.953 78.1125 344.891 79.386 343.428 77.7467C340.858 74.8669 339.435 69.5739 342.831 66.9139Z" fill="#2F2E41"/>
<path d="M360.368 71.9315C360.368 71.9315 375.59 65.0904 381.363 72.984C387.137 80.8775 378.214 77.7201 378.214 77.7201L368.241 80.8775L357.219 78.7725L360.368 71.9315Z" fill="#F2F2F2"/>
<path d="M361.156 66.9321C361.156 66.9321 363.255 76.9306 361.68 79.5618C360.106 82.1929 370.604 85.8766 370.604 85.8766L380.576 81.6667C380.576 81.6667 377.952 65.3535 380.576 62.196L361.156 66.9321Z" fill="#FFB9B9"/>
<path opacity="0.1" d="M361.156 66.9321C361.156 66.9321 363.255 76.9306 361.68 79.5618C360.106 82.1929 370.604 85.8766 370.604 85.8766L380.576 81.6667C380.576 81.6667 377.952 65.3535 380.576 62.196L361.156 66.9321Z" fill="black"/>
<path d="M385.301 56.9326C385.297 61.1185 383.637 65.132 380.685 68.0919C377.732 71.0518 373.729 72.7162 369.554 72.7196C368.616 72.7212 367.679 72.6367 366.756 72.467C363.809 71.9335 361.075 70.5685 358.875 68.5322C356.674 66.4959 355.099 63.8727 354.333 60.9703C353.566 58.0679 353.642 55.0067 354.55 52.1458C355.458 49.2848 357.16 46.7427 359.458 44.8177C361.757 42.8927 364.554 41.6645 367.524 41.2773C370.494 40.8902 373.512 41.36 376.224 42.6317C378.937 43.9034 381.232 45.9243 382.839 48.4572C384.447 50.9902 385.301 53.9303 385.301 56.9326V56.9326Z" fill="#FFB9B9"/>
<path d="M394.808 105.001H344.59L345.728 100.045L350.657 78.5102L356.355 74.6521L356.36 74.6473L359.036 72.8314L360.367 71.9308C360.367 71.9308 361.155 72.292 362.063 72.7833C362.327 72.9326 362.596 73.0867 362.865 73.2505C362.87 73.2457 362.87 73.2505 362.87 73.2505C363.305 73.5041 363.72 73.7924 364.109 74.1127C364.181 74.1801 364.244 74.2379 364.306 74.3005C365.305 75.3023 368.222 80.6198 373.045 77.8985C373.289 77.7643 373.524 77.6163 373.751 77.4554C375.008 76.583 376.207 75.6289 377.34 74.5991C378.354 73.6695 379.012 72.9519 379.55 72.4557C379.791 72.2146 380.066 72.0101 380.367 71.8489C380.593 71.7297 380.846 71.6685 381.102 71.6707C382.677 71.6707 384.777 74.8255 384.777 74.8255L384.839 75.0085L384.844 75.023L391.469 94.9634L394.808 105.001Z" fill="#F2F2F2"/>
<path d="M344.59 105H359.81C359.844 103.236 359.752 101.471 359.536 99.7206C359.07 96.1997 357.927 92.8089 357.206 89.3314C356.572 86.2839 356.264 83.1773 356.288 80.0643C356.293 79.6357 356.303 79.2022 356.341 78.7687C356.379 77.7761 356.665 76.8089 357.172 75.9559C357.533 75.402 358.028 74.93 358.412 74.4001C358.546 74.2267 358.663 74.0413 358.763 73.8462V73.8414C358.811 73.7457 358.854 73.6477 358.892 73.5476C358.977 73.3173 359.026 73.0752 359.036 72.8299C359.123 71.2405 357.686 69.7088 356.135 69.0538C353.957 68.2339 351.573 68.1376 349.337 68.7792C347.12 69.4217 344.978 70.3001 342.947 71.3994C342.26 71.7366 341.578 72.0834 340.92 72.4687C340.134 72.9155 339.412 73.4663 338.772 74.1063C337.139 75.7969 336.423 78.1522 335.846 80.4304C335.297 82.1719 335.109 84.0078 335.294 85.825C335.299 85.8828 335.313 85.9454 335.323 86.0032C335.895 89.0039 338.335 91.258 339.637 94.0227C341.146 97.2305 341.045 100.968 340.444 104.465C340.415 104.643 340.382 104.821 340.348 105H344.59V105Z" fill="#2F2E41"/>
<path d="M406.545 85.7301C404.635 92.028 403.248 98.4736 402.399 105.001H380.703C380.136 103.45 379.571 101.898 379.007 100.343C378.557 99.1707 378.171 97.9744 377.85 96.7599C377.506 95.3478 377.343 93.8976 377.364 92.4443C377.364 92.0975 377.379 91.7459 377.408 91.3991C377.41 91.3965 377.411 91.393 377.411 91.3895C377.411 91.3859 377.41 91.3825 377.408 91.3798C377.539 89.5469 377.963 87.7468 378.662 86.0479C378.982 85.2756 379.351 84.5243 379.766 83.7986C380.775 81.9683 381.996 80.244 383.081 78.4523C383.758 77.3573 384.348 76.2107 384.845 75.0229C384.844 75.0203 384.845 75.0177 384.845 75.0151C384.846 75.0126 384.848 75.0104 384.849 75.0085C385.498 73.4938 385.836 71.8642 385.844 70.2161C385.81 68.0919 382.226 64.388 386.122 64.7444C391.441 65.2261 396.01 68.2943 400.175 71.7911C401.285 72.7254 402.37 73.6936 403.432 74.6472C405.075 76.1308 406.809 77.749 407.304 79.9117C407.384 80.2565 407.43 80.6081 407.444 80.9617C407.415 82.5906 407.111 84.2029 406.545 85.7301V85.7301Z" fill="#2F2E41"/>
<path d="M374.026 79.9206C373.48 78.4411 372.642 77.0869 371.563 75.9387C370.474 75.0162 369.186 74.3617 367.8 74.0275C366.004 73.5133 364.147 73.2464 362.28 73.2344C360.057 73.2205 357.48 73.8183 356.536 75.8361C355.786 77.4384 356.367 79.3358 357.122 80.9356C357.444 81.7644 357.981 82.4919 358.678 83.0431C359.637 83.6924 360.876 83.6719 362.013 83.8894C363.775 84.3379 365.444 85.096 366.942 86.1286L370.835 88.4881L377.523 92.5409C377.347 92.4341 377.409 87.8362 377.204 87.0827C376.542 84.6553 375.053 82.2194 374.026 79.9206Z" fill="#FFB9B9"/>
<path d="M384.904 48.7063C384.624 47.7622 384.007 46.9547 383.171 46.4378C383.214 45.4265 383.09 44.4149 382.805 43.444C381.851 40.6176 379.592 40.7796 377.461 39.53C376.536 38.9878 376.593 38.5086 376.112 37.6181C375.481 36.4508 374.536 35.4843 373.384 34.8285C372.017 33.955 370.573 33.0554 368.956 32.9449C365.556 32.7125 362.949 35.9184 359.7 36.9473C358.268 37.4008 356.729 37.4195 355.289 37.8482C353.849 38.2769 352.413 39.3006 352.198 40.7909C352.099 41.479 352.274 42.1848 352.174 42.8727C351.974 44.2399 350.777 45.1973 349.976 46.3218C348.205 48.8085 348.408 52.3214 349.824 55.027C350.123 55.5868 350.464 56.1225 350.846 56.6292C350.964 57.908 351.33 59.1514 351.924 60.2893C353.34 62.9949 355.777 65.0166 358.323 66.6963C358.115 65.799 357.988 64.8845 357.946 63.9642C357.91 63.6575 357.949 63.3467 358.061 63.059C358.345 62.4648 359.094 62.3068 359.665 61.9813C360.848 61.3073 361.312 59.8156 361.347 58.4517C361.381 57.0879 361.093 55.7218 361.235 54.365C361.241 54.053 361.311 53.7456 361.443 53.4627C361.574 53.1798 361.763 52.9276 361.998 52.7224C362.434 52.4727 362.933 52.3534 363.435 52.3788C365.859 52.2796 368.392 52.235 370.53 51.0857C371.22 50.6265 371.961 50.2506 372.739 49.9657C374.556 49.4907 376.413 50.7675 377.46 52.3303C378.507 53.8931 379.029 55.7528 379.996 57.3672C380.962 58.9816 382.631 60.4212 384.499 60.23C384.605 60.2302 384.709 60.2082 384.805 60.1653C384.901 60.1225 384.987 60.0597 385.057 59.9812C385.138 59.8361 385.174 59.6702 385.16 59.5047L385.264 52.3453C385.351 51.1206 385.229 49.89 384.904 48.7063V48.7063Z" fill="#2F2E41"/>
<path d="M343.375 96.5186C343.716 99.3362 343.922 102.164 343.994 105H330.783V93.8694C330.85 93.5997 330.922 93.3348 331.008 93.0699C331.835 90.5171 333.569 88.3786 335.073 86.1582C335.145 86.0473 335.222 85.9366 335.294 85.8258C335.933 84.8891 336.484 83.8941 336.937 82.8541C337.153 82.3435 337.499 79.8726 337.864 79.6607C339.43 78.7504 340.704 82.6421 340.92 83.5091C341.688 86.5965 342.356 89.7128 342.861 92.858C343.058 94.0766 343.229 95.2968 343.375 96.5186Z" fill="#2F2E41"/>
<path d="M410.138 105H379.809C379.55 104.388 379.295 103.777 379.026 103.17C377.135 98.881 374.689 94.8601 371.752 91.2103C371.268 90.7278 370.953 90.1008 370.854 89.4234C370.844 89.1421 370.912 88.8636 371.051 88.619C371.512 87.7569 372.733 87.2511 373.722 86.8418C374.745 86.4288 375.686 85.835 376.499 85.0885C377.218 84.4395 377.769 83.6245 378.104 82.714C378.193 82.447 378.26 82.1731 378.305 81.8952C378.445 82.0782 378.589 82.2661 378.728 82.4491C379.069 82.9018 379.415 83.3498 379.766 83.7977C383.129 88.1277 386.823 92.3952 391.469 94.9624C392.683 95.6404 393.964 96.1878 395.293 96.5953C395.42 96.6513 395.558 96.6802 395.697 96.6802C395.836 96.6802 395.973 96.6513 396.1 96.5953C396.296 96.4339 396.422 96.2024 396.451 95.9498C396.864 94.2159 397.008 92.4289 397.311 90.6709C397.867 87.4723 398.936 84.3851 400.477 81.5292C401.337 79.9253 404.133 74.0636 405.906 77.7578C406.415 78.8222 406.927 79.8899 407.443 80.9608C407.765 81.6399 408.091 82.3142 408.418 82.9934C409.624 85.148 410.173 87.6095 409.999 90.0737C410.047 95.0539 410.093 100.029 410.138 105Z" fill="#2F2E41"/>
<path opacity="0.1" d="M344.589 105.001H347.217L345.728 100.045L343.58 92.9019C343.605 94.1111 343.536 95.3205 343.374 96.5191C343.049 98.9961 342.343 101.408 341.279 103.667C341.072 104.105 340.851 104.548 340.674 105.001H344.589Z" fill="black"/>
<path opacity="0.1" d="M398.118 89.7698C397.748 90.7674 398.084 91.8708 398.369 92.8961C399.195 95.8701 399.581 98.9497 399.514 102.036C399.526 102.09 399.524 102.146 399.509 102.2C399.494 102.253 399.466 102.301 399.428 102.341C399.389 102.38 399.341 102.41 399.289 102.426C399.236 102.443 399.18 102.446 399.126 102.435C397.914 102.509 396.527 102.517 395.705 101.622L398.118 89.7698Z" fill="black"/>
<path d="M287.798 69.627H16.8406V253.618H287.798V69.627Z" fill="#3D4456"/>
<path opacity="0.1" d="M248.403 241.096C265.915 241.096 280.111 239.586 280.111 237.724C280.111 235.862 265.915 234.353 248.403 234.353C230.892 234.353 216.696 235.862 216.696 237.724C216.696 239.586 230.892 241.096 248.403 241.096Z" fill="black"/>
<path d="M114.366 86.4861H34.1351V174.147H114.366V86.4861Z" fill="#F2F2F2"/>
<path d="M59.9704 126.734C60.231 126.813 60.511 126.8 60.7627 126.696C61.0143 126.591 61.2222 126.403 61.3509 126.162C62.4606 124.409 60.4175 122.149 60.8599 120.121C61.2143 118.496 63.056 117.532 63.4325 115.912C63.7984 114.338 62.671 112.564 63.433 111.14C64.03 110.024 65.5212 109.73 66.769 109.926C68.0168 110.121 69.2012 110.671 70.4617 110.748C72.1415 110.851 73.7427 110.109 75.3852 109.742C77.0277 109.375 79.0311 109.519 79.9973 110.9C81.238 112.674 79.9795 115.143 80.4115 117.266C80.7545 118.952 82.1619 120.347 82.1922 122.067C82.2029 122.679 80.6 122.186 80.6852 122.791C80.7704 123.397 80.0127 122.864 80.6184 122.792C80.8657 122.731 81.0873 122.593 81.2511 122.398C81.415 122.202 81.5126 121.96 81.5298 121.705C81.6018 121.201 82.547 121.033 82.5361 120.523C82.5105 119.33 84.6629 120.135 85.0174 118.995C85.8326 116.338 85.6653 113.476 84.5463 110.932C83.9696 109.893 83.5091 108.794 83.1733 107.653C82.8571 106.071 83.3546 104.372 82.8331 102.845C82.1303 100.787 79.8047 99.7379 77.6455 99.5249C75.4864 99.3118 73.2923 99.6932 71.1455 99.379C69.2223 99.0976 67.3605 98.2619 65.4207 98.383C63.0932 98.5283 61.0677 100.032 59.4543 101.72C57.8408 103.408 56.4722 105.35 54.6398 106.796C54.0788 107.183 53.5612 107.63 53.096 108.128C52.1627 109.269 52.0681 110.893 52.3277 112.345C52.5873 113.797 53.1523 115.182 53.3908 116.637C53.615 118.005 53.5458 119.403 53.6424 120.785C53.665 122.18 54.0861 123.539 54.8559 124.701C55.1885 125.154 55.6197 125.524 56.1167 125.785C56.6138 126.045 57.1635 126.188 57.7241 126.203C58.1125 126.212 58.4405 125.862 58.8325 125.954C59.3225 126.068 59.5355 126.534 59.9704 126.734Z" fill="#2F2E41"/>
<path d="M42.3267 174.628C42.6774 169.807 42.9416 166.204 42.9416 166.204L45.2092 160.212L52.4876 174.628L42.3267 174.628Z" fill="#575A89"/>
<path opacity="0.1" d="M42.3267 174.628C42.6774 169.807 42.9416 166.204 42.9416 166.204L45.2092 160.212L52.4876 174.628L42.3267 174.628Z" fill="black"/>
<path d="M59.1932 127.222C59.1932 127.222 65.98 144.542 62.0725 147.841C58.1649 151.14 83.8723 142.274 83.8723 142.274L83.2553 140.006C83.2553 140.006 74.8233 136.707 78.9365 127.222C83.0497 117.738 59.1932 127.222 59.1932 127.222Z" fill="#A0616A"/>
<path opacity="0.1" d="M59.1932 127.222C59.1932 127.222 65.98 144.542 62.0725 147.841C58.1649 151.14 83.8723 142.274 83.8723 142.274L83.2553 140.006C83.2553 140.006 74.8233 136.707 78.9365 127.222C83.0497 117.738 59.1932 127.222 59.1932 127.222Z" fill="black"/>
<path d="M68.8591 134.234C76.8099 134.234 83.2552 127.772 83.2552 119.801C83.2552 111.83 76.8099 105.368 68.8591 105.368C60.9084 105.368 54.463 111.83 54.463 119.801C54.463 127.772 60.9084 134.234 68.8591 134.234Z" fill="#A0616A"/>
<path d="M103.82 150.935C103.82 150.935 103.763 152.081 103.662 154.085C103.455 158.165 103.085 165.809 102.715 174.628H46.9096C45.4514 172.67 44.2576 170.527 43.3593 168.255C43.1163 167.597 42.9753 166.905 42.9413 166.204C42.6338 160.737 47.5197 153.107 50.9691 152.38C54.875 151.552 62.2783 143.72 62.2783 143.72C62.302 144.018 62.4008 144.305 62.5655 144.555C62.7302 144.804 62.9554 145.007 63.2199 145.146V145.151C63.817 145.46 64.4847 145.606 65.156 145.574C67.5677 145.574 78.1754 140.666 81.5816 139.062C82.2494 138.749 82.6385 138.562 82.6385 138.562C86.5668 140.261 90.625 141.642 94.774 142.689C96.8442 143.207 98.7541 144.231 100.333 145.67C101.912 147.109 103.11 148.918 103.82 150.935V150.935Z" fill="#576589"/>
<path d="M57.502 125.289C57.7625 125.369 58.0425 125.355 58.2942 125.251C58.5458 125.147 58.7537 124.958 58.8824 124.718C59.992 122.965 57.949 120.705 58.3914 118.676C58.7458 117.051 60.5875 116.087 60.964 114.467C61.3299 112.893 60.2025 111.119 60.9645 109.695C61.5615 108.579 63.0527 108.286 64.3005 108.481C65.5483 108.677 66.7327 109.226 67.9932 109.304C69.6729 109.406 71.2741 108.665 72.9166 108.298C74.5591 107.93 76.5626 108.074 77.5289 109.455C78.7695 111.229 77.511 113.699 77.943 115.821C78.286 117.507 82.1944 118.69 82.5489 117.55C83.3641 114.893 83.1968 112.031 82.0778 109.488C81.5011 108.449 81.0406 107.349 80.7048 106.209C80.3886 104.626 80.8861 102.927 80.3646 101.4C79.6618 99.3423 77.3362 98.2933 75.177 98.0803C73.0179 97.8673 70.8238 98.2486 68.677 97.9344C66.7539 97.653 64.892 96.8173 62.9522 96.9384C60.6247 97.0837 58.5992 98.5872 56.9858 100.275C55.3723 101.964 54.0037 103.905 52.1713 105.351C51.6103 105.738 51.0927 106.185 50.6275 106.684C49.6942 107.824 49.5996 109.448 49.8592 110.9C50.1188 112.352 50.6838 113.737 50.9223 115.193C51.1465 116.561 51.0773 117.958 51.1739 119.341C51.1964 120.735 51.6176 122.094 52.3874 123.256C52.72 123.709 53.1512 124.08 53.6482 124.34C54.1453 124.6 54.695 124.743 55.2556 124.759C55.644 124.768 55.972 124.418 56.364 124.509C56.854 124.623 57.0671 125.09 57.502 125.289Z" fill="#2F2E41"/>
<path opacity="0.1" d="M110.955 174.628H94.6686C93.4291 165.515 92.4058 155.988 92.4058 155.988L95.6967 154.543L102.384 150.935C102.384 150.935 102.874 152.101 103.662 154.085C105.344 158.329 108.394 166.314 110.955 174.628Z" fill="black"/>
<path d="M112.392 174.627H94.0106C91.2866 164.656 88.6011 153.819 88.6011 153.819L95.596 148.666L103.821 150.934C103.821 150.934 108.635 162.422 112.392 174.627Z" fill="#576589"/>
<path d="M241.196 86.4861H163.848V91.7843H241.196V86.4861Z" fill="#0085FF"/>
<path d="M62.4803 187.632H35.0962V192.93H62.4803V187.632Z" fill="#0085FF"/>
<path d="M113.405 197.265H35.0962V202.563H113.405V197.265Z" fill="#0085FF"/>
<path d="M257.05 105.752H145.592V111.05H257.05V105.752Z" fill="#F2F2F2"/>
<path d="M257.05 120.682H145.592V125.98H257.05V120.682Z" fill="#F2F2F2"/>
<path d="M257.05 135.614H145.592V140.912H257.05V135.614Z" fill="#F2F2F2"/>
<path d="M257.05 150.546H145.592V155.844H257.05V150.546Z" fill="#F2F2F2"/>
<path d="M257.05 165.476H145.592V170.774H257.05V165.476Z" fill="#F2F2F2"/>
<path d="M257.05 180.408H145.592V185.706H257.05V180.408Z" fill="#F2F2F2"/>
<path d="M257.05 195.337H145.592V200.636H257.05V195.337Z" fill="#F2F2F2"/>
<path d="M278.534 196.054L248.066 226.601L235.26 213.762C234.854 213.354 234.371 213.031 233.84 212.811C233.309 212.59 232.74 212.476 232.165 212.476C231.59 212.476 231.021 212.59 230.49 212.81C229.958 213.031 229.476 213.354 229.069 213.762L228.609 213.072C226.9 214.786 227.36 218.255 229.069 219.969L245.685 236.627C246.311 237.254 247.16 237.607 248.046 237.607C248.931 237.608 249.781 237.255 250.407 236.628L284.722 202.261C286.433 200.548 287.053 197.406 285.343 195.692C283.634 193.979 280.243 194.341 278.534 196.054Z" fill="#57B894"/>
<path opacity="0.1" d="M278.534 196.054L248.066 226.601L235.26 213.762C234.854 213.354 234.371 213.031 233.84 212.811C233.309 212.59 232.74 212.476 232.165 212.476C231.59 212.476 231.021 212.59 230.49 212.81C229.958 213.031 229.476 213.354 229.069 213.762L228.609 213.072C226.9 214.786 227.36 218.255 229.069 219.969L245.685 236.627C246.311 237.254 247.16 237.607 248.046 237.607C248.931 237.608 249.781 237.255 250.407 236.628L284.722 202.261C286.433 200.548 287.053 197.406 285.343 195.692C283.634 193.979 280.243 194.341 278.534 196.054Z" fill="black"/>
<path d="M278.534 194.7L248.065 225.246L235.26 212.407C234.853 212 234.371 211.676 233.839 211.456C233.308 211.235 232.739 211.122 232.164 211.122C231.589 211.122 231.02 211.235 230.489 211.456C229.958 211.676 229.475 212 229.069 212.407V212.407C228.662 212.815 228.34 213.298 228.12 213.831C227.9 214.363 227.787 214.934 227.787 215.51C227.787 216.087 227.9 216.657 228.12 217.19C228.34 217.722 228.662 218.206 229.069 218.614L245.684 235.272C246.31 235.9 247.16 236.252 248.045 236.253C248.931 236.253 249.78 235.9 250.407 235.273L284.721 200.906C285.128 200.499 285.451 200.015 285.671 199.483C285.891 198.95 286.005 198.38 286.005 197.803C286.005 197.227 285.892 196.656 285.672 196.124C285.452 195.591 285.129 195.107 284.723 194.7V194.7C283.902 193.877 282.789 193.415 281.628 193.415C280.467 193.415 279.354 193.877 278.534 194.7V194.7Z" fill="#57B894"/>
<path opacity="0.1" d="M502.69 371.624C502.69 406.066 454.804 395.413 396.173 395.413C337.542 395.413 290.369 406.066 290.369 371.624C290.369 337.182 338.247 329.691 396.878 329.691C455.509 329.691 502.69 337.182 502.69 371.624Z" fill="black"/>
<path d="M502.69 365.19C502.69 399.632 454.804 388.979 396.173 388.979C337.542 388.979 290.369 399.632 290.369 365.19C290.369 330.748 338.247 323.257 396.878 323.257C455.509 323.257 502.69 330.748 502.69 365.19Z" fill="#3F3D56"/>
<path d="M302.516 257.29L300.346 259.816C300.346 259.816 273.963 262.3 275.034 266.593C276.105 270.887 306.798 260.868 306.798 260.868L302.516 257.29Z" fill="#FFC1C7"/>
<path d="M350.34 255.145C350.34 255.145 322.145 265.164 306.798 260.87L313.936 275.182C313.936 275.182 350.341 274.109 356.765 267.668C363.189 261.228 350.34 255.145 350.34 255.145Z" fill="#6C63FF"/>
<path d="M352.846 256.57C351.291 255.569 349.364 255.493 347.602 256.052C342.302 257.735 330.193 261.224 319.163 261.844C314.377 262.113 310.219 267.729 312.359 272.019V272.019C313.321 273.948 315.309 275.141 317.461 275.035C326.755 274.576 351.568 272.878 356.765 267.668C361.305 263.117 356.219 258.744 352.846 256.57Z" fill="url(#paint0_linear)"/>
<path d="M331.246 178.392C341.693 178.392 350.162 169.901 350.162 159.428C350.162 148.954 341.693 140.463 331.246 140.463C320.799 140.463 312.33 148.954 312.33 159.428C312.33 169.901 320.799 178.392 331.246 178.392Z" fill="#FFC1C7"/>
<path d="M347.374 177.232C348.026 178.478 348.851 179.625 349.825 180.638C352.416 183.464 355.508 185.783 358.943 187.478C348.207 189.665 337.363 191.282 326.456 192.321C327.608 188.256 326.092 183.907 324.055 180.207C322.018 176.507 319.421 173.058 318.146 169.03L330.931 169.375C333.251 169.437 335.578 169.507 337.898 169.393C339.631 169.308 342.519 168.267 344.137 168.65C347.558 169.461 345.881 174.19 347.374 177.232Z" fill="#FFC1C7"/>
<path d="M390.313 266.237L401.02 279.118C401.02 279.118 418.866 320.983 379.963 325.277C341.061 329.571 312.152 322.056 312.152 322.056C312.152 322.056 296.448 314.542 296.091 320.267C295.734 325.992 294.307 342.094 285.741 357.838L278.246 375.013C278.246 375.013 274.32 378.949 275.391 384.317C276.461 389.684 251.478 391.473 251.835 384.317C251.835 384.317 255.404 378.234 255.404 374.656C255.404 371.077 261.115 362.49 261.115 362.49L271.465 310.964C271.465 310.964 270.751 284.486 295.02 289.495C319.29 294.504 353.909 288.422 353.909 288.422L361.761 260.87L390.313 266.237Z" fill="#2F2E41"/>
<path opacity="0.1" d="M390.313 266.237L401.02 279.118C401.02 279.118 418.866 320.983 379.963 325.277C341.061 329.571 312.152 322.056 312.152 322.056C312.152 322.056 296.448 314.542 296.091 320.267C295.734 325.992 294.307 342.094 285.741 357.838L278.246 375.013C278.246 375.013 274.32 378.949 275.391 384.317C276.461 389.684 251.478 391.473 251.835 384.317C251.835 384.317 255.404 378.234 255.404 374.656C255.404 371.077 261.115 362.49 261.115 362.49L271.465 310.964C271.465 310.964 270.751 284.486 295.02 289.495C319.29 294.504 353.909 288.422 353.909 288.422L361.761 260.87L390.313 266.237Z" fill="black"/>
<path d="M350.162 265.295C350.162 265.295 382.819 252.998 401.021 279.119C401.021 279.119 405.66 319.552 387.101 321.341C368.542 323.13 344.273 322.772 338.563 316.689C332.852 310.606 296.805 293.431 296.805 293.431C296.805 293.431 278.861 284.255 275.342 296.178C271.822 308.102 271.465 310.964 271.465 310.964C271.465 310.964 252.906 324.561 245.411 327.066C245.411 327.066 240.414 334.222 237.559 334.222C234.704 334.222 217.216 338.158 219 324.919L247.909 298.441L276.818 270.173C276.818 270.173 285.027 258.007 306.084 264.448C320.059 268.618 334.234 272.081 348.556 274.825L350.162 265.295Z" fill="#2F2E41"/>
<path d="M274.32 383.601C274.32 383.601 281.101 400.776 275.391 402.923C269.68 405.07 257.545 403.639 257.545 403.639C257.545 403.639 243.269 401.85 239.7 402.207C236.131 402.565 221.498 399.703 223.64 393.978C225.781 388.253 236.845 389.684 236.845 389.684L246.838 385.032C246.838 385.032 247.909 381.454 250.407 382.885C252.906 384.317 260.044 389.684 274.32 383.601Z" fill="#CBCEDA"/>
<path d="M237.202 332.791C237.202 332.791 244.697 349.608 232.562 348.177C220.427 346.746 211.148 344.241 207.579 343.883C204.146 343.539 194.438 340.215 195.927 333.593C196.007 333.165 196.04 332.729 196.024 332.293C196.024 331.404 197.229 329.66 206.865 329.928C206.865 329.928 214.003 329.928 216.858 324.919C216.858 324.919 227.565 338.516 237.202 332.791Z" fill="#CBCEDA"/>
<path d="M321.259 195.671C319.681 192.256 320.77 188.124 324.239 186.667C333.111 182.939 350.279 178.347 365.331 189.664C381.725 201.992 393.936 247.877 398.76 268.711C399.896 273.62 395.512 277.887 390.594 276.788L355.623 268.968C353.042 268.391 351.04 266.391 350.119 263.911C349.219 261.49 347.916 258.76 346.415 258.008C345.411 257.504 344.715 256.426 344.236 255.239C343.14 252.523 341.31 249.931 338.838 248.361C334.391 245.537 328.235 239.505 328.926 227.951C329.638 216.054 324.669 203.049 321.259 195.671Z" fill="url(#paint1_linear)"/>
<path d="M332.6 195.915C331.914 192.687 329.064 190.379 325.764 190.379H321.383C319.372 190.379 317.464 191.255 316.451 192.993C314.103 197.021 310.155 205.924 309.329 221.202C309.306 221.639 309.244 222.081 309.143 222.506L305.142 239.216C305.056 239.577 304.943 239.926 304.805 240.27C303.494 243.55 296.582 261.555 301.444 264.805C306.797 268.383 317.148 268.025 319.289 260.869C321.159 254.62 332.552 222.184 335.412 214.055C335.839 212.842 335.922 211.54 335.655 210.283L332.6 195.915Z" fill="url(#paint2_linear)"/>
<path d="M327.639 134.748C330.913 133.402 334.496 132.993 337.988 133.567C341.48 134.141 344.744 135.676 347.418 137.999C354.272 144.132 355.655 154.136 357.388 163.181C359.121 172.226 362.607 182.299 371.11 185.786C367.277 186.3 363.386 186.186 359.59 185.45L372.44 196.995L350.794 189.921C344 187.701 336.866 185.454 329.831 186.707C318.176 188.784 310.063 199.768 298.869 203.627L300.113 197.542L292.603 197.484C294.402 196.149 295.874 194.421 296.906 192.43C296.552 191.999 296.115 191.643 295.622 191.385C295.128 191.126 294.588 190.969 294.033 190.923C290.902 171.346 302.498 151.994 317.609 139.204C320.581 136.688 323.87 134.272 327.709 133.643C331.548 133.013 336.029 134.734 337.364 138.397" fill="#2F2E41"/>
<path d="M0.154419 314.165C0.154419 355.351 25.9265 388.678 57.7758 388.678Z" fill="#3F3D56"/>
<path d="M57.7756 388.678C57.7756 347.029 86.5358 313.327 122.078 313.327Z" fill="#0085FF"/>
<path d="M21.0315 317.898C21.0315 357.021 37.4658 388.679 57.7756 388.679Z" fill="#0085FF"/>
<path d="M57.7756 388.678C57.7756 335.46 91.0179 292.396 132.099 292.396Z" fill="#3F3D56"/>
<path d="M45.6533 389.203C45.6533 389.203 53.825 388.95 56.2877 387.192C58.7504 385.434 68.8578 383.334 69.4687 386.154C70.0797 388.974 81.7492 400.178 72.5234 400.253C63.2977 400.327 51.0869 398.812 48.6289 397.311C46.1709 395.81 45.6533 389.203 45.6533 389.203Z" fill="#A8A8A8"/>
<path opacity="0.2" d="M72.6881 399.272C63.4624 399.347 51.2515 397.832 48.7935 396.33C46.9216 395.187 46.1757 391.085 45.9261 389.193C45.7533 389.2 45.6533 389.204 45.6533 389.204C45.6533 389.204 46.1709 395.811 48.6289 397.312C51.0869 398.813 63.2977 400.329 72.5235 400.254C75.1866 400.232 76.1065 399.282 76.056 397.876C75.686 398.726 74.6703 399.256 72.6881 399.272Z" fill="black"/>
<defs>
<linearGradient id="paint0_linear" x1="354.504" y1="274.329" x2="342.025" y2="244.782" gradientUnits="userSpaceOnUse">
<stop stop-color="#0047FF"/>
<stop offset="1" stop-color="#0047FF"/>
</linearGradient>
<linearGradient id="paint1_linear" x1="394.527" y1="275.004" x2="312.979" y2="210.946" gradientUnits="userSpaceOnUse">
<stop stop-color="#0047FF"/>
<stop offset="1" stop-color="#0047FF"/>
</linearGradient>
<linearGradient id="paint2_linear" x1="333.214" y1="263.762" x2="284.542" y2="242.617" gradientUnits="userSpaceOnUse">
<stop stop-color="#0047FF"/>
<stop offset="1" stop-color="#0047FF"/>
</linearGradient>
</defs>
</svg>
