<svg width="533" height="354" viewBox="0 0 533 354" fill="none" xmlns="http://www.w3.org/2000/svg">
<g clip-path="url(#clip0)">
<path d="M459.981 341.897L348.613 342.266C319.067 333.391 294.86 302.567 294.707 256.352C294.677 249.389 295.203 242.436 296.28 235.558L385.982 215.412L455.182 199.872C460.281 204.437 465.033 209.375 469.397 214.647L403.226 249.574L372.01 266.052L407.087 253.955L479.892 228.847C484.432 235.786 488.477 243.037 491.998 250.545L470.031 273.239L494.88 256.977C494.987 257.226 495.092 257.475 495.198 257.725C510.946 295.1 491.406 341.793 459.981 341.897Z" fill="#F2F2F2"/>
<path d="M441.679 189.412C424.837 194.247 404.131 200.357 382.843 206.706C352.062 215.89 320.064 225.582 296.768 232.666L296.783 232.583C297.644 227.612 299.669 222.914 302.691 218.874C319.948 196.445 341.922 180.776 366.378 174.958H366.38C373.257 173.318 380.3 172.478 387.37 172.454C406.827 172.39 425.257 178.49 441.679 189.412Z" fill="#F2F2F2"/>
<path d="M122.877 272.023L103.622 329.671L98.8944 343.834C96.6184 347.272 93.9056 350.4 90.8241 353.14H90.3723C66.1128 353.14 44.0834 351.892 27.8505 349.866L30.1098 332.551L34.9587 295.414L41.1585 247.854C44.8235 245.466 48.6611 243.354 52.6396 241.535L58.1056 290.863L60.6856 314.133L61.4338 289.217L62.9838 237.499C67.8717 235.919 72.8705 234.704 77.9389 233.866L86.0577 252.371L82.2194 233.244C82.3846 233.225 82.5498 233.201 82.715 233.181C107.363 230.214 129.64 251.759 122.877 272.023Z" fill="#F2F2F2"/>
<path d="M32.2858 254.548C31.3724 266.326 30.3472 280.834 29.3269 295.769C28.4717 308.324 27.6263 321.176 26.8635 332.95C26.4845 338.822 26.125 344.427 25.7994 349.595C23.0397 349.23 20.4597 348.837 18.0838 348.429C15.7399 344.268 13.7364 339.925 12.093 335.441C7.91454 324.042 6.31602 312.089 7.72019 300.281V300.276C8.28475 295.515 9.3365 290.825 10.8589 286.278C15.0102 273.964 22.4135 263.001 32.2858 254.548V254.548Z" fill="#F2F2F2"/>
<path d="M180.744 341.342C180.744 347.841 140.523 353.106 90.8238 353.14H90.3719C66.1124 353.14 44.083 351.892 27.8501 349.866C27.1553 349.774 26.4702 349.687 25.7997 349.594C23.04 349.23 20.46 348.837 18.0841 348.429C6.72931 346.452 0 343.999 0 341.342C0 339.191 4.40199 337.18 12.0933 335.441C16.1552 334.523 21.1305 333.688 26.8638 332.949C27.9181 332.809 29 332.676 30.1094 332.551C46.0994 330.681 67.2202 329.545 90.3719 329.545C94.8711 329.545 99.2974 329.588 103.622 329.671C147.248 330.506 180.744 335.412 180.744 341.342Z" fill="#3F3D56"/>
<path d="M72.8457 238.062L75.1164 255.767C75.1164 255.767 76.0247 261.669 76.933 264.847C76.933 264.847 76.0247 281.644 83.2909 293.447L87.8323 302.073L88.7406 314.785L100.094 316.147L97.8234 297.079C97.8234 297.079 96.9151 288 97.8234 284.368C98.7317 280.736 93.282 263.939 93.282 263.939C93.282 263.939 100.548 240.332 95.0986 234.43C89.6489 228.528 72.8457 238.062 72.8457 238.062Z" fill="#A0616A"/>
<path d="M92.8279 311.152C92.8279 311.152 87.8324 311.152 87.3782 312.514C86.9241 313.876 79.6579 326.134 79.6579 326.134C79.6579 326.134 73.2999 336.121 82.3827 336.575C91.4655 337.029 94.1903 332.943 94.1903 332.943C94.1903 332.943 102.365 319.778 102.819 317.508C103.273 315.238 99.4067 310.374 99.4067 310.374C99.4067 310.374 94.1903 313.876 92.8279 311.152Z" fill="#2F2E41"/>
<path d="M99.1864 88.7011C107.714 88.7011 114.627 81.7904 114.627 73.2657C114.627 64.741 107.714 57.8303 99.1864 57.8303C90.6587 57.8303 83.7456 64.741 83.7456 73.2657C83.7456 81.7904 90.6587 88.7011 99.1864 88.7011Z" fill="#A0616A"/>
<path d="M86.6974 78.033C86.6974 78.033 86.6974 94.8303 80.7936 96.1922C74.8898 97.5542 88.9681 112.99 96.6885 111.174C104.409 109.358 107.588 97.1002 107.588 97.1002C107.588 97.1002 100.776 88.4745 103.501 83.9347C106.225 79.3949 86.6974 78.033 86.6974 78.033Z" fill="#A0616A"/>
<path d="M93.2824 101.412C91.1147 101.345 88.9947 100.759 87.0994 99.7055C85.2041 98.6516 83.5885 97.1599 82.3874 95.3547C82.3874 95.3547 76.0251 96.4187 75.1168 96.8727C74.2086 97.3266 58.3137 102.32 54.6805 112.762L69.213 131.375C69.213 131.375 66.034 157.706 69.213 169.51C71.1061 176.58 70.6274 184.075 67.8506 190.847C67.8506 190.847 66.4882 191.301 68.7589 192.209C71.0296 193.117 123.256 182.675 124.164 179.951C125.072 177.228 123.256 177.228 124.618 175.866C125.981 174.504 129.614 166.332 125.981 163.608C122.347 160.884 120.077 130.921 120.077 130.921L129.614 106.86C129.614 106.86 112.184 92.9351 105.912 94.6769C105.912 94.6769 104.636 101.412 93.2824 101.412Z" fill="#CDD7E1"/>
<path d="M99.1861 228.982C99.1861 228.982 98.2778 248.957 100.094 256.675C101.911 264.392 101.911 267.57 101.911 267.57C101.911 267.57 99.186 280.736 100.548 292.993C101.911 305.251 98.959 325.008 98.959 325.008L110.085 328.404L116.898 293.901C116.898 293.901 122.347 272.564 119.168 262.576C119.168 262.576 120.985 232.16 122.347 228.982C123.71 225.804 99.1861 228.982 99.1861 228.982Z" fill="#A0616A"/>
<path d="M86.9999 76.0152C87.2047 74.5674 87.6376 72.988 88.8726 72.2045C90.1547 71.3911 91.8097 71.7247 93.3242 71.8355C94.8387 71.9462 96.6945 71.5675 97.1923 70.1334C97.5027 69.2392 97.1673 68.1706 97.6515 67.3572C98.4221 66.0628 100.775 66.2106 101.181 64.7599C101.309 64.3005 101.184 63.7877 101.37 63.3481C101.62 62.7552 102.323 62.5188 102.95 62.3736C105.243 61.8432 107.599 61.6356 109.95 61.7569C110.18 61.7981 110.417 61.7512 110.614 61.6255C110.718 61.5227 110.792 61.3937 110.829 61.2523C111.36 59.6628 110.797 57.8592 109.739 56.559C108.615 55.3068 107.229 54.3171 105.68 53.6599C102.25 51.9968 98.5317 51.009 94.728 50.7503C91.8313 50.5684 88.7905 50.8837 86.3231 52.4116C85.5918 52.8741 84.9132 53.4149 84.2993 54.0245C81.6152 56.7152 79.8652 60.1956 79.3063 63.9543C78.7644 67.704 79.1841 71.5299 80.5261 75.0731C81.31 77.206 82.5466 79.409 84.4598 80.7233C85.4852 81.4278 86.3693 82.0782 86.7952 80.882C87.2468 79.6135 86.8012 77.4209 86.9999 76.0152Z" fill="#2F2E41"/>
<path d="M70.1208 188.124C70.1208 188.124 63.3087 197.203 64.6711 203.559C66.0335 209.915 71.0291 220.356 71.0291 220.356C71.0291 220.356 68.3042 240.786 72.8456 240.786C77.3871 240.786 96.9151 239.878 97.3692 237.608C97.8234 235.338 96.0068 212.639 96.0068 212.639C96.0068 212.639 98.2775 232.614 99.6399 232.614C101.002 232.614 124.618 234.884 125.526 233.522C126.434 232.16 128.251 197.203 128.251 197.203C128.251 197.203 130.728 180.717 122.904 178.519C115.081 176.32 70.1208 188.124 70.1208 188.124Z" fill="#2F2E41"/>
<path d="M106.452 324.772C106.452 324.772 98.2778 320.232 97.8237 323.864C97.3695 327.496 92.374 340.661 92.374 340.661C92.374 340.661 87.3784 351.103 98.2778 351.557C109.177 352.011 111.902 347.017 111.902 344.747C111.902 342.477 110.68 326.904 110.68 326.904L106.452 324.772Z" fill="#2F2E41"/>
<path d="M134.609 131.376L136.879 151.351C136.879 151.351 139.604 162.247 137.788 166.786C135.971 171.326 129.159 192.209 129.159 192.209C129.159 192.209 127.342 180.86 122.801 179.498L125.526 153.621C125.526 153.621 119.024 137.473 120.458 135.332C121.893 133.192 134.609 131.376 134.609 131.376Z" fill="#A0616A"/>
<path d="M53.7719 132.737L54.6801 150.897C54.6801 150.897 51.5011 166.786 57.8591 183.583L58.7674 190.847L64.6712 202.197C64.6712 202.197 66.0336 191.301 68.7585 191.301C68.7585 191.301 66.0336 184.037 66.9419 179.951C67.8502 175.866 66.4878 154.074 66.4878 154.074L68.7585 136.446L53.7719 132.737Z" fill="#A0616A"/>
<path d="M124.618 106.407H129.613C129.613 106.407 141.421 133.646 136.879 134.1C132.338 134.554 117.806 138.186 117.351 136.37C116.897 134.554 124.618 106.407 124.618 106.407Z" fill="#CDD7E1"/>
<path d="M58.7677 108.677L54.6805 112.763C54.6805 112.763 49.2308 133.192 53.318 135.462C57.4053 137.732 72.8461 140.456 73.7543 138.64C74.6626 136.824 58.7677 108.677 58.7677 108.677Z" fill="#CDD7E1"/>
<path d="M384.523 14.1485V328.98C384.519 332.731 383.026 336.326 380.373 338.977C377.719 341.628 374.121 343.118 370.369 343.119H242.512C240.654 343.122 238.813 342.759 237.095 342.05C235.377 341.34 233.815 340.299 232.501 338.986C231.186 337.672 230.143 336.112 229.433 334.395C228.722 332.679 228.357 330.838 228.359 328.98V14.1485C228.359 12.2904 228.725 10.4506 229.436 8.73391C230.147 7.01726 231.19 5.45748 232.504 4.14364C233.818 2.8298 235.379 1.78763 237.096 1.07666C238.813 0.365691 240.654 -0.000160095 242.512 6.63795e-07H261.646V2.45279C261.646 5.54237 262.873 8.50558 265.058 10.6907C267.243 12.8758 270.207 14.1039 273.297 14.1048H338.326C340.814 14.1101 343.237 13.3129 345.235 11.8317C345.639 11.538 346.022 11.2166 346.382 10.87C347.52 9.7835 348.426 8.47718 349.044 7.03029C349.662 5.58339 349.979 4.02608 349.977 2.45279V6.63795e-07H370.369C372.228 -0.000568592 374.069 0.365003 375.786 1.07583C377.504 1.78665 379.064 2.8288 380.378 4.14272C381.693 5.45664 382.735 7.01658 383.446 8.73341C384.158 10.4502 384.523 12.2903 384.523 14.1485V14.1485Z" fill="#3D4756"/>
<path opacity="0.1" d="M324.075 133.88C344.201 133.88 360.516 130.618 360.516 126.594C360.516 122.57 344.201 119.309 324.075 119.309C303.95 119.309 287.635 122.57 287.635 126.594C287.635 130.618 303.95 133.88 324.075 133.88Z" fill="black"/>
<path opacity="0.1" d="M271.115 171.279C291.241 171.279 307.556 168.017 307.556 163.993C307.556 159.97 291.241 156.708 271.115 156.708C250.99 156.708 234.675 159.97 234.675 163.993C234.675 168.017 250.99 171.279 271.115 171.279Z" fill="black"/>
<path opacity="0.1" d="M301.24 239.763C321.365 239.763 337.68 236.501 337.68 232.477C337.68 228.453 321.365 225.192 301.24 225.192C281.114 225.192 264.8 228.453 264.8 232.477C264.8 236.501 281.114 239.763 301.24 239.763Z" fill="black"/>
<path opacity="0.1" d="M291.037 314.075C311.162 314.075 327.477 310.813 327.477 306.79C327.477 302.766 311.162 299.504 291.037 299.504C270.911 299.504 254.596 302.766 254.596 306.79C254.596 310.813 270.911 314.075 291.037 314.075Z" fill="black"/>
<path d="M277.84 292.223C283.158 302.082 294.444 306.314 294.444 306.314C294.444 306.314 297.109 294.562 291.791 284.703C286.473 274.844 275.186 270.612 275.186 270.612C275.186 270.612 272.522 282.364 277.84 292.223Z" fill="white"/>
<path d="M281.495 288.98C291.097 294.754 294.794 306.223 294.794 306.223C294.794 306.223 282.925 308.331 273.324 302.556C263.723 296.782 260.026 285.313 260.026 285.313C260.026 285.313 271.894 283.205 281.495 288.98Z" fill="#0085FF"/>
<rect x="240.506" y="33.999" width="131.185" height="158.339" rx="13.1605" fill="#FCFDFF"/>
<ellipse cx="306.341" cy="65.8125" rx="13.8473" ry="13.8425" fill="#0085FF"/>
<path d="M306.341 84.5122C291.985 84.5122 280.347 96.2548 280.347 110.74H332.336C332.336 96.2548 320.698 84.5122 306.341 84.5122Z" fill="#0085FF"/>
<rect x="269.658" y="129.197" width="71.423" height="4.85703" fill="#BEC9CF"/>
<rect x="255.568" y="145.71" width="99.6035" height="4.85702" fill="#BEC9CF"/>
<rect x="255.568" y="162.224" width="99.6035" height="4.85702" fill="#BEC9CF"/>
<g filter="url(#filter0_d)">
<rect x="287.337" y="208.375" width="162.313" height="57.0288" rx="13.1605" fill="#0085FF"/>
<g clip-path="url(#clip1)" filter="url(#filter1_d)">
<path d="M323.163 256.584C334.038 256.584 342.855 247.771 342.855 236.899C342.855 226.027 334.038 217.214 323.163 217.214C312.287 217.214 303.471 226.027 303.471 236.899C303.471 247.771 312.287 256.584 323.163 256.584Z" fill="white"/>
<path d="M333.009 237.617V244.282H329.051V238.063C329.051 236.502 328.479 235.436 327.046 235.436C325.953 235.436 325.303 236.154 325.016 236.849C324.912 237.097 324.885 237.442 324.885 237.79V244.281H320.927C320.927 244.281 320.98 233.75 320.927 232.659H324.886V234.306C324.878 234.319 324.866 234.332 324.859 234.344H324.886V234.306C325.412 233.516 326.35 232.386 328.453 232.386C331.056 232.386 333.009 234.048 333.009 237.617ZM316.787 227.057C315.433 227.057 314.547 227.925 314.547 229.065C314.547 230.181 315.407 231.073 316.735 231.073H316.761C318.141 231.073 318.999 230.181 318.999 229.065C318.973 227.925 318.141 227.057 316.787 227.057ZM314.782 244.282H318.739V232.659H314.782V244.282Z" fill="#015DFF"/>
</g>
<path d="M367.058 241.194C367.058 234.719 357.635 236.772 357.635 233.087C357.635 231.587 358.714 230.876 360.162 230.929C361.741 230.955 362.715 231.903 362.794 233.113H366.847C366.61 229.797 364.031 227.875 360.267 227.875C356.477 227.875 353.792 229.876 353.792 233.192C353.766 239.852 363.241 237.456 363.241 241.431C363.241 242.747 362.215 243.668 360.478 243.668C358.767 243.668 357.793 242.694 357.687 241.22H353.739C353.792 244.695 356.74 246.695 360.556 246.695C364.742 246.695 367.058 244.089 367.058 241.194ZM370.252 246.511H373.937V238.457C373.937 236.114 375.227 234.851 377.228 234.851C379.175 234.851 380.465 236.114 380.465 238.457V246.511H384.15V237.956C384.15 233.929 381.755 231.718 378.465 231.718C376.517 231.718 374.885 232.508 373.937 233.745V227.033H370.252V246.511ZM386.707 239.167C386.707 243.721 389.655 246.748 393.339 246.748C395.656 246.748 397.314 245.642 398.183 244.379V246.511H401.894V231.929H398.183V234.008C397.314 232.798 395.708 231.692 393.366 231.692C389.655 231.692 386.707 234.614 386.707 239.167ZM398.183 239.22C398.183 241.984 396.34 243.51 394.313 243.51C392.339 243.51 390.47 241.931 390.47 239.167C390.47 236.403 392.339 234.93 394.313 234.93C396.34 234.93 398.183 236.456 398.183 239.22ZM409.178 239.246C409.178 236.43 410.494 235.588 412.678 235.588H413.652V231.718C411.626 231.718 410.099 232.692 409.178 234.193V231.929H405.493V246.511H409.178V239.246ZM422.399 234.719C424.294 234.719 425.82 235.93 425.873 237.851H418.951C419.24 235.851 420.635 234.719 422.399 234.719ZM429.321 241.931H425.347C424.873 242.905 424.004 243.694 422.425 243.694C420.583 243.694 419.109 242.484 418.924 240.325H429.584C429.663 239.852 429.69 239.378 429.69 238.904C429.69 234.561 426.715 231.692 422.504 231.692C418.187 231.692 415.187 234.614 415.187 239.22C415.187 243.8 418.266 246.748 422.504 246.748C426.11 246.748 428.531 244.616 429.321 241.931Z" fill="white"/>
</g>
</g>
<defs>
<filter id="filter0_d" x="249.062" y="174.883" width="238.864" height="133.58" filterUnits="userSpaceOnUse" color-interpolation-filters="sRGB">
<feFlood flood-opacity="0" result="BackgroundImageFix"/>
<feColorMatrix in="SourceAlpha" type="matrix" values="0 0 0 0 0 0 0 0 0 0 0 0 0 0 0 0 0 0 127 0"/>
<feOffset dy="4.78444"/>
<feGaussianBlur stdDeviation="19.1378"/>
<feColorMatrix type="matrix" values="0 0 0 0 0 0 0 0 0 0.5005 0 0 0 0 0.9625 0 0 0 0.25 0"/>
<feBlend mode="normal" in2="BackgroundImageFix" result="effect1_dropShadow"/>
<feBlend mode="normal" in="SourceGraphic" in2="effect1_dropShadow" result="shape"/>
</filter>
<filter id="filter1_d" x="294.335" y="211.124" width="63.7463" height="63.7326" filterUnits="userSpaceOnUse" color-interpolation-filters="sRGB">
<feFlood flood-opacity="0" result="BackgroundImageFix"/>
<feColorMatrix in="SourceAlpha" type="matrix" values="0 0 0 0 0 0 0 0 0 0 0 0 0 0 0 0 0 0 127 0"/>
<feOffset dx="3.04529" dy="6.09058"/>
<feGaussianBlur stdDeviation="6.09058"/>
<feColorMatrix type="matrix" values="0 0 0 0 0.224444 0 0 0 0 0.422133 0 0 0 0 0.533333 0 0 0 0.18 0"/>
<feBlend mode="normal" in2="BackgroundImageFix" result="effect1_dropShadow"/>
<feBlend mode="normal" in="SourceGraphic" in2="effect1_dropShadow" result="shape"/>
</filter>
<clipPath id="clip0">
<rect width="533" height="353.14" fill="white"/>
</clipPath>
<clipPath id="clip1">
<rect width="39.384" height="39.3703" fill="white" transform="translate(303.471 217.215)"/>
</clipPath>
</defs>
</svg>
